<?xml version="1.0" encoding="UTF-8"?>
<!DOCTYPE svg PUBLIC "-//W3C//DTD SVG 1.1//EN" "http://www.w3.org/Graphics/SVG/1.1/DTD/svg11.dtd">
<!-- Creator: CorelDRAW 2018 (64-Bit) -->
<svg xmlns="http://www.w3.org/2000/svg" xml:space="preserve" width="29.255mm" height="12.329mm" version="1.1" style="shape-rendering:geometricPrecision; text-rendering:geometricPrecision; image-rendering:optimizeQuality; fill-rule:evenodd; clip-rule:evenodd"
viewBox="0 0 169808 71563"
 xmlns:xlink="http://www.w3.org/1999/xlink">
 <defs>
  <style type="text/css">
   <![CDATA[
    .fil0 {fill:#E31E24}
    .fil1 {fill:#FEFEFE;fill-rule:nonzero}
    .fil2 {fill:#FEFEFE;fill-rule:nonzero}
   ]]>
  </style>
 </defs>
 <g id="Слой_x0020_1">
  <metadata id="CorelCorpID_0Corel-Layer"/>
  <rect class="fil0" transform="matrix(1.52537 0.103772 -0.113265 1.66492 4394.55 335.89)" width="108221" height="35834" rx="5897" ry="5897"/>
  <path class="fil1" d="M14278 25l145441 9895c2970,201 5587,1600 7410,3690 1824,2090 2856,4872 2654,7840l-2723 40024c-202,2970 -1601,5588 -3689,7411 -2091,1824 -4873,2855 -7841,2654l-145441 -9894c-2970,-202 -5587,-1601 -7410,-3690 -1824,-2091 -2855,-4873 -2654,-7841l2723 -40024c201,-2970 1600,-5587 3690,-7410 2090,-1824 4872,-2856 7840,-2654zm145311 11852l-145441 -9895c-2431,-165 -4710,679 -6420,2171 -1712,1493 -2858,3636 -3022,6066l-2723 40024c-165,2432 679,4710 2171,6421 1493,1711 3636,2857 6066,3022l145441 9894c2432,165 4710,-679 6421,-2171 1711,-1493 2856,-3636 3022,-6066l2723 -40024c165,-2432 -679,-4710 -2171,-6420 -1493,-1712 -3636,-2858 -6066,-3022z"/>
  <g id="_1322745760080">
   <path class="fil2" d="M16823 21316c163,122 288,273 373,457 84,185 121,379 107,586 -27,380 -186,681 -478,913 -293,229 -633,334 -1022,306 -393,-27 -719,-178 -980,-446 -264,-271 -383,-592 -356,-972 13,-194 74,-392 180,-593 104,-202 269,-483 490,-849 99,-165 221,-375 367,-634 146,-259 296,-518 449,-777l1756 123 -886 1885zm10169 2530l-369 -26c-402,-28 -785,-132 -1153,-310 -365,-180 -681,-431 -938,-756 -326,284 -694,487 -1101,614 -406,124 -824,172 -1249,142 -453,-31 -869,-145 -1253,-344 -384,-199 -713,-454 -984,-769 -274,-313 -482,-674 -625,-1081 -140,-407 -198,-836 -166,-1289 33,-463 146,-886 338,-1270 192,-387 443,-714 756,-988 315,-271 673,-478 1081,-622 411,-143 846,-197 1308,-164l17 1 1462 156 55 -785 1791 125 -298 4258c-24,342 70,632 279,865 212,238 480,367 808,391l369 26c279,20 497,113 658,282 160,173 232,396 212,678 -20,292 -120,514 -296,667 -176,153 -410,221 -701,200zm-4479 -5074c-195,-13 -385,14 -565,82 -183,64 -345,164 -489,295 -145,131 -262,282 -355,453 -93,169 -142,354 -156,549 -13,194 10,388 77,575 68,190 164,355 289,498 125,143 271,262 443,351 169,93 353,146 549,160 402,28 754,-92 1052,-358 302,-269 467,-608 496,-1023l140 -1479 -1481 -104zm5686 5158l-1207 -84c-292,-20 -517,-121 -676,-304 -160,-173 -231,-403 -211,-695 20,-282 122,-493 304,-642 182,-146 418,-207 710,-186l1207 85c157,11 311,-12 456,-70 142,-57 276,-142 392,-249 118,-109 215,-234 286,-377 70,-140 111,-292 122,-449l203 -2907 1830 128 -207 2960c-28,403 -135,779 -318,1127 -186,351 -423,651 -717,906 -294,256 -628,452 -1005,590 -377,138 -769,196 -1171,167zm-533 2075l1683 118 -120 1719 -1683 -117 120 -1720zm8890 -1491l-895 -63c-416,-29 -799,-136 -1153,-320 -355,-183 -658,-420 -907,-707 -250,-287 -442,-616 -574,-993 -132,-380 -185,-774 -156,-1190l545 -7787 1794 125 -546 7808c-22,315 73,595 288,839 215,240 496,375 838,399l896 63c281,20 500,112 660,282 160,173 229,396 209,678 -20,292 -117,514 -293,668 -179,152 -413,220 -705,200zm1482 104l-1482 -104c-291,-20 -517,-121 -676,-303 -160,-173 -231,-404 -211,-696 20,-282 122,-493 304,-642 182,-146 418,-206 710,-186l1481 103c158,11 311,-12 453,-70 145,-57 279,-142 395,-248 119,-109 211,-234 286,-377 71,-140 111,-292 122,-450l203 -2906 1827 128 -207 2960c-28,403 -132,780 -318,1127 -183,351 -420,651 -713,907 -294,256 -627,451 -1008,590 -377,138 -764,196 -1167,168zm3551 -6901l-1702 -119 121 -1736 1703 119 -122 1736zm-2836 -198l-1699 -119 121 -1737 1700 119 -122 1737zm13281 13242l-3916 -273c-486,-34 -932,-160 -1341,-370 -406,-214 -755,-488 -1044,-828 -290,-337 -512,-723 -663,-1159 -156,-431 -214,-894 -180,-1380l317 -4536 1830 128 -317 4536c-34,486 95,903 388,1250 296,344 673,532 1136,565l3822 268c222,5 440,-24 650,-83 213,-59 408,-153 582,-279 174,-129 317,-291 428,-486 111,-194 178,-418 196,-677 30,-425 -78,-807 -324,-1141 -246,-337 -581,-556 -1001,-659l-3128 -219 128 -1827 6929 485c282,20 502,113 661,282 160,173 228,397 208,678 -20,292 -117,514 -293,668 -175,153 -409,221 -705,200l-1022 -71c297,476 421,1054 374,1734 -50,721 -323,1392 -822,2022l-18 16c-371,402 -807,705 -1303,909 -499,204 -1024,289 -1571,251zm9263 -4516c-425,-30 -828,-143 -1210,-334 -377,-192 -709,-450 -993,-777 -313,285 -662,496 -1045,634 -383,138 -775,195 -1177,167l-476 -33c-292,-20 -514,-120 -670,-296 -153,-176 -218,-410 -197,-701 20,-282 119,-493 301,-643 182,-146 412,-207 694,-187l476 33c279,20 554,-70 817,-266 266,-197 410,-470 435,-825l121 -1737 -969 -67 125 -1790 4224 295c463,33 886,146 1270,345 387,199 712,454 987,766 270,315 478,673 621,1084 143,407 197,842 165,1305 -32,453 -145,870 -344,1253 -199,384 -457,712 -777,983 -319,274 -683,481 -1091,625 -407,143 -839,197 -1289,166zm-1150 -4841l-103 1482c-14,194 14,385 78,565 68,183 164,348 289,492 125,143 275,258 454,352 176,93 364,144 558,157 208,15 402,-9 585,-77 180,-68 345,-161 489,-286 143,-125 262,-275 351,-448 92,-169 146,-353 160,-548 29,-416 -91,-774 -359,-1083 -265,-305 -607,-474 -1020,-503l-1482 -103zm16819 5936l-385 -27c-536,-38 -950,-181 -1247,-428 -295,-246 -557,-561 -790,-944l-96 -155c-313,430 -699,746 -1161,946 -462,200 -953,284 -1476,247l-3456 -241 128 -1827 3456 242c315,22 598,-73 845,-282 247,-212 383,-462 403,-753 8,-110 2,-225 -13,-341 -19,-119 -52,-226 -105,-331l-1904 -3273 1535 -940 3332 5670c119,230 209,381 272,453 63,72 144,111 241,118l550 38c305,21 531,114 677,283 147,158 212,385 192,676 -20,292 -120,514 -297,668 -175,152 -409,220 -701,200zm6219 435c-503,-35 -1002,-124 -1507,-270 -506,-146 -909,-394 -1218,-745 -621,505 -1325,733 -2102,678l-1408 -99c-295,-20 -517,-120 -670,-296 -153,-176 -220,-410 -200,-702 20,-291 116,-507 284,-643 172,-146 409,-207 714,-186l1408 99c315,21 598,-80 846,-302 248,-222 385,-502 409,-843l202 -2890 1827 128 -205 2943c-23,318 73,601 280,849 208,247 479,384 807,406l895 63c295,21 515,114 661,282 161,160 232,387 212,678 -27,389 -158,636 -391,734 -236,102 -515,139 -844,116zm-5546 1745l1704 119 -121 1737 -1704 -119 121 -1737zm2837 199l1700 119 -121 1736 -1700 -118 121 -1737zm15341 -1060l-2595 -181c-818,-57 -1492,-391 -2025,-1004 -590,535 -1311,771 -2162,711 -393,-27 -763,-131 -1111,-307 -348,-179 -655,-416 -913,-717 -628,545 -1355,788 -2184,730l-1408 -98c-281,-20 -500,-120 -660,-295 -159,-176 -228,-410 -207,-702 20,-291 120,-506 301,-642 169,-147 402,-208 694,-187l1409 99c352,24 651,-69 892,-278 240,-212 374,-479 397,-811l179 -2557 1827 128 -194 2779c-15,219 20,392 102,523 85,128 186,229 312,305 122,75 253,129 394,156 136,29 249,48 333,53 331,23 611,-72 848,-281 234,-213 377,-486 425,-827l178 -2541 1774 124 -168 2690c-22,315 51,576 218,777 172,201 413,315 731,337l915 64 291 -4171 1827 128 -420 5998zm-3107 -10195l-1683 -118 120 -1720 1683 118 -121 1720zm1228 2916l-1700 -119 122 -1737 1699 119 -121 1737zm-2833 -199l-1703 -119 122 -1736 1702 119 -121 1736zm5041 11986l-350 -1604 320 -89c390,-131 770,-264 1140,-399 370,-133 698,-305 982,-518 569,-415 880,-1017 936,-1811l430 -6141 1827 128 -431 6161c-82,691 -251,1272 -495,1737 -248,468 -562,860 -948,1174 -383,317 -832,575 -1348,771 -515,196 -1087,365 -1709,504l-353 86zm8744 -8650c-194,-13 -385,14 -565,78 -183,68 -345,165 -489,290 -143,124 -261,272 -354,443 -89,172 -143,361 -157,569 -28,402 89,751 358,1052 265,301 600,467 1003,495l1481 103 101 -1445c28,-402 -95,-761 -366,-1073 -270,-316 -609,-484 -1012,-513zm1048 5255c17,-59 31,-116 48,-162 2,-37 9,-80 19,-127 10,-50 12,-86 14,-110l-1462 -102c-449,-31 -869,-145 -1253,-344 -384,-199 -713,-458 -983,-776 -270,-319 -481,-684 -621,-1091 -143,-408 -201,-839 -169,-1289 31,-439 148,-856 347,-1246 196,-391 456,-726 768,-1011 313,-284 675,-502 1084,-652 407,-147 840,-207 1289,-176 463,32 885,150 1272,348 384,199 712,461 983,783 270,325 477,694 620,1101 143,407 197,843 165,1308l-101 1445 878 62c295,20 514,113 661,282 160,173 228,396 208,678 -20,292 -117,514 -293,668 -175,152 -409,221 -704,200l-878 -62c-160,1262 -713,2248 -1655,2953 -195,145 -410,272 -643,376 -233,108 -476,200 -717,283 -245,81 -492,147 -742,204 -250,57 -479,108 -691,154 -62,19 -127,35 -195,40 -68,9 -133,21 -195,44l-356 82 -383 -1606 354 -103c66,-20 134,-38 207,-60 75,-18 150,-37 226,-58 350,-97 708,-200 1080,-308 367,-110 681,-259 941,-450 293,-199 501,-423 623,-674 121,-248 207,-450 255,-605zm7269 104l-4516 -316c-282,-20 -504,-120 -670,-296 -163,-176 -238,-404 -218,-686 19,-268 124,-479 311,-638 190,-159 424,-226 705,-207l4499 315c315,22 622,-38 922,-175 296,-141 566,-342 803,-608l1256 -1381 -2104 -1178c-223,-136 -487,-216 -792,-237 -731,-51 -1425,291 -2077,1031l-199 242 -1391 -869 224 -314c421,-631 928,-1118 1507,-1458 579,-337 1263,-481 2041,-427 586,41 1121,197 1605,463 269,154 561,319 875,492 312,176 603,339 875,492 318,184 635,365 953,545 200,125 458,197 776,219l1281 90 -123 1756c-210,9 -432,17 -665,17 -232,1 -450,-5 -658,-19 -185,-13 -341,-41 -473,-86l-1524 1857c-818,1011 -1892,1468 -3222,1375zm-246 -9884l1683 118 -120 1720 -1683 -118 120 -1720zm17167 16232l-3915 -273c-486,-34 -932,-160 -1341,-370 -406,-214 -755,-488 -1044,-828 -290,-337 -513,-723 -663,-1159 -156,-431 -214,-894 -180,-1380l318 -4536 1830 128 -318 4536c-34,486 95,903 388,1250 296,344 673,532 1136,565l3822 268c222,5 439,-24 649,-83 213,-59 409,-153 582,-279 175,-129 318,-291 428,-486 111,-194 178,-418 196,-677 30,-425 -78,-807 -325,-1141 -246,-337 -580,-556 -1001,-659l-3127 -219 128 -1827 6929 485c282,20 501,113 661,282 160,173 229,397 209,678 -20,292 -117,515 -293,668 -175,153 -409,221 -704,200l-1022 -71c297,476 421,1054 374,1734 -50,721 -323,1392 -822,2022l-18 16c-371,402 -807,705 -1303,909 -500,204 -1024,289 -1571,251zm11385 -4368c-258,-18 -552,-52 -886,-99 -334,-46 -669,-114 -1006,-198 -338,-84 -651,-190 -941,-315 -291,-125 -517,-279 -676,-458 -625,505 -1325,733 -2105,678l-1408 -99c-292,-20 -514,-120 -670,-296 -153,-176 -217,-409 -197,-701 20,-291 113,-507 284,-644 169,-146 405,-207 710,-186l1408 98c318,23 598,-80 846,-301 251,-222 385,-502 410,-843l202 -2890 1830 128 -206 2943c-22,318 69,601 278,849 212,247 479,384 810,407l1445 101c292,20 511,113 658,282 160,160 232,387 212,678 -20,292 -124,514 -306,666 -182,152 -413,221 -691,201zm-803 -7205l-1699 -118 121 -1737 1700 119 -122 1736zm-2833 -198l-1700 -119 121 -1736 1700 119 -122 1736zm7146 7648l-3510 -246c-292,-20 -514,-120 -670,-296 -153,-176 -218,-409 -197,-701 19,-268 118,-484 301,-643 196,-145 425,-205 694,-187l3510 246c305,21 582,-37 831,-175 248,-134 443,-319 581,-556l-1079 -75c-416,-29 -796,-133 -1145,-308 -351,-180 -648,-410 -898,-697 -250,-287 -439,-617 -564,-986 -129,-369 -179,-764 -150,-1179 29,-412 136,-795 320,-1143 185,-347 419,-651 706,-907 287,-252 618,-448 987,-581 370,-132 757,-186 1160,-158 402,28 782,136 1136,319 354,184 658,424 914,715 256,294 448,631 583,1007 132,377 186,765 158,1167l-164 2343c-32,450 -148,869 -348,1260 -199,391 -454,723 -767,994 -312,275 -674,482 -1081,625 -407,143 -846,197 -1308,164zm749 -6766c-329,-23 -615,71 -855,280 -240,212 -374,479 -397,808 -23,331 72,615 280,858 209,240 479,374 808,397l1170 82 82 -1174c23,-338 -67,-628 -270,-861 -203,-237 -477,-367 -818,-391zm2495 -3113l-1700 -119 121 -1737 1700 119 -121 1737zm-2833 -199l-1700 -118 121 -1737 1700 119 -121 1736zm5341 14815l-367 -1605 337 -88c75,-19 147,-37 217,-56 68,-21 140,-41 216,-59 360,-86 724,-192 1087,-318 366,-129 676,-276 930,-441 258,-180 484,-424 678,-734 193,-313 290,-633 286,-964l-1445 -101c-449,-31 -866,-148 -1253,-344 -384,-199 -712,-457 -983,-776 -271,-322 -478,-684 -621,-1091 -143,-411 -197,-839 -165,-1288 30,-439 143,-856 343,-1246 199,-391 454,-723 767,-1001 313,-282 674,-492 1083,-642 412,-150 840,-207 1289,-176 453,31 869,149 1255,354 383,205 712,464 989,786 281,319 492,681 632,1089 143,410 201,839 169,1291l-204 2923c-48,684 -205,1300 -470,1850 -265,551 -669,1041 -1214,1469 -196,148 -410,268 -643,369 -233,101 -475,189 -726,269 -252,83 -496,150 -739,208 -243,57 -472,109 -681,154 -75,19 -144,34 -205,49 -65,12 -127,31 -189,51l-371 64zm2271 -9118c-194,-13 -385,13 -575,77 -187,68 -352,168 -489,297 -137,132 -252,282 -341,454 -93,172 -146,353 -160,551 -28,402 92,751 358,1052 269,302 601,463 1004,492l1482 103 101 -1441c13,-198 -14,-385 -78,-568 -68,-183 -164,-349 -289,-499 -124,-147 -271,-269 -443,-362 -169,-89 -360,-143 -568,-157zm-128629 16370l-1515 -106 236 -6799 1974 138 -695 6766zm-809 1358c-295,-21 -540,53 -734,225 -197,171 -303,389 -322,658 -19,279 55,519 226,713 168,197 400,304 695,325 291,20 536,-54 730,-226 197,-168 304,-396 324,-674 19,-268 -56,-499 -228,-697 -168,-197 -400,-304 -691,-324zm9836 6219l-4297 -301c-477,-33 -917,-154 -1326,-369 -406,-210 -757,-488 -1054,-825 -293,-340 -518,-727 -674,-1159 -151,-435 -210,-890 -176,-1363l273 -3916 1827 128 -274 3916c-33,463 102,862 404,1203 300,338 674,525 1127,557l4298 301c341,24 628,-70 865,-280 233,-212 364,-480 387,-811 18,-255 -40,-491 -174,-709 -129,-218 -297,-365 -501,-439l-4004 -1328 120 -1716c30,-429 132,-829 303,-1202 174,-375 403,-699 684,-973 282,-273 617,-486 1002,-638 384,-151 796,-210 1232,-179l2923 258 -123 1757 -2927 -205c-168,-12 -334,10 -489,67 -160,56 -295,131 -410,227 -118,96 -213,208 -289,330 -76,122 -118,244 -127,369l-52 748c456,119 893,240 1305,367 413,127 884,278 1410,450 636,216 1127,594 1484,1131 353,540 506,1144 459,1814 -30,429 -131,816 -311,1164 -176,352 -413,652 -707,907 -294,256 -624,445 -993,574 -373,126 -770,175 -1196,146zm3213 1070l-349 -1604 320 -89c389,-131 770,-264 1139,-399 370,-133 698,-305 983,-518 568,-415 880,-1016 935,-1811l430 -6141 1827 128 -431 6161c-82,691 -251,1272 -495,1737 -248,468 -562,860 -948,1174 -383,317 -832,575 -1348,771 -515,196 -1087,365 -1709,504l-353 86zm8083 -3919l-1830 -128 754 -10788 1831 128 -755 10788zm5357 374l-3986 -279 128 -1827 3986 279c318,22 598,-70 844,-275 250,-201 383,-454 403,-760 16,-221 -17,-423 -96,-603 -78,-184 -193,-330 -346,-438l-3098 -2477 1056 -1415c35,26 134,104 297,233 164,125 352,273 565,443 214,167 451,349 707,545 255,196 495,385 721,566 226,181 424,340 593,472 169,134 281,229 338,280 373,296 651,662 833,1099 185,435 260,908 224,1421 -28,402 -135,775 -318,1117 -185,340 -422,637 -715,886 -294,248 -621,442 -987,574 -363,133 -748,187 -1150,159zm16678 1166l-5669 -396c-526,-37 -1012,-168 -1461,-395 -449,-227 -832,-523 -1150,-889 -318,-366 -558,-787 -720,-1264 -162,-475 -225,-979 -188,-1502l155 -2212 1790 125 -154 2213c-19,269 16,527 104,779 83,252 210,470 375,649 166,184 364,336 602,457 237,121 495,193 776,212l5670 396c277,19 543,-16 795,-103 252,-87 473,-213 659,-375 190,-165 345,-363 466,-594 121,-230 190,-485 209,-767l154 -2193 1793 125 -154 2213c-37,524 -169,1013 -399,1461 -227,449 -523,833 -889,1151 -362,318 -783,558 -1263,720 -476,162 -976,225 -1499,188zm55 -6023l-1703 -119 121 -1736 1703 119 -121 1736zm-2837 -198l-1700 -119 121 -1737 1700 119 -122 1737zm6875 10991l-349 -1604 320 -89c389,-131 770,-263 1139,-398 370,-133 698,-305 983,-518 568,-416 880,-1017 935,-1812l430 -6141 1827 128 -431 6161c-82,691 -251,1273 -495,1737 -248,468 -562,860 -948,1174 -383,318 -832,575 -1348,772 -515,196 -1086,365 -1709,503l-353 86zm13588 -3534l-385 -27c-536,-38 -951,-181 -1247,-428 -296,-246 -557,-561 -790,-944l-97 -155c-313,430 -698,746 -1160,946 -462,200 -953,284 -1476,247l-3457 -241 128 -1827 3457 242c315,22 598,-73 845,-282 248,-212 383,-462 403,-753 8,-110 3,-225 -13,-341 -19,-119 -52,-226 -104,-331l-1904 -3273 1534 -940 3333 5670c119,230 209,381 272,453 62,72 144,111 241,118l550 38c305,21 532,114 678,283 147,158 212,385 192,676 -20,292 -120,514 -296,668 -175,152 -409,220 -701,200zm3510 246l-3510 -246c-292,-20 -514,-120 -670,-296 -153,-176 -218,-409 -197,-701 19,-268 118,-484 301,-643 196,-145 425,-205 694,-187l3510 246c305,21 582,-37 831,-175 248,-134 443,-319 581,-556l-1079 -75c-416,-29 -796,-133 -1145,-308 -351,-180 -648,-410 -898,-697 -250,-287 -439,-617 -564,-986 -129,-369 -179,-764 -150,-1179 29,-412 136,-795 320,-1143 185,-347 419,-651 706,-907 287,-252 618,-448 987,-581 370,-132 757,-186 1160,-158 402,28 782,136 1136,319 355,184 658,424 914,715 256,294 448,631 583,1007 132,377 185,765 157,1167l-164 2343c-31,450 -148,869 -348,1260 -199,391 -454,723 -767,994 -312,275 -674,482 -1081,625 -407,143 -846,197 -1309,164zm750 -6766c-329,-23 -615,71 -856,280 -240,212 -374,479 -396,808 -23,331 71,615 280,858 209,240 479,374 807,397l1170 82 82 -1174c23,-338 -67,-628 -270,-861 -203,-237 -477,-367 -818,-391zm2494 -3113l-1700 -119 122 -1737 1699 119 -121 1737zm-2833 -199l-1700 -118 121 -1737 1700 119 -121 1736zm14530 11122l-369 -26c-402,-28 -785,-132 -1154,-310 -365,-181 -681,-432 -938,-756 -326,284 -694,487 -1101,614 -406,124 -824,172 -1249,142 -453,-32 -870,-145 -1253,-344 -384,-199 -713,-454 -984,-770 -275,-312 -482,-674 -625,-1081 -139,-407 -197,-836 -165,-1289 32,-463 146,-886 338,-1270 192,-387 443,-713 756,-988 315,-271 673,-478 1081,-622 411,-143 846,-197 1308,-164l17 1 1461 156 55 -784 1790 125 -298 4258c-24,342 70,632 280,865 212,237 479,367 808,390l369 26c278,19 497,112 657,282 160,173 232,397 212,678 -20,292 -120,514 -297,668 -176,152 -409,220 -701,200zm-4479 -5074c-194,-13 -385,14 -565,82 -183,64 -345,164 -489,295 -145,132 -262,282 -355,454 -93,168 -143,353 -156,548 -13,194 9,388 77,575 68,190 164,355 289,499 125,143 271,261 443,351 169,93 353,146 548,160 403,28 755,-92 1053,-358 301,-269 467,-607 496,-1023l140 -1479 -1482 -104z"/>
   <path class="fil2" d="M116897 53863l-476 -33c-403,-28 -786,-132 -1144,-309 -362,-180 -675,-418 -934,-719 -314,261 -661,453 -1044,580 -379,125 -780,175 -1192,146 -393,-27 -773,-131 -1148,-309 -371,-181 -688,-418 -950,-720 -651,544 -1403,785 -2257,725 -472,-33 -918,-175 -1328,-423 -272,-144 -522,-343 -749,-605 -651,544 -1395,785 -2237,726l-546 -38c-282,-20 -500,-120 -659,-302 -160,-183 -230,-417 -211,-696 20,-281 122,-493 304,-642 182,-146 412,-207 694,-187l546 38c355,24 659,-76 914,-297 254,-221 393,-508 417,-860l182 -2598 1864 130 -182 2598c-24,352 72,655 287,909 214,254 495,396 833,419 369,26 679,-74 941,-295 261,-221 402,-507 427,-859l182 -2598 1810 127 -182 2598c-24,338 80,642 304,900 228,262 517,407 873,432 352,24 659,-79 921,-306 261,-224 403,-511 426,-849l210 -3000 1827 128 -212 3037c-23,329 81,619 310,874 225,255 504,396 833,419l476 33c305,21 531,114 678,283 147,158 212,385 192,677 -20,291 -120,514 -296,667 -175,152 -410,221 -701,200zm-5488 -10362l-1683 -117 120 -1720 1683 118 -120 1719zm1232 2916l-1704 -120 121 -1736 1704 119 -121 1737zm-2837 -199l-1700 -119 121 -1736 1700 118 -121 1737zm13328 8081c-503,-35 -1002,-124 -1507,-271 -506,-146 -909,-394 -1218,-745 -621,505 -1325,733 -2102,678l-1408 -99c-295,-20 -517,-120 -670,-295 -153,-176 -220,-410 -200,-702 20,-291 116,-507 284,-644 172,-146 409,-207 714,-186l1408 99c315,22 598,-80 846,-302 248,-222 385,-502 409,-843l202 -2890 1827 128 -205 2943c-23,318 73,601 280,849 208,247 479,384 807,407l895 63c295,20 515,113 661,282 161,160 232,387 212,678 -27,389 -158,636 -391,735 -236,102 -515,139 -844,116zm-5546 1744l1704 120 -121 1736 -1704 -119 121 -1737zm2837 199l1700 119 -121 1737 -1700 -119 121 -1737zm7586 -1585c-426,-30 -829,-139 -1207,-330 -377,-191 -709,-450 -993,-777 -641,579 -1383,840 -2225,781l-254 -18c-282,-19 -501,-116 -661,-285 -160,-169 -228,-396 -209,-675 21,-295 117,-517 296,-670 176,-153 410,-217 701,-197l255 18c282,20 554,-66 820,-257 263,-190 410,-463 435,-815l236 -3383 3262 80c466,33 889,150 1273,348 384,196 712,454 984,766 271,312 482,674 621,1081 144,407 201,842 168,1308l-14 201c-1,353 99,650 304,894 203,240 470,373 798,396l221 16c292,20 514,117 667,292 153,176 221,410 200,705 -19,279 -118,494 -301,640 -172,146 -402,211 -694,190l-221 -15c-412,-29 -802,-140 -1159,-330 -361,-190 -673,-442 -932,-753 -705,588 -1494,849 -2372,788zm-1150 -4800l-101 1445c-14,194 10,381 78,565 68,183 165,345 290,488 124,143 275,262 450,352 179,93 364,146 559,160 208,15 405,-12 585,-80 182,-65 344,-162 488,-286 144,-125 262,-272 355,-443 89,-172 143,-353 156,-549 29,-416 -87,-777 -355,-1083 -265,-308 -607,-474 -1023,-503l-1481 -66zm14685 5730l-8813 -616c-292,-20 -514,-120 -670,-296 -153,-176 -218,-410 -197,-701 20,-282 119,-493 301,-643 182,-146 412,-207 694,-187l1683 117c-199,-469 -283,-960 -247,-1470 41,-586 252,-1154 634,-1704 -402,-223 -745,-578 -1027,-1062l-146 -266 1187 -985 221 255c412,433 843,665 1293,697l5545 334c439,31 853,143 1236,342 384,199 716,457 994,777 277,319 488,684 632,1092 143,407 197,832 167,1272 -31,449 -145,869 -344,1253 -199,383 -454,716 -770,993 -313,278 -675,489 -1083,632 -407,143 -835,197 -1288,166zm-1133 -1915l1261 88c402,28 751,-86 1044,-341 294,-255 456,-591 485,-1004 28,-402 -85,-753 -341,-1054 -255,-298 -583,-469 -984,-510l-1283 -53c213,470 300,954 265,1453 -37,523 -184,998 -446,1421zm-2764 -3060c-389,-27 -734,87 -1035,349 -301,262 -461,580 -488,959 -28,402 86,751 348,1052 262,301 587,466 976,493 416,30 774,-84 1081,-338 304,-255 472,-591 502,-1003 26,-378 -99,-717 -370,-1020 -272,-302 -611,-463 -1014,-492z"/>
  </g>
 </g>
</svg>
