<?xml version="1.0" encoding="UTF-8"?>
<!DOCTYPE svg PUBLIC "-//W3C//DTD SVG 1.1//EN" "http://www.w3.org/Graphics/SVG/1.1/DTD/svg11.dtd">
<!-- Creator: CorelDRAW 2018 (64-Bit) -->
<svg xmlns="http://www.w3.org/2000/svg" xml:space="preserve" width="21.0799mm" height="5.9693mm" version="1.1" style="shape-rendering:geometricPrecision; text-rendering:geometricPrecision; image-rendering:optimizeQuality; fill-rule:evenodd; clip-rule:evenodd"
viewBox="0 0 89418 25321"
 xmlns:xlink="http://www.w3.org/1999/xlink">
 <defs>
  <style type="text/css">
   <![CDATA[
    .fil0 {fill:#2AA83E}
    .fil2 {fill:#FEFEFE;fill-rule:nonzero}
    .fil1 {fill:#F6F5F4;fill-rule:nonzero}
   ]]>
  </style>
 </defs>
 <g id="Слой_x0020_1">
  <metadata id="CorelCorpID_0Corel-Layer"/>
  <rect class="fil0" transform="matrix(1.40333 -0.098129 0.0981291 1.40333 75.3716 6224.47)" width="62663" height="13554" rx="7183" ry="7183"/>
  <path class="fil1" d="M9538 4844l68918 -4819c2810,-196 5446,775 7428,2498 1983,1724 3314,4202 3510,7015l3 48c182,2793 -788,5410 -2501,7381 -1724,1983 -4202,3313 -7014,3510 -22929,1207 -46017,3388 -68965,4822 -2792,182 -5409,-788 -7380,-2501 -1950,-1695 -3268,-4118 -3499,-6872l-11 -144c-196,-2810 775,-5446 2498,-7428 1724,-1983 4202,-3314 7015,-3510zm69013 -3389l-68918 4819c-2417,169 -4546,1312 -6027,3016 -1455,1673 -2287,3890 -2159,6258l12 24 0 155c179,2400 1318,4514 3013,5988 1706,1483 3975,2319 6395,2150 22505,-1184 46497,-2781 68923,-4820 2414,-170 4542,-1312 6023,-3016 1483,-1706 2319,-3975 2150,-6395l-1 -12c-171,-2412 -1313,-4538 -3016,-6018 -1706,-1483 -3975,-2319 -6396,-2150z"/>
  <path class="fil2" d="M11254 18991c-319,22 -629,-17 -927,-117 -297,-100 -564,-249 -797,-447 -233,-201 -425,-438 -574,-713 -149,-275 -235,-574 -257,-895 -32,-320 5,-635 109,-948 104,-310 264,-590 478,-839l697 -814 -417 -360 873 -974 2218 1928c246,214 438,462 574,745 138,281 220,578 252,889 23,328 -19,644 -124,942 -102,297 -256,562 -461,790 -204,229 -444,415 -724,561 -283,145 -587,230 -918,253zm-1006 -3086c-181,227 -259,486 -229,774 30,288 153,529 373,720 228,198 495,288 797,266 294,-20 532,-136 714,-345 101,-115 171,-238 210,-372 40,-133 55,-270 45,-412 -10,-142 -44,-277 -102,-404 -58,-124 -145,-236 -260,-337l-815 -708 -211 229c-41,47 -87,100 -132,152 -45,53 -91,105 -141,162 -41,47 -84,97 -125,144 -41,48 -82,90 -124,129zm10346 2204l-282 20c-392,28 -706,-34 -946,-182 -239,-148 -460,-349 -668,-603l-86 -102c-182,343 -430,611 -744,803 -314,191 -661,302 -1043,329l-2526 176 -93 -1335 2526 -176c230,-16 425,-114 583,-290 158,-179 230,-373 215,-586 -6,-81 -21,-163 -44,-246 -26,-84 -60,-158 -109,-229l-1711 -2175 1015 -836 2988 3764c109,155 190,255 243,301 53,46 115,66 187,61l402 -28c223,-16 396,29 519,136 123,100 193,257 207,470 15,213 -35,384 -146,513 -112,128 -274,201 -487,216zm882 -62l-882 62c-213,15 -386,-35 -520,-151 -134,-109 -208,-269 -224,-482 -14,-206 38,-369 155,-496 117,-124 282,-192 495,-207l882 -62c115,-8 224,-40 323,-96 97,-56 185,-131 258,-220 75,-91 131,-191 168,-302 36,-108 51,-222 43,-338l-148 -2124 1337 -94 151 2163c21,294 -19,577 -115,848 -99,272 -240,514 -426,729 -187,215 -408,390 -667,529 -259,138 -536,219 -830,240zm-175 1555l1230 -86 88 1257 -1230 86 -88 -1257zm9271 226c-490,34 -960,-26 -1404,-185 -444,-156 -842,-387 -1191,-688 -346,-303 -630,-665 -846,-1083 -219,-418 -344,-875 -378,-1365l-148 -2109 1337 -93 148 2109c22,314 99,601 235,865 134,263 310,490 530,681 220,189 469,337 750,438 280,101 571,140 875,119 301,-21 584,-100 842,-239 259,-139 480,-322 666,-544 186,-225 328,-476 430,-756 101,-280 142,-571 121,-875l-208 -2979 1350 -94 133 1899c18,257 116,467 300,629 181,162 400,235 657,218 260,-18 472,-124 638,-316 164,-189 240,-411 222,-658l-133 -1899 1323 -92 134 1911c35,258 145,465 331,622 186,157 403,228 652,210l603 -42 -221 -3168 1362 -95 315 4503 -1965 137c-284,20 -572,-19 -860,-115 -289,-95 -533,-241 -736,-431 -199,218 -435,397 -706,532 -274,135 -561,214 -864,235 -365,26 -710,-36 -1032,-184 -71,392 -206,755 -401,1097 -196,341 -438,639 -730,898 -290,257 -615,464 -976,625 -361,160 -745,254 -1154,282zm5978 -10127l-1230 86 -88 -1256 1229 -86 88 1257zm1185 1985l-1242 87 -89 -1269 1242 -87 89 1269zm-2070 145l-1242 87 -89 -1269 1242 -87 89 1269zm5028 8149l-417 -1125 223 -97c269,-134 530,-269 784,-404 254,-134 474,-292 658,-475 369,-358 534,-825 493,-1406l-314 -4488 1335 -93 315 4503c11,509 -52,946 -182,1307 -132,364 -319,680 -567,946 -245,268 -544,501 -897,695 -353,194 -749,375 -1186,538l-246 98zm6159 -3707l-655 46c-304,21 -592,-18 -867,-114 -275,-96 -519,-237 -729,-420 -210,-182 -383,-401 -516,-660 -134,-262 -213,-542 -234,-846l-398 -5691 1311 -92 399 5706c16,230 113,423 294,578 180,152 397,221 647,204l654 -46c206,-14 374,31 507,137 133,109 205,264 220,470 15,213 -32,384 -143,512 -115,129 -277,201 -490,216zm6281 -439l-6281 439c-206,14 -372,-38 -501,-159 -129,-122 -202,-284 -216,-490 -14,-204 36,-367 148,-486 112,-121 270,-186 476,-200l1083 -76c-192,-319 -302,-668 -330,-1052 -24,-338 18,-657 123,-954 102,-300 256,-564 461,-798 203,-233 445,-422 731,-568 285,-145 592,-231 923,-254 338,-24 656,18 956,123 298,105 562,258 796,462 235,203 425,443 568,726 145,280 231,590 255,928 28,392 -28,755 -165,1088l882 -62c213,-15 383,28 512,131 127,102 200,257 214,460 14,206 -38,377 -154,516 -113,138 -276,213 -479,228zm-3291 -3261c-703,49 -1031,429 -981,1142 50,713 428,1046 1131,997 703,-49 1031,-432 981,-1144 -50,-713 -428,-1044 -1131,-995zm-902 -3672l1230 -86 88 1256 -1230 86 -88 -1257zm13252 6299l-1896 133c-598,42 -1119,-131 -1567,-520 -373,447 -870,691 -1492,734 -287,20 -565,-17 -835,-109 -270,-94 -516,-235 -733,-426 -399,459 -901,708 -1506,750l-1029 72c-205,14 -374,-36 -508,-147 -133,-111 -206,-274 -221,-487 -15,-213 35,-379 152,-495 108,-123 270,-191 483,-206l1029 -72c257,-18 464,-116 617,-292 152,-179 222,-385 205,-628l-131 -1869 1335 -93 142 2031c11,159 54,282 127,368 75,84 158,146 257,189 96,42 196,67 300,73 101,8 185,9 247,5 242,-17 435,-114 585,-290 148,-178 224,-390 224,-641l-130 -1857 1296 -90 151 1964c16,230 96,411 237,540 145,128 331,186 564,170l669 -47 -213 -3048 1335 -94 306 4383zm6826 2209c-481,34 -940,-25 -1374,-180 -436,-151 -821,-376 -1155,-670 -336,-294 -607,-647 -820,-1057 -214,-411 -336,-853 -369,-1323l-145 -2073 1338 -94 145 2073c21,294 96,564 232,816 133,249 303,464 508,641 204,180 441,316 706,416 268,97 546,134 840,113 304,-21 582,-95 839,-226 254,-129 474,-297 657,-501 182,-205 321,-443 420,-714 97,-273 134,-553 113,-848l-203 -2901 1298 -91 203 2901c34,481 -25,940 -174,1374 -147,436 -369,823 -663,1161 -294,339 -646,612 -1058,820 -411,209 -856,329 -1338,362zm-1115 -6931l1230 -86 88 1255 -1230 86 -88 -1255zm7678 3786l-1938 136 -93 -1335 1938 -135c196,-14 379,-66 548,-154 166,-88 311,-202 432,-338 121,-139 213,-298 274,-477 64,-179 90,-366 76,-562l-333 -4757 1335 -94 333 4758c27,383 -19,750 -137,1098 -119,348 -294,656 -526,923 -232,267 -513,484 -841,649 -328,166 -683,262 -1068,289zm-1248 -1712l-1765 -5450 1275 -397 1752 5451 -1262 396zm6395 1353l-1337 93 -551 -7884 1337 -93 551 7884z"/>
 </g>
</svg>
