<?xml version="1.0" encoding="UTF-8"?>
<!DOCTYPE svg PUBLIC "-//W3C//DTD SVG 1.1//EN" "http://www.w3.org/Graphics/SVG/1.1/DTD/svg11.dtd">
<!-- Creator: CorelDRAW 2018 (64-Bit) -->
<svg xmlns="http://www.w3.org/2000/svg" xml:space="preserve" width="162.56mm" height="268.182mm" version="1.1" style="shape-rendering:geometricPrecision; text-rendering:geometricPrecision; image-rendering:optimizeQuality; fill-rule:evenodd; clip-rule:evenodd"
viewBox="0 0 2407325 3971457"
 xmlns:xlink="http://www.w3.org/1999/xlink">
 <defs>
  <style type="text/css">
   <![CDATA[
    .fil6 {fill:none}
    .fil0 {fill:#FFF7B2}
    .fil1 {fill:#FFF383}
    .fil2 {fill:#FCDCBF}
    .fil3 {fill:#FBCFA4}
    .fil4 {fill:#D6E9D8}
    .fil5 {fill:#BCDBB2}
   ]]>
  </style>
   <clipPath id="id0">
    <path d="M0 0l2407325 0 0 3971457 -2407325 0 0 -3971457z"/>
   </clipPath>
 </defs>
 <g id="Слой_x0020_1">
  <metadata id="CorelCorpID_0Corel-Layer"/>
  <polygon class="fil0" points="0,0 2407325,0 2407325,3971457 0,3971457 "/>
  <g style="clip-path:url(#id0)">
   <g id="_1827882139728">
    <polygon id="1" class="fil1" points="1103358,-694332 1674675,-360459 -430473,3940430 -1001790,3606563 "/>
    <polygon class="fil2" points="1660921,-329720 2232236,4152 127089,4305042 -444228,3971174 "/>
    <polygon class="fil3" points="2394611,-329720 2965928,4152 860779,4305042 289464,3971174 "/>
    <polygon class="fil4" points="3128306,-329720 3699624,4152 1594477,4305042 1023159,3971174 "/>
    <polygon class="fil5" points="3857329,-329720 4428646,4152 2323497,4305042 1752180,3971174 "/>
   </g>
  </g>
  <polygon class="fil6" points="0,0 2407325,0 2407325,3971457 0,3971457 "/>
 </g>
</svg>
