<?xml version="1.0" encoding="UTF-8"?>
<!DOCTYPE svg PUBLIC "-//W3C//DTD SVG 1.1//EN" "http://www.w3.org/Graphics/SVG/1.1/DTD/svg11.dtd">
<!-- Creator: CorelDRAW 2018 (64-Bit) -->
<svg xmlns="http://www.w3.org/2000/svg" xml:space="preserve" width="162.73mm" height="275.213mm" version="1.1" style="shape-rendering:geometricPrecision; text-rendering:geometricPrecision; image-rendering:optimizeQuality; fill-rule:evenodd; clip-rule:evenodd"
viewBox="0 0 2641200 4466867"
 xmlns:xlink="http://www.w3.org/1999/xlink">
 <defs>
  <style type="text/css">
   <![CDATA[
    .str0 {stroke:#FECC00;stroke-width:2748;stroke-miterlimit:22.9256}
    .fil6 {fill:none}
    .fil0 {fill:#FFF7B2}
    .fil1 {fill:#FFF383}
    .fil2 {fill:#FCDCBF}
    .fil3 {fill:#FBCFA4}
    .fil4 {fill:#D6E9D8}
    .fil5 {fill:#BCDBB2}
   ]]>
  </style>
   <clipPath id="id0">
    <path d="M1375 1375l2638450 0 0 4464117 -2638450 0 0 -4464117z"/>
   </clipPath>
 </defs>
 <g id="Слой_x0020_1">
  <metadata id="CorelCorpID_0Corel-Layer"/>
  <polygon class="fil0" points="1375,1375 2639825,1375 2639825,4465492 1375,4465492 "/>
  <g style="clip-path:url(#id0)">
   <g id="_1877419385296">
    <polygon id="1" class="fil1" points="1171064,-911939 1653561,-655135 -124310,2652956 -606807,2396157 "/>
    <polygon class="fil2" points="1641945,-631492 2124442,-374690 346570,2933401 -135926,2676602 "/>
    <polygon class="fil3" points="2261572,-631492 2744069,-374690 966198,2933401 483701,2676602 "/>
    <polygon class="fil4" points="2881203,-631492 3363700,-374690 1585831,2933401 1103334,2676602 "/>
    <polygon class="fil5" points="3496887,-631492 3979384,-374690 2201514,2933401 1719017,2676602 "/>
    <polygon class="fil1" points="-235938,1706843 246559,1963647 -1531312,5271738 -2013809,5014939 "/>
    <polygon class="fil2" points="234943,1987290 717440,2244092 -1060431,5552183 -1542928,5295384 "/>
    <polygon class="fil3" points="854571,1987290 1337067,2244092 -440804,5552183 -923301,5295384 "/>
    <polygon class="fil4" points="1474201,1987290 1956698,2244092 178829,5552183 -303668,5295384 "/>
    <polygon class="fil5" points="2089885,1987290 2572382,2244092 794512,5552183 312016,5295384 "/>
    <polygon class="fil4" points="2819628,1782861 3302125,2039663 1524255,5347754 1041758,5090955 "/>
    <polygon class="fil3" points="3287514,2064518 3770011,2321321 1992140,5629412 1509643,5372613 "/>
   </g>
  </g>
  <polygon class="fil6 str0" points="1375,1375 2639825,1375 2639825,4465492 1375,4465492 "/>
 </g>
</svg>
