<?xml version="1.0" encoding="UTF-8"?>
<!DOCTYPE svg PUBLIC "-//W3C//DTD SVG 1.1//EN" "http://www.w3.org/Graphics/SVG/1.1/DTD/svg11.dtd">
<!-- Creator: CorelDRAW 2018 (64-Bit) -->
<svg xmlns="http://www.w3.org/2000/svg" xml:space="preserve" width="8.4693mm" height="9.4686mm" version="1.1" style="shape-rendering:geometricPrecision; text-rendering:geometricPrecision; image-rendering:optimizeQuality; fill-rule:evenodd; clip-rule:evenodd"
viewBox="0 0 22153 24767"
 xmlns:xlink="http://www.w3.org/1999/xlink">
 <defs>
  <style type="text/css">
   <![CDATA[
    .str0 {stroke:#232020;stroke-width:199;stroke-miterlimit:22.9256}
    .fil1 {fill:none}
    .fil0 {fill:#232020}
   ]]>
  </style>
   <clipPath id="id0">
    <path d="M0 0c2489,1055 3570,5891 3131,8408 -514,2947 -39,5978 3521,7683 0,3132 1703,5090 4875,4936 440,-72 777,65 1107,419 3021,3231 6407,3322 9512,3321l7 -24766 -22153 0z"/>
   </clipPath>
   <clipPath id="id1">
    <path d="M0 0c2489,1055 3570,5891 3131,8408 -514,2947 -39,5978 3521,7683 0,3132 1703,5090 4875,4936 440,-72 777,65 1107,419 3021,3231 6407,3322 9512,3321l7 -24766 -22153 0z"/>
   </clipPath>
 </defs>
 <g id="Слой_x0020_1">
  <metadata id="CorelCorpID_0Corel-Layer"/>
  <path class="fil0" d="M0 0c2489,1055 3570,5891 3131,8408 -514,2947 -39,5978 3521,7683 0,3132 1703,5090 4875,4936 440,-72 777,65 1107,419 3021,3231 6407,3322 9512,3321l7 -24766 -22153 0z"/>
  <g style="clip-path:url(#id0)">
  </g>
  <path id="1" class="fil1" d="M0 0c2489,1055 3570,5891 3131,8408 -514,2947 -39,5978 3521,7683 0,3132 1703,5090 4875,4936 440,-72 777,65 1107,419 3021,3231 6407,3322 9512,3321l7 -24766 -22153 0z"/>
  <g style="clip-path:url(#id1)">
   <path id="2" class="fil1 str0" d="M0 0l22153 24767m0 -24767l-22153 24767"/>
  </g>
 </g>
</svg>
