<?xml version="1.0" encoding="UTF-8"?>
<!DOCTYPE svg PUBLIC "-//W3C//DTD SVG 1.1//EN" "http://www.w3.org/Graphics/SVG/1.1/DTD/svg11.dtd">
<!-- Creator: CorelDRAW 2018 (64-Bit) -->
<svg xmlns="http://www.w3.org/2000/svg" xml:space="preserve" width="15.6307mm" height="8.3073mm" version="1.1" style="shape-rendering:geometricPrecision; text-rendering:geometricPrecision; image-rendering:optimizeQuality; fill-rule:evenodd; clip-rule:evenodd"
viewBox="0 0 49761 26447"
 xmlns:xlink="http://www.w3.org/1999/xlink">
 <defs>
  <style type="text/css">
   <![CDATA[
    .fil0 {fill:#FEFEFE}
    .fil1 {fill:#EBECEC}
    .fil2 {fill:#EBECEC;fill-rule:nonzero}
   ]]>
  </style>
 </defs>
 <g id="Слой_x0020_1">
  <metadata id="CorelCorpID_0Corel-Layer"/>
  <polygon class="fil0" points="2166,3313 637,19240 0,18603 1402,1147 3058,0 3568,1274 4969,764 7645,3313 6626,10830 5097,9174 4587,7008 "/>
  <polygon class="fil0" points="9556,4205 7136,13888 8792,2038 10448,892 11085,2166 12359,1656 25993,15800 19495,11467 18221,13506 15927,11467 13124,12741 11977,7900 "/>
  <polygon class="fil1" points="2166,3629 637,19555 0,18918 2102,2737 7241,6607 6626,11146 5097,9490 4587,7323 "/>
  <polygon class="fil1" points="9556,4432 7136,14115 9174,3157 13251,7490 13793,9592 16055,8254 17997,10084 18603,8382 25993,16027 19495,11694 18221,13733 15927,11694 13124,12968 11977,8127 "/>
  <path class="fil2" d="M5534 20229l2019 -2465 0 -427 -2828 0 0 539 1985 0 -2019 2465 0 426 2926 0 0 -539 -2083 0zm4092 -2107c-363,0 -671,117 -872,333l0 -1323 -613 0 0 3637 613 0 0 -1323c0,-524 294,-789 730,-789 392,0 622,225 622,691l0 1421 613 0 0 -1500c0,-789 -465,-1147 -1093,-1147zm4357 1353c0,-818 -559,-1353 -1323,-1353 -779,0 -1353,559 -1353,1338 0,779 569,1343 1446,1343 451,0 818,-147 1053,-427l-328 -377c-186,191 -417,284 -711,284 -456,0 -775,-245 -848,-627l2054 0c5,-59 10,-132 10,-181zm-1323 -863c402,0 691,260 740,637l-1485 0c59,-382 348,-637 745,-637zm2245 -892c230,0 392,-166 392,-382 0,-201 -167,-353 -392,-353 -225,0 -392,162 -392,368 0,206 166,367 392,367zm-603 4034c583,0 911,-363 911,-936l0 -2666 -613 0 0 2681c0,280 -128,417 -353,417 -137,0 -265,-34 -358,-103l-176 456c142,108 363,152 588,152zm2024 -4034c230,0 392,-166 392,-382 0,-201 -167,-353 -392,-353 -225,0 -392,162 -392,368 0,206 166,367 392,367zm-309 3049l613 0 0 -2617 -613 0 0 2617zm2416 -2646c-421,0 -828,108 -1108,323l240 446c196,-162 500,-260 794,-260 436,0 652,211 652,569l0 39 -676 0c-794,0 -1088,343 -1088,779 0,456 378,784 975,784 392,0 676,-128 823,-353l0 319 578 0 0 -1534c0,-754 -436,-1112 -1191,-1112zm-83 2235c-314,0 -500,-142 -500,-363 0,-191 113,-348 529,-348l632 0 0 304c-103,270 -363,407 -662,407zm3544 -2235c-382,0 -701,127 -902,367l0 -338 -583 0 0 2617 613 0 0 -1323c0,-524 294,-789 730,-789 392,0 622,225 622,691l0 1421 613 0 0 -1500c0,-789 -465,-1147 -1093,-1147zm3911 29l0 348c-216,-260 -539,-377 -907,-377 -750,0 -1323,500 -1323,1259 0,760 573,1270 1323,1270 353,0 662,-113 877,-348l0 138c0,529 -255,794 -833,794 -363,0 -735,-123 -966,-314l-274 461c299,245 784,372 1274,372 917,0 1412,-431 1412,-1382l0 -2220 -583 0zm-814 1980c-465,0 -799,-304 -799,-750 0,-441 333,-740 799,-740 461,0 794,299 794,740 0,446 -333,750 -794,750zm6004 637l745 0 -1529 -1897 1441 -1534 -716 0 -1696 1760 0 -1760 -637 0 0 3431 637 0 0 -877 544 -559 1211 1436zm2058 -2646c-421,0 -828,108 -1108,323l240 446c196,-162 500,-260 794,-260 436,0 652,211 652,569l0 39 -676 0c-794,0 -1088,343 -1088,779 0,456 378,784 975,784 392,0 676,-128 823,-353l0 319 578 0 0 -1534c0,-754 -436,-1112 -1191,-1112zm-83 2235c-314,0 -500,-142 -500,-363 0,-191 113,-348 529,-348l632 0 0 304c-103,270 -363,407 -662,407zm2367 -2637c230,0 392,-166 392,-382 0,-201 -167,-353 -392,-353 -225,0 -392,162 -392,368 0,206 166,367 392,367zm-309 3049l613 0 0 -2617 -613 0 0 2617zm2225 34c735,0 1186,-319 1186,-809 0,-1024 -1617,-555 -1617,-1083 0,-172 176,-294 549,-294 250,0 500,49 750,196l235 -465c-235,-142 -632,-225 -980,-225 -705,0 -1151,323 -1151,818 0,1044 1617,572 1617,1073 0,181 -162,289 -549,289 -329,0 -681,-108 -912,-259l-235 465c235,166 671,294 1108,294zm2024 -3083c230,0 392,-166 392,-382 0,-201 -167,-353 -392,-353 -225,0 -392,162 -392,368 0,206 166,367 392,367zm-309 3049l613 0 0 -2617 -613 0 0 2617zm-32416 5678c1064,0 1848,-745 1848,-1764 0,-1019 -784,-1764 -1848,-1764 -1063,0 -1848,750 -1848,1764 0,1015 784,1764 1848,1764zm0 -559c-691,0 -1206,-505 -1206,-1206 0,-701 515,-1206 1206,-1206 691,0 1206,505 1206,1206 0,701 -514,1206 -1206,1206zm4387 -2107l0 1323c0,524 -289,789 -715,789 -387,0 -613,-225 -613,-701l0 -1412 -613 0 0 1495c0,789 456,1157 1127,1157 338,0 647,-128 843,-368l0 333 583 0 0 -2617 -613 0zm2818 2039c-93,74 -216,108 -343,108 -235,0 -363,-137 -363,-392l0 -1245 701 0 0 -490 -701 0 0 -598 -613 0 0 598 -431 0 0 490 431 0 0 1260c0,578 329,882 902,882 221,0 441,-59 588,-176l-172 -436zm2539 -3058l0 1343c-206,-240 -505,-353 -843,-353 -760,0 -1323,524 -1323,1338 0,813 563,1343 1323,1343 358,0 662,-123 868,-372l0 338 588 0 0 -3637 -613 0zm-769 3146c-441,0 -779,-318 -779,-818 0,-500 338,-818 779,-818 441,0 779,318 779,818 0,500 -338,818 -779,818zm3362 525c814,0 1397,-559 1397,-1343 0,-784 -583,-1338 -1397,-1338 -804,0 -1392,554 -1392,1338 0,784 588,1343 1392,1343zm0 -525c-441,0 -774,-318 -774,-818 0,-500 333,-818 774,-818 446,0 779,318 779,818 0,500 -333,818 -779,818zm3161 525c814,0 1397,-559 1397,-1343 0,-784 -583,-1338 -1397,-1338 -804,0 -1392,554 -1392,1338 0,784 588,1343 1392,1343zm0 -525c-441,0 -774,-318 -774,-818 0,-500 333,-818 774,-818 446,0 779,318 779,818 0,500 -333,818 -779,818zm2568 -1745l0 -382 -583 0 0 2617 613 0 0 -1269c0,-534 294,-809 760,-809 44,0 88,5 142,15l0 -583c-436,0 -754,137 -931,412zm4298 -1196l-1412 0 0 3431 637 0 0 -990 775 0c902,0 1461,-465 1461,-1220 0,-760 -559,-1221 -1461,-1221zm-29 1902l-745 0 0 -1363 745 0c559,0 848,250 848,681 0,431 -289,681 -848,681zm2627 -706l0 -382 -583 0 0 2617 613 0 0 -1269c0,-534 294,-809 760,-809 44,0 88,5 142,15l0 -583c-436,0 -754,137 -931,412zm2603 2269c814,0 1397,-559 1397,-1343 0,-784 -583,-1338 -1397,-1338 -804,0 -1392,554 -1392,1338 0,784 588,1343 1392,1343zm0 -525c-441,0 -774,-318 -774,-818 0,-500 333,-818 774,-818 446,0 779,318 779,818 0,500 -333,818 -779,818zm3936 -3146l0 1343c-206,-240 -505,-353 -843,-353 -760,0 -1323,524 -1323,1338 0,813 563,1343 1323,1343 358,0 662,-123 868,-372l0 338 588 0 0 -3637 -613 0zm-769 3146c-441,0 -779,-318 -779,-818 0,-500 338,-818 779,-818 441,0 779,318 779,818 0,500 -338,818 -779,818zm4107 -2127l0 1323c0,524 -289,789 -715,789 -387,0 -613,-225 -613,-701l0 -1412 -613 0 0 1495c0,789 456,1157 1127,1157 338,0 647,-128 843,-368l0 333 583 0 0 -2617 -613 0zm2617 2652c510,0 917,-221 1117,-613l-471 -274c-157,250 -392,363 -652,363 -451,0 -794,-308 -794,-818 0,-505 343,-818 794,-818 260,0 495,113 652,363l471 -274c-201,-397 -608,-608 -1117,-608 -828,0 -1416,554 -1416,1338 0,784 588,1343 1416,1343zm3083 -613c-93,74 -216,108 -343,108 -235,0 -363,-137 -363,-392l0 -1245 701 0 0 -490 -701 0 0 -598 -613 0 0 598 -431 0 0 490 431 0 0 1260c0,578 329,882 902,882 221,0 441,-59 588,-176l-172 -436zm1485 613c735,0 1186,-319 1186,-809 0,-1024 -1617,-555 -1617,-1083 0,-172 176,-294 549,-294 250,0 500,49 750,196l235 -465c-235,-142 -632,-225 -980,-225 -705,0 -1151,323 -1151,818 0,1044 1617,572 1617,1073 0,181 -162,289 -549,289 -329,0 -681,-108 -912,-259l-235 465c235,166 671,294 1108,294z"/>
 </g>
</svg>
