<?xml version="1.0" encoding="UTF-8"?>
<!DOCTYPE svg PUBLIC "-//W3C//DTD SVG 1.1//EN" "http://www.w3.org/Graphics/SVG/1.1/DTD/svg11.dtd">
<!-- Creator: CorelDRAW 2018 (64-Bit) -->
<svg xmlns="http://www.w3.org/2000/svg" xml:space="preserve" width="8.6097mm" height="6.5273mm" version="1.1" style="shape-rendering:geometricPrecision; text-rendering:geometricPrecision; image-rendering:optimizeQuality; fill-rule:evenodd; clip-rule:evenodd"
viewBox="0 0 12478 9460"
 xmlns:xlink="http://www.w3.org/1999/xlink">
 <defs>
  <style type="text/css">
   <![CDATA[
    .fil1 {fill:#2F6439}
    .fil0 {fill:#84B145}
   ]]>
  </style>
 </defs>
 <g id="Слой_x0020_1">
  <metadata id="CorelCorpID_0Corel-Layer"/>
  <path class="fil0" d="M7186 0l561 0c2602,0 4730,2128 4730,4730l0 0c0,2008 -1268,3733 -3042,4417 424,-506 680,-1160 680,-1873 0,-802 -323,-1529 -845,-2055 -522,-526 -1243,-851 -2039,-851 -599,0 -1141,-245 -1533,-640 -392,-395 -635,-941 -635,-1544 0,-603 243,-1149 635,-1544 382,-385 907,-627 1488,-639z"/>
  <path class="fil1" d="M0 0l5328 0c-47,41 -92,84 -136,129 -522,526 -845,1252 -845,2055 0,802 323,1529 845,2055 522,526 1243,851 2039,851 599,0 1141,245 1533,640 392,395 635,941 635,1544 0,603 -243,1149 -635,1544 -392,395 -934,640 -1533,640 -599,0 -1141,-245 -1533,-640 -392,-395 -635,-941 -635,-1544l-717 0c0,802 323,1529 845,2055 45,46 92,90 140,132l-5332 0 0 -9460z"/>
 </g>
</svg>
