<?xml version="1.0" encoding="UTF-8"?>
<!DOCTYPE svg PUBLIC "-//W3C//DTD SVG 1.1//EN" "http://www.w3.org/Graphics/SVG/1.1/DTD/svg11.dtd">
<!-- Creator: CorelDRAW 2018 (64-Bit) -->
<svg xmlns="http://www.w3.org/2000/svg" xml:space="preserve" width="81.0812mm" height="5.2734mm" version="1.1" style="shape-rendering:geometricPrecision; text-rendering:geometricPrecision; image-rendering:optimizeQuality; fill-rule:evenodd; clip-rule:evenodd"
viewBox="0 0 1263068 82148"
 xmlns:xlink="http://www.w3.org/1999/xlink">
 <defs>
  <style type="text/css">
   <![CDATA[
    .str0 {stroke:#FEFEFE;stroke-width:3957;stroke-miterlimit:22.9256}
    .fil0 {fill:#FEFEFE}
    .fil2 {fill:#E5097F}
    .fil3 {fill:#FEFEFE;fill-rule:nonzero}
    .fil1 {fill:#E5097F;fill-rule:nonzero}
   ]]>
  </style>
 </defs>
 <g id="Слой_x0020_1">
  <metadata id="CorelCorpID_0Corel-Layer"/>
  <polygon class="fil0" points="0,1978 815683,1978 739586,80170 0,80170 "/>
  <path class="fil1" d="M55842 63966c-2154,0 -4187,-408 -6078,-1232 -1900,-813 -3550,-1933 -4946,-3352 -1407,-1418 -2506,-3077 -3331,-4979 -824,-1900 -1231,-3912 -1231,-6022l0 -9298 6001 0 0 9298c0,1319 254,2550 780,3715 517,1153 1209,2165 2067,3022 857,868 1868,1550 3022,2077 1165,517 2396,770 3715,770 1363,0 2626,-241 3813,-748 1176,-494 2209,-1175 3089,-2033 879,-857 1572,-1879 2098,-3055 517,-1187 770,-2429 770,-3748l0 -13014 5826 0 0 13014c0,2154 -408,4187 -1210,6078 -791,1900 -1900,3561 -3318,4979 -1418,1418 -3078,2527 -4979,3331 -1902,802 -3924,1198 -6089,1198zm-2813 -31291l5516 0 0 5627 -5516 0 0 -5627zm35974 19299l-13068 0 0 -5990 13068 0c1044,0 1933,-363 2692,-1089 770,-713 1143,-1572 1143,-2572 0,-724 -154,-1374 -450,-1946 -298,-581 -704,-1033 -1232,-1351l-10671 -7376 3120 -4857c122,76 463,307 1023,692 559,374 1209,813 1944,1319 737,495 1550,1033 2430,1615 879,583 1703,1143 2483,1682 780,537 1463,1011 2044,1407 583,396 967,681 1165,835 1287,879 2276,2011 2968,3396 704,1374 1056,2902 1056,4583 0,1319 -265,2561 -780,3715 -528,1154 -1232,2176 -2133,3055 -902,880 -1924,1583 -3089,2100 -1153,517 -2396,780 -3714,780zm24882 -15586c-637,0 -1252,132 -1824,385 -583,265 -1089,615 -1528,1056 -439,439 -791,944 -1055,1527 -254,583 -385,1209 -385,1891 0,1318 461,2429 1407,3352 935,922 2066,1385 3385,1385l4859 0 0 -4737c0,-1319 -484,-2463 -1441,-3418 -956,-967 -2098,-1441 -3418,-1441zm4616 16905c45,-198 78,-385 122,-539 0,-122 11,-263 33,-417 22,-165 22,-287 22,-363l-4792 0c-1472,0 -2868,-274 -4166,-835 -1298,-561 -2429,-1330 -3385,-2309 -956,-978 -1726,-2122 -2276,-3418 -559,-1298 -846,-2693 -846,-4166 0,-1439 287,-2824 846,-4144 550,-1319 1319,-2474 2276,-3474 956,-1000 2087,-1791 3385,-2374 1298,-572 2693,-868 4166,-868 1517,0 2924,285 4231,846 1298,561 2430,1341 3385,2330 956,1000 1715,2154 2276,3450 561,1298 835,2704 835,4232l0 4737 2880 0c967,0 1703,252 2220,770 561,527 835,1242 835,2165 0,955 -263,1703 -802,2242 -539,539 -1285,813 -2253,813l-2880 0c-231,4155 -1813,7496 -4726,10013 -604,516 -1274,978 -2011,1372 -737,408 -1505,759 -2274,1089 -780,319 -1572,594 -2374,835 -802,241 -1539,463 -2221,660 -198,76 -407,142 -626,174 -220,45 -428,100 -626,187l-1143 352 -1615 -5155 1133 -417c209,-76 428,-154 659,-241 241,-78 484,-154 726,-241 1122,-396 2263,-815 3450,-1254 1176,-439 2165,-1000 2968,-1681 913,-715 1539,-1495 1880,-2341 341,-835 572,-1517 692,-2033zm12892 -1319l-3957 0c-956,0 -1715,-274 -2274,-835 -561,-528 -847,-1265 -847,-2220 0,-924 287,-1639 847,-2165 559,-517 1318,-770 2274,-770l3957 0c517,0 1011,-111 1472,-330 452,-220 869,-528 1221,-900 361,-385 648,-815 846,-1298 198,-472 296,-978 296,-1495l0 -9529 6002 0 0 9705c0,1319 -265,2572 -780,3748 -528,1187 -1232,2220 -2133,3122 -902,902 -1946,1615 -3144,2154 -1198,539 -2461,813 -3781,813zm-1263 6892l5516 0 0 5638 -5516 0 0 -5638zm50548 -6892l-1210 0c-1318,0 -2594,-252 -3835,-748 -1231,-505 -2320,-1252 -3231,-2253 -1000,1000 -2154,1748 -3452,2253 -1296,495 -2648,748 -4044,748 -1485,0 -2869,-274 -4166,-835 -1298,-561 -2429,-1319 -3385,-2287 -967,-956 -1726,-2087 -2287,-3385 -550,-1296 -835,-2681 -835,-4166 0,-1517 274,-2924 813,-4220 539,-1309 1287,-2429 2242,-3396 967,-956 2089,-1715 3387,-2276 1307,-561 2714,-835 4231,-835l55 0 4803 176 0 -2572 5870 0 0 13958c0,1122 374,2045 1111,2759 746,726 1648,1089 2725,1089l1210 0c911,0 1648,252 2209,770 561,527 846,1242 846,2165 0,955 -274,1703 -813,2242 -539,539 -1287,813 -2242,813zm-15773 -15530c-637,0 -1252,131 -1824,396 -583,252 -1089,615 -1528,1076 -439,461 -791,978 -1055,1561 -265,572 -385,1187 -385,1824 0,637 120,1263 385,1857 263,606 615,1122 1055,1561 439,441 946,791 1528,1045 572,263 1187,396 1824,396 1319,0 2439,-474 3352,-1407 924,-946 1385,-2089 1385,-3452l120 -4857 -4857 0zm19729 15530l-3957 0c-956,0 -1715,-274 -2274,-835 -561,-528 -847,-1265 -847,-2220 0,-924 287,-1639 847,-2165 559,-517 1318,-770 2274,-770l3957 0c517,0 1011,-111 1472,-330 452,-220 869,-528 1221,-900 361,-385 648,-815 846,-1298 198,-472 296,-978 296,-1495l0 -9529 6002 0 0 9705c0,1319 -265,2572 -780,3748 -528,1187 -1232,2220 -2133,3122 -902,902 -1946,1615 -3144,2154 -1198,539 -2461,813 -3781,813zm4078 -29017l5516 0 0 5639 -5516 0 0 -5639zm23323 29017l-2935 0c-1363,0 -2639,-263 -3837,-780 -1198,-517 -2242,-1220 -3120,-2100 -880,-879 -1583,-1911 -2100,-3109 -517,-1209 -780,-2485 -780,-3848l0 -25532 5881 0 0 25599c0,1033 374,1922 1133,2670 757,737 1703,1111 2824,1111l2935 0c922,0 1659,252 2220,770 561,527 835,1242 835,2165 0,955 -263,1703 -802,2242 -550,539 -1298,813 -2253,813zm14805 0l-14805 0c-924,0 -1670,-274 -2253,-813 -572,-539 -869,-1263 -869,-2187 0,-880 298,-1594 869,-2154 583,-561 1329,-835 2253,-835l14749 0c1034,0 2024,-265 2968,-780 935,-528 1770,-1242 2485,-2165l3781 -4792 -7133 -3363c-759,-396 -1637,-594 -2637,-594 -2396,0 -4583,1274 -6540,3835l-594 835 -4737 -2516 659 -1078c1231,-2154 2770,-3857 4583,-5100 1813,-1231 4013,-1857 6561,-1857 1924,0 3704,385 5342,1143 913,439 1902,911 2968,1407 1056,505 2045,967 2968,1407 1078,528 2154,1044 3232,1561 681,363 1538,539 2583,539l4198 0 0 5759c-682,76 -1407,153 -2165,209 -759,55 -1472,87 -2154,87 -604,0 -1122,-55 -1561,-176l-4550 6409c-2439,3483 -5835,5220 -10199,5220zm-3056 -32193l5518 0 0 5639 -5518 0 0 -5639zm33997 46822l-1506 -5155 1022 -363c1242,-517 2450,-1033 3627,-1561 1176,-516 2210,-1154 3089,-1913 1759,-1483 2637,-3516 2637,-6121l0 -20136 5991 0 0 20201c-111,2274 -528,4209 -1221,5781 -703,1583 -1637,2935 -2824,4046 -1176,1120 -2583,2066 -4220,2824 -1637,759 -3463,1439 -5463,2033l-1131 363zm32248 -14629l-13068 0 0 -5990 13068 0c1044,0 1933,-363 2692,-1089 770,-713 1143,-1572 1143,-2572 0,-724 -154,-1374 -450,-1946 -298,-581 -704,-1033 -1232,-1351l-10671 -7376 3120 -4857c122,76 463,307 1023,692 559,374 1209,813 1944,1319 737,495 1550,1033 2430,1615 879,583 1703,1143 2483,1682 780,537 1463,1011 2044,1407 583,396 967,681 1165,835 1287,879 2276,2011 2968,3396 704,1374 1056,2902 1056,4583 0,1319 -265,2561 -780,3715 -528,1154 -1232,2176 -2133,3055 -902,880 -1924,1583 -3089,2100 -1153,517 -2396,780 -3714,780zm39633 10794c-2198,0 -4276,-419 -6209,-1265 -1935,-835 -3639,-1989 -5100,-3440 -1450,-1463 -2605,-3165 -3441,-5100 -846,-1935 -1263,-4011 -1263,-6209l0 -9464 6001 0 0 9464c0,1407 254,2714 780,3935 517,1220 1232,2285 2154,3209 924,911 1989,1648 3209,2187 1221,537 2506,802 3870,802 1352,0 2637,-265 3835,-802 1198,-539 2243,-1287 3144,-2220 902,-946 1615,-2024 2154,-3243 539,-1220 813,-2505 813,-3868l0 -13366 6057 0 0 8518c0,1154 374,2122 1143,2902 757,780 1714,1176 2868,1176 1165,0 2144,-407 2946,-1209 791,-791 1198,-1759 1198,-2869l0 -8518 5935 0 0 8572c76,1165 505,2122 1285,2880 780,759 1726,1143 2848,1143l2703 0 0 -14212 6111 0 0 20201 -8814 0c-1276,0 -2550,-263 -3803,-780 -1265,-517 -2309,-1242 -3155,-2154 -956,913 -2067,1637 -3320,2154 -1263,517 -2572,780 -3935,780 -1637,0 -3155,-385 -4550,-1143 -439,1726 -1154,3309 -2133,4770 -978,1463 -2154,2715 -3539,3781 -1374,1056 -2890,1880 -4550,2485 -1659,604 -3407,902 -5242,902zm60604 -10794l-2935 0c-1363,0 -2639,-263 -3837,-780 -1198,-517 -2242,-1220 -3120,-2100 -880,-879 -1583,-1911 -2100,-3109 -517,-1209 -780,-2485 -780,-3848l0 -25532 5881 0 0 25599c0,1033 374,1922 1133,2670 757,737 1703,1111 2824,1111l2935 0c922,0 1659,252 2220,770 561,527 835,1242 835,2165 0,955 -263,1703 -802,2242 -550,539 -1298,813 -2253,813zm45866 0l-1561 0c-1319,0 -2594,-252 -3803,-748 -1221,-505 -2298,-1209 -3211,-2133 -967,924 -2055,1628 -3274,2133 -1209,495 -2506,748 -3859,748 -1285,0 -2550,-252 -3813,-748 -1252,-505 -2341,-1209 -3264,-2133 -2002,1924 -4398,2880 -7200,2880 -1550,0 -3033,-363 -4429,-1076 -924,-407 -1781,-1000 -2583,-1804 -2000,1924 -4374,2880 -7133,2880l-1791 0c-924,0 -1661,-274 -2220,-835 -561,-561 -847,-1309 -847,-2220 0,-924 287,-1639 847,-2165 559,-517 1296,-770 2220,-770l1791 0c1165,0 2133,-396 2911,-1176 780,-780 1165,-1748 1165,-2902l0 -8518 6111 0 0 8518c0,1154 385,2122 1143,2902 759,780 1704,1176 2813,1176 1209,0 2198,-396 3000,-1176 802,-780 1198,-1748 1198,-2902l0 -8518 5935 0 0 8518c0,1111 407,2078 1198,2869 802,802 1781,1209 2946,1209 1154,0 2133,-407 2935,-1209 802,-791 1198,-1759 1198,-2869l0 -9837 5990 0 0 9959c0,1076 407,2000 1210,2781 791,780 1735,1176 2813,1176l1561 0c1000,0 1757,252 2274,770 517,483 780,1209 780,2165 0,955 -274,1703 -813,2242 -539,539 -1287,813 -2242,813zm14805 0l-14805 0c-924,0 -1670,-274 -2253,-813 -572,-539 -869,-1263 -869,-2187 0,-880 298,-1594 869,-2154 583,-561 1329,-835 2253,-835l14749 0c1034,0 2024,-265 2968,-780 935,-528 1770,-1242 2485,-2165l3781 -4792 -7133 -3363c-759,-396 -1637,-594 -2637,-594 -2396,0 -4583,1274 -6540,3835l-594 835 -4737 -2516 659 -1078c1231,-2154 2770,-3857 4583,-5100 1813,-1231 4013,-1857 6561,-1857 1924,0 3704,385 5342,1143 913,439 1902,911 2968,1407 1056,505 2045,967 2968,1407 1078,528 2154,1044 3232,1561 681,363 1538,539 2583,539l4198 0 0 5759c-682,76 -1407,153 -2165,209 -759,55 -1472,87 -2154,87 -604,0 -1122,-55 -1561,-176l-4550 6409c-2439,3483 -5835,5220 -10199,5220zm30224 0l-6001 0 0 -35369 6001 0 0 35369zm22896 -5935c561,363 1000,824 1319,1407 318,583 483,1209 483,1891 0,1242 -450,2263 -1352,3088 -900,813 -1989,1231 -3264,1231 -1287,0 -2385,-417 -3298,-1231 -924,-824 -1385,-1846 -1385,-3088 0,-639 154,-1298 450,-1978 298,-682 770,-1639 1408,-2880 285,-561 637,-1274 1055,-2154 417,-879 846,-1759 1285,-2637l5759 0 -2461 6353zm57010 5935l-1263 0c-1474,0 -2859,-330 -4133,-989 -1276,-659 -2374,-1572 -3298,-2726 -1154,1198 -2494,2122 -4011,2759 -1528,637 -3122,956 -4803,956l-18586 0c-1715,0 -3331,-319 -4859,-956 -1516,-637 -2835,-1516 -3957,-2637 -1109,-1122 -1989,-2439 -2637,-3957 -637,-1517 -956,-3144 -956,-4859l0 -7253 5881 0 0 7188c0,879 165,1726 505,2528 341,791 802,1483 1385,2066 572,572 1265,1033 2067,1374 791,341 1659,517 2572,517l18586 -67c922,0 1781,-153 2583,-483 791,-319 1483,-770 2066,-1341 583,-583 1033,-1263 1374,-2044 341,-780 517,-1605 517,-2485l0 -7253 5868 0 0 10133c0,911 385,1737 1143,2450 759,726 1659,1089 2693,1089l1263 0c956,0 1693,252 2220,770 561,483 835,1209 835,2165 0,955 -263,1703 -813,2242 -537,539 -1285,813 -2242,813zm-18640 -19662l-5583 0 0 -5694 5583 0 0 5694zm-9298 0l-5572 0 0 -5694 5572 0 0 5694zm57252 19662l-29313 0c-956,0 -1704,-274 -2253,-813 -539,-539 -802,-1287 -802,-2242 0,-924 274,-1639 835,-2165 561,-517 1296,-770 2220,-770l5276 0c-880,-1528 -1319,-3385 -1319,-5583 0,-1561 296,-3024 902,-4409 594,-1374 1418,-2572 2450,-3594 1044,-1022 2253,-1813 3627,-2396 1385,-583 2859,-868 4407,-868l10794 0 0 11749 -5694 0 -241 -5881 -4672 0c-1637,0 -3000,528 -4077,1561 -1078,1044 -1615,2320 -1615,3837 0,1605 516,2933 1548,3989 1045,1055 2363,1594 3957,1594l13970 0c879,0 1626,252 2220,770 561,559 835,1285 835,2165 0,955 -263,1703 -802,2242 -537,539 -1285,813 -2253,813zm20388 0c-1648,0 -3298,-176 -4979,-539 -1682,-363 -3056,-1076 -4144,-2154 -1913,1791 -4155,2693 -6705,2693l-4616 0c-967,0 -1715,-274 -2254,-813 -537,-539 -813,-1287 -813,-2242 0,-956 265,-1682 780,-2165 528,-517 1287,-770 2287,-770l4616 0c1033,0 1935,-396 2693,-1176 757,-780 1142,-1726 1142,-2848l0 -9473 5991 0 0 9649c0,1045 374,1946 1109,2704 737,759 1650,1143 2726,1143l2935 0c967,0 1703,252 2220,770 561,483 846,1209 846,2165 0,1274 -374,2109 -1109,2483 -748,385 -1650,572 -2726,572zm-17695 6957l5583 0 0 5694 -5583 0 0 -5694zm9298 0l5572 0 0 5694 -5572 0 0 -5694zm27389 -6957c-1681,0 -3165,-165 -4463,-506 -1296,-340 -2505,-1076 -3627,-2187 -1924,1791 -4155,2693 -6716,2693l-3418 0c-956,0 -1704,-274 -2253,-813 -539,-539 -802,-1287 -802,-2242 0,-956 252,-1682 780,-2165 516,-517 1274,-770 2274,-770l3418 0c1033,0 1935,-396 2693,-1176 759,-780 1143,-1726 1143,-2848l0 -9473 5990 0 0 9649c0,1045 374,1946 1109,2704 748,759 1650,1143 2737,1143l1133 0c956,0 1704,252 2220,770 561,483 835,1209 835,2165 0,955 -274,1703 -835,2242 -561,539 -1296,813 -2220,813zm-11331 6892l5518 0 0 5638 -5518 0 0 -5638zm31896 -6892l-20564 0c-956,0 -1704,-274 -2253,-813 -539,-539 -802,-1287 -802,-2242 0,-924 274,-1639 835,-2165 561,-517 1296,-770 2220,-770l4320 0 -3539 -4804 4320 -3418c879,-911 1318,-1911 1318,-2989l0 -18168 5815 0 0 15290 120 -67c1078,-911 2298,-1605 3650,-2066 1363,-461 2759,-693 4198,-693 2044,0 3803,341 5276,1022 1483,682 2703,1561 3659,2639 956,1076 1671,2296 2133,3659 450,1352 681,2737 681,4133 0,1561 -296,3033 -900,4407 -594,1385 -1418,2595 -2452,3628 -1044,1044 -2253,1868 -3627,2483 -1385,626 -2846,935 -4407,935zm-16125 -5990l16125 0c759,0 1472,-154 2133,-452 659,-307 1231,-713 1735,-1231 495,-516 902,-1109 1198,-1770 298,-659 452,-1374 452,-2131 0,-1561 -550,-2848 -1650,-3870 -1098,-1011 -2527,-1528 -4285,-1528 -1517,0 -2859,463 -4024,1385l-11683 9596zm37821 20619l-1506 -5155 1022 -363c1242,-517 2450,-1033 3627,-1561 1176,-516 2210,-1154 3089,-1913 1759,-1483 2637,-3516 2637,-6121l0 -20136 5991 0 0 20201c-111,2274 -528,4209 -1221,5781 -703,1583 -1637,2935 -2824,4046 -1176,1120 -2583,2066 -4220,2824 -1637,759 -3463,1439 -5463,2033l-1131 363zm32248 -14629l-13068 0 0 -5990 13068 0c1044,0 1933,-363 2692,-1089 770,-713 1143,-1572 1143,-2572 0,-724 -154,-1374 -450,-1946 -298,-581 -704,-1033 -1232,-1351l-10671 -7376 3120 -4857c122,76 463,307 1023,692 559,374 1209,813 1944,1319 737,495 1550,1033 2430,1615 879,583 1703,1143 2483,1682 780,537 1463,1011 2044,1407 583,396 967,681 1165,835 1287,879 2276,2011 2968,3396 704,1374 1056,2902 1056,4583 0,1319 -265,2561 -780,3715 -528,1154 -1232,2176 -2133,3055 -902,880 -1924,1583 -3089,2100 -1153,517 -2396,780 -3714,780z"/>
  <polygon class="fil2 str0" points="835688,1978 1258382,1978 1182286,80170 764262,80170 "/>
  <path class="fil3" d="M853993 53050c-1428,0 -2802,-274 -4099,-813 -1298,-539 -2441,-1285 -3419,-2242 -978,-967 -1759,-2089 -2341,-3363 -583,-1276 -868,-2639 -868,-4078 -44,-1439 220,-2835 780,-4198 561,-1352 1363,-2550 2396,-3594l3363 -3418 -1748 -1737 4198 -4078 9298 9298c1034,1033 1815,2198 2330,3507 528,1296 802,2648 846,4044 0,1474 -285,2869 -846,4166 -550,1298 -1318,2430 -2307,3385 -978,956 -2111,1715 -3408,2276 -1307,561 -2692,846 -4176,846zm-3528 -14090c-879,956 -1307,2089 -1263,3385 44,1298 517,2407 1439,3331 956,956 2122,1439 3474,1439 1318,0 2418,-439 3296,-1318 484,-484 837,-1013 1056,-1595 220,-581 329,-1187 329,-1824 0,-637 -109,-1252 -329,-1835 -220,-572 -572,-1100 -1056,-1583l-3418 -3418 -1011 956c-198,198 -417,417 -637,637 -220,220 -439,439 -682,681 -198,198 -407,407 -604,604 -198,198 -396,374 -594,539zm45503 13068l-1265 0c-1759,0 -3144,-374 -4166,-1111 -1022,-735 -1946,-1703 -2792,-2901l-352 -484c-922,1474 -2109,2594 -3572,3352 -1461,759 -3044,1143 -4759,1143l-11331 0 0 -5990 11331 0c1034,0 1935,-374 2693,-1111 759,-748 1143,-1594 1143,-2550 0,-363 -45,-735 -122,-1109 -87,-385 -220,-726 -417,-1056l-6957 -10242 4792 -3419 12166 17740c441,726 770,1198 989,1418 221,220 495,330 815,330l1802 0c1000,0 1759,252 2274,770 517,483 780,1209 780,2165 0,955 -274,1703 -813,2242 -539,539 -1285,813 -2242,813zm3957 0l-3957 0c-956,0 -1715,-274 -2274,-835 -561,-528 -847,-1265 -847,-2220 0,-924 287,-1639 847,-2165 559,-517 1318,-770 2274,-770l3957 0c517,0 1011,-111 1472,-330 452,-220 869,-528 1221,-900 361,-385 648,-815 846,-1298 198,-472 296,-978 296,-1495l0 -9529 6002 0 0 9705c0,1319 -265,2572 -780,3748 -528,1187 -1232,2220 -2133,3122 -902,902 -1946,1615 -3144,2154 -1198,539 -2461,813 -3781,813zm-1263 6892l5516 0 0 5638 -5516 0 0 -5638zm41315 3902c-2198,0 -4276,-419 -6209,-1265 -1935,-835 -3639,-1989 -5100,-3440 -1450,-1463 -2605,-3165 -3441,-5100 -846,-1935 -1263,-4011 -1263,-6209l0 -9464 6001 0 0 9464c0,1407 254,2714 780,3935 517,1220 1232,2285 2154,3209 924,911 1989,1648 3209,2187 1221,537 2506,802 3870,802 1352,0 2637,-265 3835,-802 1198,-539 2243,-1287 3144,-2220 902,-946 1615,-2024 2154,-3243 539,-1220 813,-2505 813,-3868l0 -13366 6057 0 0 8518c0,1154 374,2122 1143,2902 757,780 1714,1176 2868,1176 1165,0 2144,-407 2946,-1209 791,-791 1198,-1759 1198,-2869l0 -8518 5935 0 0 8572c76,1165 505,2122 1285,2880 780,759 1726,1143 2848,1143l2703 0 0 -14212 6111 0 0 20201 -8814 0c-1276,0 -2550,-263 -3803,-780 -1265,-517 -2309,-1242 -3155,-2154 -956,913 -2067,1637 -3320,2154 -1263,517 -2572,780 -3935,780 -1637,0 -3155,-385 -4550,-1143 -439,1726 -1154,3309 -2133,4770 -978,1463 -2154,2715 -3539,3781 -1374,1056 -2890,1880 -4550,2485 -1659,604 -3407,902 -5242,902zm29852 -43348l-5518 0 0 -5639 5518 0 0 5639zm4670 9231l-5572 0 0 -5694 5572 0 0 5694zm-9287 0l-5572 0 0 -5694 5572 0 0 5694zm19905 37952l-1506 -5155 1022 -363c1242,-517 2450,-1033 3627,-1561 1176,-516 2210,-1154 3089,-1913 1759,-1483 2637,-3516 2637,-6121l0 -20136 5991 0 0 20201c-111,2274 -528,4209 -1221,5781 -703,1583 -1637,2935 -2824,4046 -1176,1120 -2583,2066 -4220,2824 -1637,759 -3463,1439 -5463,2033l-1131 363zm33930 -14629l-2935 0c-1363,0 -2639,-263 -3837,-780 -1198,-517 -2242,-1220 -3120,-2100 -880,-879 -1583,-1911 -2100,-3109 -517,-1209 -780,-2485 -780,-3848l0 -25532 5881 0 0 25599c0,1033 374,1922 1133,2670 757,737 1703,1111 2824,1111l2935 0c922,0 1659,252 2220,770 561,527 835,1242 835,2165 0,955 -263,1703 -802,2242 -550,539 -1298,813 -2253,813zm28180 0l-28180 0c-924,0 -1648,-285 -2187,-868 -539,-583 -813,-1330 -813,-2254 0,-911 274,-1626 813,-2120 539,-506 1263,-748 2187,-748l4859 0c-759,-1485 -1143,-3078 -1143,-4804 0,-1516 285,-2922 846,-4220 550,-1307 1319,-2439 2309,-3418 978,-978 2120,-1748 3440,-2309 1319,-561 2715,-846 4198,-846 1517,0 2924,285 4232,846 1296,561 2429,1330 3407,2309 989,978 1759,2111 2307,3418 561,1298 847,2704 847,4220 0,1759 -363,3363 -1078,4804l3957 0c956,0 1704,241 2243,748 537,494 813,1209 813,2120 0,924 -287,1671 -847,2254 -548,583 -1296,868 -2209,868zm-13673 -15586c-3155,0 -4737,1594 -4737,4792 0,3200 1583,4804 4737,4804 3155,0 4737,-1605 4737,-4804 0,-3198 -1583,-4792 -4737,-4792zm-2879 -16673l5518 0 0 5639 -5518 0 0 -5639zm57196 32259l-8507 0c-2681,0 -4957,-935 -6836,-2813 -1802,1879 -4100,2813 -6892,2813 -1287,0 -2517,-252 -3694,-748 -1176,-505 -2231,-1209 -3144,-2133 -1922,1924 -4242,2880 -6957,2880l-4616 0c-924,0 -1659,-274 -2220,-813 -561,-539 -835,-1287 -835,-2242 0,-956 274,-1682 835,-2165 516,-517 1263,-770 2220,-770l4616 0c1154,0 2111,-374 2848,-1111 735,-748 1109,-1648 1109,-2737l0 -8386 5991 0 0 9111c0,715 153,1274 450,1681 307,396 659,704 1087,924 417,220 858,363 1319,417 450,67 824,100 1100,100 1087,0 1978,-374 2703,-1111 715,-748 1122,-1670 1198,-2792l0 -8331 5815 0 65 8814c0,1034 296,1869 889,2485 604,615 1419,935 2463,935l3000 0 0 -13673 5990 0 0 19662zm29786 11992c-2154,0 -4187,-408 -6078,-1232 -1900,-813 -3550,-1933 -4946,-3352 -1407,-1418 -2506,-3077 -3331,-4979 -824,-1900 -1231,-3912 -1231,-6022l0 -9298 6001 0 0 9298c0,1319 254,2550 780,3715 517,1153 1209,2165 2067,3022 857,868 1868,1550 3022,2077 1165,517 2396,770 3715,770 1363,0 2626,-241 3813,-748 1176,-494 2209,-1175 3089,-2033 879,-857 1572,-1879 2098,-3055 517,-1187 770,-2429 770,-3748l0 -13014 5826 0 0 13014c0,2154 -408,4187 -1210,6078 -791,1900 -1900,3561 -3318,4979 -1418,1418 -3078,2527 -4979,3331 -1902,802 -3924,1198 -6089,1198zm-2813 -31291l5516 0 0 5627 -5516 0 0 -5627zm33094 19299l-8694 0 0 -5990 8694 0c879,0 1715,-176 2496,-517 770,-341 1450,-802 2033,-1374 583,-583 1044,-1263 1374,-2044 341,-780 516,-1605 516,-2485l0 -21343 5991 0 0 21343c0,1715 -319,3341 -956,4859 -637,1517 -1517,2835 -2637,3957 -1122,1122 -2441,2000 -3957,2637 -1517,637 -3133,956 -4859,956zm-5033 -8035l-6178 -24882 5815 -1374 6122 24882 -5759 1374zm28124 8035l-6001 0 0 -35369 6001 0 0 35369z"/>
 </g>
</svg>
