<?xml version="1.0" encoding="UTF-8"?>
<!DOCTYPE svg PUBLIC "-//W3C//DTD SVG 1.1//EN" "http://www.w3.org/Graphics/SVG/1.1/DTD/svg11.dtd">
<!-- Creator: CorelDRAW 2018 (64-Bit) -->
<svg xmlns="http://www.w3.org/2000/svg" xml:space="preserve" width="84.7908mm" height="5.2734mm" version="1.1" style="shape-rendering:geometricPrecision; text-rendering:geometricPrecision; image-rendering:optimizeQuality; fill-rule:evenodd; clip-rule:evenodd"
viewBox="0 0 8189332 509320"
 xmlns:xlink="http://www.w3.org/1999/xlink">
 <defs>
  <style type="text/css">
   <![CDATA[
    .str0 {stroke:#FEFEFE;stroke-width:24532;stroke-miterlimit:22.9256}
    .fil2 {fill:#E5097F}
    .fil0 {fill:#FEFEFE}
    .fil1 {fill:#E5097F;fill-rule:nonzero}
    .fil3 {fill:#FEFEFE;fill-rule:nonzero}
   ]]>
  </style>
 </defs>
 <g id="Слой_x0020_1">
  <metadata id="CorelCorpID_0Corel-Layer"/>
  <polygon class="fil0" points="0,12266 5346978,12266 4875190,497054 0,497054 "/>
  <path class="fil1" d="M704504 396588c-13357,0 -25961,-2530 -37687,-7640 -11783,-5042 -22011,-11986 -30665,-20785 -8721,-8789 -15540,-19075 -20649,-30868 -5109,-11783 -7630,-24252 -7630,-37339l0 -57650 37204 0 0 57650c0,8181 1574,15811 4839,23035 3207,7147 7495,13425 12817,18737 5312,5380 11580,9610 18737,12874 7224,3207 14854,4771 23035,4771 8451,0 16284,-1497 23643,-4636 7292,-3062 13695,-7282 19152,-12604 5447,-5312 9745,-11648 13010,-18940 3207,-7360 4771,-15057 4771,-23238l0 -80685 36122 0 0 80685c0,13357 -2530,25961 -7504,37687 -4906,11783 -11783,22079 -20572,30868 -8789,8789 -19085,15666 -30868,20649 -11793,4974 -24329,7427 -37754,7427zm-17443 -194006l34200 0 0 34886 -34200 0 0 -34886zm223039 119656l-81023 0 0 -37136 81023 0c6471,0 11986,-2250 16690,-6751 4771,-4423 7089,-9745 7089,-15946 0,-4491 -956,-8519 -2791,-12063 -1845,-3603 -4366,-6403 -7640,-8374l-66159 -45732 19346 -30115c753,473 2869,1903 6345,4288 3467,2318 7495,5042 12054,8181 4568,3071 9610,6403 15067,10016 5447,3612 10556,7089 15395,10431 4839,3332 9069,6268 12672,8721 3612,2453 5998,4221 7224,5177 7978,5447 14111,12469 18399,21055 4366,8519 6548,17993 6548,28415 0,8181 -1642,15878 -4839,23035 -3274,7157 -7640,13493 -13222,18940 -5592,5457 -11928,9813 -19152,13019 -7147,3207 -14854,4839 -23025,4839zm154272 -96631c-3950,0 -7765,821 -11310,2386 -3612,1642 -6751,3815 -9475,6548 -2724,2724 -4906,5853 -6539,9465 -1574,3612 -2386,7495 -2386,11725 0,8171 2859,15057 8721,20785 5795,5718 12807,8586 20987,8586l30124 0 0 -29371c0,-8181 -3004,-15270 -8934,-21190 -5930,-5998 -13010,-8934 -21190,-8934zm28617 104812c280,-1227 483,-2386 753,-3342 0,-753 68,-1632 203,-2588 135,-1024 135,-1777 135,-2250l-29709 0c-9127,0 -17781,-1700 -25826,-5177 -8045,-3477 -15057,-8248 -20987,-14314 -5930,-6065 -10701,-13155 -14111,-21190 -3467,-8045 -5244,-16699 -5244,-25826 0,-8924 1777,-17510 5244,-25691 3409,-8181 8181,-15337 14111,-21538 5930,-6201 12942,-11107 20987,-14719 8045,-3545 16699,-5380 25826,-5380 9407,0 18129,1767 26232,5244 8045,3477 15067,8316 20987,14449 5930,6201 10634,13357 14111,21393 3477,8045 5177,16767 5177,26242l0 29371 17858 0c5998,0 10556,1565 13763,4771 3477,3264 5177,7698 5177,13425 0,5921 -1632,10556 -4974,13898 -3342,3342 -7968,5042 -13966,5042l-17858 0c-1429,25759 -11242,46476 -29303,62083 -3747,3197 -7900,6065 -12469,8509 -4568,2530 -9330,4704 -14101,6751 -4839,1980 -9745,3680 -14719,5177 -4974,1497 -9542,2869 -13773,4095 -1227,473 -2521,879 -3883,1082 -1362,280 -2656,618 -3883,1159l-7089 2183 -10016 -31959 7022 -2588c1294,-473 2656,-956 4085,-1497 1497,-483 3004,-956 4501,-1497 6954,-2453 14033,-5051 21393,-7775 7292,-2724 13425,-6201 18399,-10421 5660,-4433 9542,-9272 11658,-14516 2115,-5177 3545,-9407 4288,-12604zm79932 -8181l-24532 0c-5930,0 -10634,-1700 -14101,-5177 -3477,-3274 -5254,-7843 -5254,-13763 0,-5727 1777,-10161 5254,-13425 3467,-3207 8171,-4771 14101,-4771l24532 0c3207,0 6268,-686 9127,-2048 2801,-1362 5389,-3274 7572,-5582 2241,-2386 4018,-5051 5244,-8045 1227,-2926 1835,-6065 1835,-9272l0 -59080 37213 0 0 60171c0,8181 -1642,15946 -4839,23238 -3274,7360 -7640,13763 -13222,19355 -5592,5592 -12063,10016 -19490,13357 -7427,3342 -15260,5042 -23441,5042zm-7833 42728l34200 0 0 34953 -34200 0 0 -34953zm313401 -42728l-7504 0c-8171,0 -16081,-1565 -23779,-4636 -7630,-3129 -14381,-7765 -20031,-13966 -6201,6201 -13357,10837 -21403,13966 -8036,3071 -16419,4636 -25073,4636 -9204,0 -17791,-1700 -25826,-5177 -8045,-3477 -15057,-8181 -20987,-14178 -5998,-5930 -10701,-12942 -14178,-20987 -3409,-8036 -5177,-16622 -5177,-25826 0,-9407 1700,-18129 5042,-26164 3342,-8113 7978,-15057 13898,-21055 5998,-5930 12952,-10634 20997,-14111 8103,-3477 16825,-5177 26232,-5177l338 0 29776 1091 0 -15946 36392 0 0 86538c0,6954 2318,12681 6886,17105 4626,4501 10218,6751 16892,6751l7504 0c5650,0 10218,1565 13695,4771 3477,3264 5244,7698 5244,13425 0,5921 -1700,10556 -5042,13898 -3342,3342 -7978,5042 -13898,5042zm-97790 -96283c-3950,0 -7765,811 -11310,2453 -3612,1565 -6751,3815 -9475,6674 -2724,2859 -4906,6065 -6539,9678 -1642,3545 -2386,7360 -2386,11310 0,3950 744,7833 2386,11513 1632,3757 3815,6954 6539,9678 2724,2733 5863,4906 9475,6481 3545,1632 7360,2453 11310,2453 8181,0 15125,-2936 20785,-8721 5727,-5863 8586,-12952 8586,-21403l744 -30115 -30115 0zm122322 96283l-24532 0c-5930,0 -10634,-1700 -14101,-5177 -3477,-3274 -5254,-7843 -5254,-13763 0,-5727 1777,-10161 5254,-13425 3467,-3207 8171,-4771 14101,-4771l24532 0c3207,0 6268,-686 9127,-2048 2801,-1362 5389,-3274 7572,-5582 2241,-2386 4018,-5051 5244,-8045 1227,-2926 1835,-6065 1835,-9272l0 -59080 37213 0 0 60171c0,8181 -1642,15946 -4839,23238 -3274,7360 -7640,13763 -13222,19355 -5592,5592 -12063,10016 -19490,13357 -7427,3342 -15260,5042 -23441,5042zm25285 -179905l34200 0 0 34963 -34200 0 0 -34963zm144594 179905l-18196 0c-8451,0 -16361,-1632 -23788,-4839 -7427,-3207 -13898,-7562 -19346,-13019 -5457,-5447 -9813,-11851 -13019,-19278 -3207,-7495 -4839,-15405 -4839,-23856l0 -158299 36460 0 0 158714c0,6403 2318,11918 7022,16554 4694,4568 10556,6886 17510,6886l18196 0c5718,0 10286,1565 13763,4771 3477,3264 5177,7698 5177,13425 0,5921 -1632,10556 -4974,13898 -3409,3342 -8045,5042 -13966,5042zm91792 0l-91792 0c-5727,0 -10354,-1700 -13966,-5042 -3545,-3342 -5389,-7833 -5389,-13560 0,-5457 1845,-9880 5389,-13357 3612,-3477 8239,-5177 13966,-5177l91445 0c6413,0 12546,-1642 18399,-4839 5795,-3274 10972,-7698 15405,-13425l23441 -29709 -44225 -20852c-4704,-2453 -10151,-3680 -16351,-3680 -14854,0 -28415,7900 -40545,23779l-3680 5177 -29371 -15598 4085 -6684c7630,-13357 17172,-23914 28415,-31621 11242,-7630 24880,-11513 40681,-11513 11928,0 22967,2386 33118,7089 5660,2724 11793,5650 18399,8721 6548,3129 12681,5998 18399,8721 6684,3274 13357,6471 20041,9678 4221,2250 9533,3342 16013,3342l26029 0 0 35707c-4230,473 -8721,947 -13425,1294 -4704,338 -9127,541 -13357,541 -3747,0 -6954,-338 -9678,-1091l-28212 39734c-15125,21596 -36180,32365 -63233,32365zm-18940 -199598l34210 0 0 34963 -34210 0 0 -34963zm210782 290299l-9340 -31959 6336 -2250c7698,-3207 15192,-6403 22484,-9678 7292,-3197 13705,-7157 19152,-11860 10904,-9195 16351,-21799 16351,-37947l0 -124843 37146 0 0 125249c-686,14101 -3274,26097 -7572,35842 -4356,9813 -10151,18196 -17510,25083 -7292,6944 -16013,12807 -26164,17510 -10151,4704 -21470,8924 -33872,12604l-7012 2250zm199936 -90701l-81023 0 0 -37136 81023 0c6471,0 11986,-2250 16690,-6751 4771,-4423 7089,-9745 7089,-15946 0,-4491 -956,-8519 -2791,-12063 -1845,-3603 -4366,-6403 -7640,-8374l-66159 -45732 19346 -30115c753,473 2869,1903 6345,4288 3467,2318 7495,5042 12054,8181 4568,3071 9610,6403 15067,10016 5447,3612 10556,7089 15395,10431 4839,3332 9069,6268 12672,8721 3612,2453 5998,4221 7224,5177 7978,5447 14111,12469 18399,21055 4366,8519 6548,17993 6548,28415 0,8181 -1642,15878 -4839,23035 -3274,7157 -7640,13493 -13222,18940 -5592,5457 -11928,9813 -19152,13019 -7147,3207 -14854,4839 -23025,4839zm245726 66922c-13628,0 -26512,-2598 -38498,-7843 -11996,-5177 -22562,-12334 -31621,-21325 -8992,-9069 -16149,-19626 -21335,-31621 -5244,-11996 -7833,-24870 -7833,-38498l0 -58674 37204 0 0 58674c0,8721 1574,16825 4839,24397 3207,7562 7640,14169 13357,19896 5727,5650 12334,10218 19896,13560 7572,3332 15540,4974 23991,4974 8383,0 16351,-1642 23779,-4974 7427,-3342 13908,-7978 19490,-13763 5592,-5863 10016,-12546 13357,-20109 3342,-7562 5042,-15531 5042,-23982l0 -82868 37551 0 0 52811c0,7157 2318,13155 7089,17993 4694,4839 10624,7292 17781,7292 7224,0 13290,-2521 18264,-7495 4906,-4906 7427,-10904 7427,-17791l0 -52811 36798 0 0 53150c473,7224 3129,13155 7968,17858 4839,4704 10701,7089 17655,7089l16757 0 0 -88112 37889 0 0 125249 -54647 0c-7910,0 -15811,-1632 -23576,-4839 -7843,-3207 -14314,-7698 -19558,-13357 -5930,5660 -12817,10151 -20582,13357 -7833,3207 -15946,4839 -24397,4839 -10151,0 -19558,-2386 -28212,-7089 -2724,10701 -7157,20514 -13222,29574 -6065,9069 -13357,16834 -21944,23441 -8519,6548 -17916,11658 -28212,15405 -10286,3747 -21123,5592 -32500,5592zm375746 -66922l-18196 0c-8451,0 -16361,-1632 -23788,-4839 -7427,-3207 -13898,-7562 -19346,-13019 -5457,-5447 -9813,-11851 -13019,-19278 -3207,-7495 -4839,-15405 -4839,-23856l0 -158299 36460 0 0 158714c0,6403 2318,11918 7022,16554 4694,4568 10556,6886 17510,6886l18196 0c5718,0 10286,1565 13763,4771 3477,3264 5177,7698 5177,13425 0,5921 -1632,10556 -4974,13898 -3409,3342 -8045,5042 -13966,5042zm284369 0l-9678 0c-8181,0 -16081,-1565 -23576,-4636 -7572,-3129 -14246,-7495 -19906,-13222 -5998,5727 -12739,10093 -20302,13222 -7495,3071 -15540,4636 -23924,4636 -7968,0 -15811,-1565 -23643,-4636 -7765,-3129 -14516,-7495 -20234,-13222 -12411,11928 -27265,17858 -44641,17858 -9610,0 -18805,-2250 -27458,-6674 -5727,-2521 -11039,-6201 -16013,-11184 -12401,11928 -27120,17858 -44225,17858l-11107 0c-5727,0 -10296,-1700 -13763,-5177 -3477,-3477 -5254,-8113 -5254,-13763 0,-5727 1777,-10161 5254,-13425 3467,-3207 8036,-4771 13763,-4771l11107 0c7224,0 13222,-2453 18051,-7292 4839,-4839 7224,-10837 7224,-17993l0 -52811 37889 0 0 52811c0,7157 2386,13155 7089,17993 4704,4839 10566,7292 17443,7292 7495,0 13628,-2453 18602,-7292 4974,-4839 7427,-10837 7427,-17993l0 -52811 36798 0 0 52811c0,6886 2521,12884 7427,17791 4974,4974 11039,7495 18264,7495 7157,0 13222,-2521 18196,-7495 4974,-4906 7427,-10904 7427,-17791l0 -60992 37136 0 0 61745c0,6674 2521,12401 7504,17240 4906,4839 10759,7292 17443,7292l9678 0c6201,0 10895,1565 14101,4771 3207,2994 4839,7495 4839,13425 0,5921 -1700,10556 -5042,13898 -3342,3342 -7978,5042 -13898,5042zm91792 0l-91792 0c-5727,0 -10354,-1700 -13966,-5042 -3545,-3342 -5389,-7833 -5389,-13560 0,-5457 1845,-9880 5389,-13357 3612,-3477 8239,-5177 13966,-5177l91445 0c6413,0 12546,-1642 18399,-4839 5795,-3274 10972,-7698 15405,-13425l23441 -29709 -44225 -20852c-4704,-2453 -10151,-3680 -16351,-3680 -14854,0 -28415,7900 -40545,23779l-3680 5177 -29371 -15598 4085 -6684c7630,-13357 17172,-23914 28415,-31621 11242,-7630 24880,-11513 40681,-11513 11928,0 22967,2386 33118,7089 5660,2724 11793,5650 18399,8721 6548,3129 12681,5998 18399,8721 6684,3274 13357,6471 20041,9678 4221,2250 9533,3342 16013,3342l26029 0 0 35707c-4230,473 -8721,947 -13425,1294 -4704,338 -9127,541 -13357,541 -3747,0 -6954,-338 -9678,-1091l-28212 39734c-15125,21596 -36180,32365 -63233,32365zm187390 0l-37204 0 0 -219291 37204 0 0 219291zm141957 -36798c3477,2250 6201,5109 8181,8721 1970,3612 2994,7495 2994,11725 0,7698 -2791,14033 -8383,19143 -5582,5042 -12334,7630 -20234,7630 -7978,0 -14787,-2588 -20447,-7630 -5727,-5109 -8586,-11445 -8586,-19143 0,-3960 956,-8045 2791,-12266 1845,-4230 4771,-10161 8731,-17858 1767,-3477 3950,-7900 6539,-13357 2588,-5447 5244,-10904 7968,-16351l35707 0 -15260 39386zm353464 36798l-7833 0c-9137,0 -17723,-2048 -25623,-6133 -7910,-4085 -14719,-9745 -20447,-16902 -7157,7427 -15463,13155 -24870,17105 -9475,3950 -19355,5930 -29776,5930l-115233 0c-10634,0 -20649,-1980 -30124,-5930 -9398,-3950 -17578,-9398 -24532,-16351 -6877,-6954 -12334,-15125 -16351,-24532 -3950,-9407 -5930,-19490 -5930,-30124l0 -44969 36460 0 0 44563c0,5447 1024,10701 3129,15675 2115,4906 4974,9195 8586,12807 3545,3545 7843,6403 12817,8519 4906,2115 10286,3207 15946,3207l115233 -415c5718,0 11039,-947 16013,-2994 4906,-1980 9195,-4771 12807,-8316 3612,-3612 6403,-7833 8519,-12672 2115,-4839 3207,-9948 3207,-15405l0 -44969 36383 0 0 62827c0,5650 2386,10769 7089,15192 4704,4501 10286,6751 16699,6751l7833 0c5930,0 10499,1565 13763,4771 3477,2994 5177,7495 5177,13425 0,5921 -1632,10556 -5042,13898 -3332,3342 -7968,5042 -13898,5042zm-115571 -121907l-34615 0 0 -35301 34615 0 0 35301zm-57650 0l-34548 0 0 -35301 34548 0 0 35301zm354961 121907l-181740 0c-5930,0 -10566,-1700 -13966,-5042 -3342,-3342 -4974,-7978 -4974,-13898 0,-5727 1700,-10161 5177,-13425 3477,-3207 8036,-4771 13763,-4771l32713 0c-5457,-9475 -8181,-20987 -8181,-34615 0,-9678 1835,-18747 5592,-27333 3680,-8519 8789,-15946 15192,-22282 6471,-6336 13966,-11242 22484,-14854 8586,-3612 17723,-5380 27323,-5380l66922 0 0 72843 -35301 0 -1497 -36460 -28965 0c-10151,0 -18602,3274 -25276,9678 -6684,6471 -10016,14381 -10016,23788 0,9948 3197,18187 9600,24735 6481,6539 14652,9880 24532,9880l86615 0c5447,0 10083,1565 13763,4771 3477,3467 5177,7968 5177,13425 0,5921 -1632,10556 -4974,13898 -3332,3342 -7968,5042 -13966,5042zm126408 0c-10218,0 -20447,-1091 -30868,-3342 -10431,-2250 -18950,-6674 -25691,-13357 -11860,11107 -25759,16699 -41569,16699l-28617 0c-5998,0 -10634,-1700 -13976,-5042 -3332,-3342 -5042,-7978 -5042,-13898 0,-5930 1642,-10431 4839,-13425 3274,-3207 7978,-4771 14178,-4771l28617 0c6403,0 11996,-2453 16699,-7292 4694,-4839 7080,-10701 7080,-17655l0 -58732 37146 0 0 59823c0,6481 2318,12063 6877,16767 4568,4704 10228,7089 16902,7089l18196 0c5998,0 10556,1565 13763,4771 3477,2994 5244,7495 5244,13425 0,7900 -2318,13077 -6877,15395 -4636,2386 -10228,3545 -16902,3545zm-109708 43134l34615 0 0 35301 -34615 0 0 -35301zm57650 0l34548 0 0 35301 -34548 0 0 -35301zm169812 -43134c-10421,0 -19626,-1024 -27671,-3139 -8036,-2106 -15531,-6674 -22484,-13560 -11928,11107 -25759,16699 -41637,16699l-21190 0c-5930,0 -10566,-1700 -13966,-5042 -3342,-3342 -4974,-7978 -4974,-13898 0,-5930 1565,-10431 4839,-13425 3197,-3207 7900,-4771 14101,-4771l21190 0c6403,0 11996,-2453 16699,-7292 4704,-4839 7089,-10701 7089,-17655l0 -58732 37136 0 0 59823c0,6481 2318,12063 6877,16767 4636,4704 10228,7089 16970,7089l7022 0c5930,0 10566,1565 13763,4771 3477,2994 5177,7495 5177,13425 0,5921 -1700,10556 -5177,13898 -3477,3342 -8036,5042 -13763,5042zm-70254 42728l34210 0 0 34953 -34210 0 0 -34953zm197753 -42728l-127499 0c-5930,0 -10566,-1700 -13966,-5042 -3342,-3342 -4974,-7978 -4974,-13898 0,-5727 1700,-10161 5177,-13425 3477,-3207 8036,-4771 13763,-4771l26782 0 -21944 -29786 26782 -21190c5447,-5650 8171,-11851 8171,-18534l0 -112645 36054 0 0 94796 744 -415c6684,-5650 14246,-9948 22629,-12807 8451,-2859 17105,-4298 26029,-4298 12672,0 23576,2115 32713,6336 9195,4230 16757,9678 22687,16361 5930,6674 10363,14236 13222,22687 2791,8383 4221,16970 4221,25623 0,9678 -1835,18805 -5582,27323 -3680,8586 -8789,16091 -15202,22494 -6471,6471 -13966,11580 -22484,15395 -8586,3883 -17646,5795 -27323,5795zm-99973 -37136l99973 0c4704,0 9127,-956 13222,-2801 4085,-1903 7630,-4423 10759,-7630 3071,-3197 5592,-6877 7427,-10972 1845,-4085 2801,-8519 2801,-13213 0,-9678 -3409,-17655 -10228,-23991 -6809,-6268 -15666,-9475 -26570,-9475 -9407,0 -17723,2869 -24947,8586l-72437 59495zm234493 127837l-9340 -31959 6336 -2250c7698,-3207 15192,-6403 22484,-9678 7292,-3197 13705,-7157 19152,-11860 10904,-9195 16351,-21799 16351,-37947l0 -124843 37146 0 0 125249c-686,14101 -3274,26097 -7572,35842 -4356,9813 -10151,18196 -17510,25083 -7292,6944 -16013,12807 -26164,17510 -10151,4704 -21470,8924 -33872,12604l-7012 2250zm199936 -90701l-81023 0 0 -37136 81023 0c6471,0 11986,-2250 16690,-6751 4771,-4423 7089,-9745 7089,-15946 0,-4491 -956,-8519 -2791,-12063 -1845,-3603 -4366,-6403 -7640,-8374l-66159 -45732 19346 -30115c753,473 2869,1903 6345,4288 3467,2318 7495,5042 12054,8181 4568,3071 9610,6403 15067,10016 5447,3612 10556,7089 15395,10431 4839,3332 9069,6268 12672,8721 3612,2453 5998,4221 7224,5177 7978,5447 14111,12469 18399,21055 4366,8519 6548,17993 6548,28415 0,8181 -1642,15878 -4839,23035 -3274,7157 -7640,13493 -13222,18940 -5592,5457 -11928,9813 -19152,13019 -7147,3207 -14854,4839 -23025,4839z"/>
  <polygon class="fil2 str0" points="5539564,12266 8160280,12266 7688482,497054 5096722,497054 "/>
  <path class="fil3" d="M5678952 346075c-8857,0 -17375,-1700 -25411,-5042 -8045,-3342 -15135,-7968 -21200,-13898 -6065,-5998 -10904,-12952 -14516,-20852 -3612,-7910 -5380,-16361 -5380,-25285 -270,-8924 1362,-17578 4839,-26029 3477,-8383 8451,-15811 14854,-22282l20852 -21190 -10837 -10769 26029 -25285 57650 57650c6413,6403 11252,13628 14449,21741 3274,8036 4974,16419 5244,25073 0,9137 -1767,17791 -5244,25826 -3409,8045 -8171,15067 -14304,20987 -6065,5930 -13087,10634 -21132,14111 -8103,3477 -16690,5244 -25894,5244zm-21886 -87349c-5447,5930 -8103,12952 -7833,20987 270,8045 3207,14922 8924,20649 5930,5930 13155,8924 21538,8924 8171,0 14990,-2724 20437,-8171 3004,-3004 5186,-6278 6548,-9890 1362,-3603 2038,-7360 2038,-11310 0,-3950 -676,-7765 -2038,-11377 -1362,-3545 -3545,-6819 -6548,-9813l-21190 -21190 -6268 5930c-1227,1227 -2588,2588 -3950,3950 -1362,1362 -2724,2724 -4230,4221 -1227,1227 -2521,2521 -3747,3747 -1227,1227 -2453,2318 -3680,3342zm282118 81023l-7843 0c-10904,0 -19490,-2318 -25826,-6886 -6336,-4559 -12063,-10556 -17308,-17984l-2183 -3004c-5718,9137 -13077,16081 -22146,20785 -9059,4704 -18872,7089 -29506,7089l-70254 0 0 -37136 70254 0c6413,0 11996,-2318 16699,-6886 4704,-4636 7089,-9880 7089,-15811 0,-2250 -280,-4559 -753,-6877 -541,-2386 -1362,-4501 -2588,-6548l-43134 -63503 29709 -21200 75431 109988c2733,4501 4771,7427 6133,8789 1371,1362 3071,2048 5051,2048l11175 0c6201,0 10904,1565 14101,4771 3207,2994 4839,7495 4839,13425 0,5921 -1700,10556 -5042,13898 -3342,3342 -7968,5042 -13898,5042zm24542 0l-24532 0c-5930,0 -10634,-1700 -14101,-5177 -3477,-3274 -5254,-7843 -5254,-13763 0,-5727 1777,-10161 5254,-13425 3467,-3207 8171,-4771 14101,-4771l24532 0c3207,0 6268,-686 9127,-2048 2801,-1362 5389,-3274 7572,-5582 2241,-2386 4018,-5051 5244,-8045 1227,-2926 1835,-6065 1835,-9272l0 -59080 37213 0 0 60171c0,8181 -1642,15946 -4839,23238 -3274,7360 -7640,13763 -13222,19355 -5592,5592 -12063,10016 -19490,13357 -7427,3342 -15260,5042 -23441,5042zm-7823 42728l34200 0 0 34953 -34200 0 0 -34953zm256138 24194c-13628,0 -26512,-2598 -38498,-7843 -11996,-5177 -22562,-12334 -31621,-21325 -8992,-9069 -16149,-19626 -21335,-31621 -5244,-11996 -7833,-24870 -7833,-38498l0 -58674 37204 0 0 58674c0,8721 1574,16825 4839,24397 3207,7562 7640,14169 13357,19896 5727,5650 12334,10218 19896,13560 7572,3332 15540,4974 23991,4974 8383,0 16351,-1642 23779,-4974 7427,-3342 13908,-7978 19490,-13763 5592,-5863 10016,-12546 13357,-20109 3342,-7562 5042,-15531 5042,-23982l0 -82868 37551 0 0 52811c0,7157 2318,13155 7089,17993 4694,4839 10624,7292 17781,7292 7224,0 13290,-2521 18264,-7495 4906,-4906 7427,-10904 7427,-17791l0 -52811 36798 0 0 53150c473,7224 3129,13155 7968,17858 4839,4704 10701,7089 17655,7089l16757 0 0 -88112 37889 0 0 125249 -54647 0c-7910,0 -15811,-1632 -23576,-4839 -7843,-3207 -14314,-7698 -19558,-13357 -5930,5660 -12817,10151 -20582,13357 -7833,3207 -15946,4839 -24397,4839 -10151,0 -19558,-2386 -28212,-7089 -2724,10701 -7157,20514 -13222,29574 -6065,9069 -13357,16834 -21944,23441 -8519,6548 -17916,11658 -28212,15405 -10286,3747 -21123,5592 -32500,5592zm185091 -268761l-34210 0 0 -34963 34210 0 0 34963zm28956 57235l-34548 0 0 -35301 34548 0 0 35301zm-57573 0l-34548 0 0 -35301 34548 0 0 35301zm123413 235305l-9340 -31959 6336 -2250c7698,-3207 15192,-6403 22484,-9678 7292,-3197 13705,-7157 19152,-11860 10904,-9195 16351,-21799 16351,-37947l0 -124843 37146 0 0 125249c-686,14101 -3274,26097 -7572,35842 -4356,9813 -10151,18196 -17510,25083 -7292,6944 -16013,12807 -26164,17510 -10151,4704 -21470,8924 -33872,12604l-7012 2250zm210357 -90701l-18196 0c-8451,0 -16361,-1632 -23788,-4839 -7427,-3207 -13898,-7562 -19346,-13019 -5457,-5447 -9813,-11851 -13019,-19278 -3207,-7495 -4839,-15405 -4839,-23856l0 -158299 36460 0 0 158714c0,6403 2318,11918 7022,16554 4694,4568 10556,6886 17510,6886l18196 0c5718,0 10286,1565 13763,4771 3477,3264 5177,7698 5177,13425 0,5921 -1632,10556 -4974,13898 -3409,3342 -8045,5042 -13966,5042zm174718 0l-174718 0c-5727,0 -10218,-1767 -13560,-5380 -3342,-3612 -5042,-8248 -5042,-13976 0,-5650 1700,-10083 5042,-13145 3342,-3139 7833,-4636 13560,-4636l30124 0c-4704,-9204 -7089,-19085 -7089,-29786 0,-9398 1767,-18119 5244,-26164 3409,-8103 8181,-15125 14314,-21190 6065,-6065 13145,-10837 21325,-14314 8181,-3477 16834,-5244 26029,-5244 9407,0 18129,1767 26242,5244 8036,3477 15057,8248 21123,14314 6133,6065 10904,13087 14304,21190 3477,8045 5254,16767 5254,26164 0,10904 -2250,20852 -6684,29786l24532 0c5930,0 10566,1497 13908,4636 3332,3062 5042,7495 5042,13145 0,5727 -1777,10363 -5254,13976 -3400,3612 -8036,5380 -13695,5380zm-84780 -96631c-19558,0 -29371,9880 -29371,29709 0,19838 9813,29786 29371,29786 19558,0 29371,-9948 29371,-29786 0,-19828 -9813,-29709 -29371,-29709zm-17839 -103382l34210 0 0 34963 -34210 0 0 -34963zm354604 200013l-52744 0c-16622,0 -30733,-5795 -42381,-17443 -11175,11648 -25421,17443 -42728,17443 -7978,0 -15608,-1565 -22900,-4636 -7292,-3129 -13831,-7495 -19490,-13222 -11918,11928 -26299,17858 -43134,17858l-28617 0c-5727,0 -10286,-1700 -13763,-5042 -3477,-3342 -5177,-7978 -5177,-13898 0,-5930 1700,-10431 5177,-13425 3197,-3207 7833,-4771 13763,-4771l28617 0c7157,0 13087,-2318 17655,-6886 4559,-4636 6877,-10218 6877,-16970l0 -51991 37146 0 0 56491c0,4433 947,7900 2791,10421 1903,2453 4085,4366 6741,5727 2588,1362 5322,2250 8181,2588 2791,415 5109,618 6819,618 6741,0 12266,-2318 16757,-6886 4433,-4636 6954,-10354 7427,-17308l0 -51652 36054 0 406 54647c0,6413 1835,11590 5515,15405 3747,3815 8799,5795 15270,5795l18602 0 0 -84771 37136 0 0 121907zm184686 74349c-13357,0 -25961,-2530 -37687,-7640 -11783,-5042 -22011,-11986 -30665,-20785 -8721,-8789 -15540,-19075 -20649,-30868 -5109,-11783 -7630,-24252 -7630,-37339l0 -57650 37204 0 0 57650c0,8181 1574,15811 4839,23035 3207,7147 7495,13425 12817,18737 5312,5380 11580,9610 18737,12874 7224,3207 14854,4771 23035,4771 8451,0 16284,-1497 23643,-4636 7292,-3062 13695,-7282 19152,-12604 5447,-5312 9745,-11648 13010,-18940 3207,-7360 4771,-15057 4771,-23238l0 -80685 36122 0 0 80685c0,13357 -2530,25961 -7504,37687 -4906,11783 -11783,22079 -20572,30868 -8789,8789 -19085,15666 -30868,20649 -11793,4974 -24329,7427 -37754,7427zm-17443 -194006l34200 0 0 34886 -34200 0 0 -34886zm205180 119656l-53903 0 0 -37136 53903 0c5447,0 10634,-1091 15473,-3207 4771,-2115 8992,-4974 12604,-8519 3612,-3612 6471,-7833 8519,-12672 2115,-4839 3197,-9948 3197,-15405l0 -132328 37146 0 0 132328c0,10634 -1980,20717 -5930,30124 -3950,9407 -9407,17578 -16351,24532 -6954,6954 -15135,12401 -24532,16351 -9407,3950 -19423,5930 -30124,5930zm-31206 -49817l-38305 -154272 36054 -8519 37957 154272 -35707 8519zm174371 49817l-37204 0 0 -219291 37204 0 0 219291z"/>
 </g>
</svg>
