<?xml version="1.0" encoding="UTF-8"?>
<!DOCTYPE svg PUBLIC "-//W3C//DTD SVG 1.1//EN" "http://www.w3.org/Graphics/SVG/1.1/DTD/svg11.dtd">
<!-- Creator: CorelDRAW 2018 (64-Bit) -->
<svg xmlns="http://www.w3.org/2000/svg" xml:space="preserve" width="55.3616mm" height="12.5296mm" version="1.1" style="shape-rendering:geometricPrecision; text-rendering:geometricPrecision; image-rendering:optimizeQuality; fill-rule:evenodd; clip-rule:evenodd"
viewBox="0 0 5251581 1188553"
 xmlns:xlink="http://www.w3.org/1999/xlink">
 <defs>
  <style type="text/css">
   <![CDATA[
    .str0 {stroke:#FEFEFE;stroke-width:24094;stroke-miterlimit:22.9256}
    .fil2 {fill:#E5097F}
    .fil0 {fill:#FEFEFE}
    .fil1 {fill:#E5097F;fill-rule:nonzero}
    .fil3 {fill:#FEFEFE;fill-rule:nonzero}
   ]]>
  </style>
 </defs>
 <g id="Слой_x0020_1">
  <metadata id="CorelCorpID_0Corel-Layer"/>
  <polygon class="fil0" points="0,0 5251581,0 4788211,476138 0,476138 "/>
  <path class="fil1" d="M624613 377465c-13119,0 -25498,-2485 -37014,-7503 -11573,-4952 -21619,-11772 -30118,-20414 -8566,-8632 -15263,-18735 -20281,-30317 -5018,-11573 -7494,-23819 -7494,-36673l0 -56622 36540 0 0 56622c0,8035 1546,15529 4752,22624 3149,7020 7361,13185 12588,18403 5217,5284 11374,9439 18403,12645 7096,3149 14589,4686 22624,4686 8300,0 15993,-1470 23222,-4553 7162,-3007 13451,-7152 18811,-12379 5350,-5217 9571,-11440 12778,-18602 3149,-7228 4686,-14789 4686,-22823l0 -79246 35478 0 0 79246c0,13119 -2485,25498 -7371,37014 -4819,11573 -11573,21685 -20205,30317 -8632,8632 -18744,15386 -30317,20281 -11582,4885 -23895,7295 -37081,7295zm-17132 -190545l33590 0 0 34263 -33590 0 0 -34263zm219069 117512l-79578 0 0 -36474 79578 0c6356,0 11772,-2210 16392,-6631 4686,-4345 6963,-9571 6963,-15661 0,-4411 -939,-8367 -2741,-11848 -1812,-3538 -4288,-6289 -7503,-8224l-64979 -44916 19000 -29577c740,465 2817,1869 6232,4212 3405,2277 7361,4952 11838,8035 4487,3017 9439,6289 14798,9837 5350,3548 10368,6963 15121,10245 4752,3273 8907,6156 12446,8566 3548,2409 5891,4145 7096,5084 7835,5350 13859,12246 18071,20679 4288,8367 6431,17672 6431,27908 0,8035 -1613,15595 -4752,22624 -3216,7029 -7503,13252 -12986,18602 -5492,5360 -11715,9638 -18811,12787 -7020,3149 -14589,4752 -22615,4752zm151519 -94907c-3880,0 -7627,806 -11108,2343 -3548,1613 -6631,3747 -9306,6431 -2675,2675 -4819,5748 -6422,9296 -1546,3548 -2343,7361 -2343,11516 0,8025 2808,14789 8566,20414 5692,5616 12578,8433 20613,8433l29587 0 0 -28847c0,-8035 -2950,-14997 -8775,-20812 -5824,-5891 -12778,-8775 -20812,-8775zm28107 102942c275,-1205 474,-2343 740,-3282 0,-740 66,-1603 199,-2542 133,-1006 133,-1745 133,-2210l-29179 0c-8964,0 -17464,-1670 -25365,-5084 -7902,-3415 -14789,-8101 -20613,-14058 -5824,-5957 -10510,-12920 -13859,-20812 -3405,-7902 -5151,-16401 -5151,-25365 0,-8765 1745,-17198 5151,-25233 3349,-8035 8035,-15064 13859,-21154 5824,-6090 12711,-10909 20613,-14457 7902,-3481 16401,-5284 25365,-5284 9239,0 17805,1736 25764,5151 7902,3415 14798,8167 20613,14191 5824,6090 10444,13119 13859,21011 3415,7902 5084,16468 5084,25773l0 28847 17540 0c5891,0 10368,1537 13517,4686 3415,3206 5084,7560 5084,13185 0,5815 -1603,10368 -4885,13650 -3282,3282 -7826,4952 -13717,4952l-17540 0c-1404,25299 -11042,45646 -28780,60976 -3681,3140 -7760,5957 -12246,8357 -4487,2485 -9163,4620 -13850,6631 -4752,1945 -9571,3614 -14457,5084 -4885,1470 -9372,2817 -13527,4022 -1205,465 -2476,863 -3813,1062 -1338,275 -2609,607 -3813,1138l-6963 2144 -9837 -31389 6896 -2542c1271,-465 2609,-939 4013,-1470 1470,-474 2950,-939 4420,-1470 6830,-2409 13783,-4961 21011,-7636 7162,-2675 13185,-6090 18071,-10235 5559,-4354 9372,-9107 11450,-14257 2077,-5084 3481,-9239 4212,-12379zm78506 -8035l-24094 0c-5824,0 -10444,-1670 -13850,-5084 -3415,-3216 -5160,-7703 -5160,-13517 0,-5625 1745,-9979 5160,-13185 3405,-3149 8025,-4686 13850,-4686l24094 0c3149,0 6156,-674 8964,-2011 2751,-1338 5293,-3216 7437,-5483 2201,-2343 3946,-4961 5151,-7902 1205,-2874 1802,-5957 1802,-9107l0 -58026 36549 0 0 59098c0,8035 -1613,15661 -4752,22823 -3216,7228 -7503,13517 -12986,19010 -5492,5492 -11848,9837 -19143,13119 -7295,3282 -14988,4952 -23022,4952zm-7693 41975l33590 0 0 34330 -33590 0 0 -34330zm307810 -41975l-7371 0c-8025,0 -15794,-1537 -23354,-4553 -7494,-3073 -14125,-7627 -19674,-13717 -6090,6090 -13119,10643 -21021,13717 -7892,3017 -16126,4553 -24626,4553 -9040,0 -17473,-1670 -25365,-5084 -7902,-3415 -14789,-8035 -20613,-13925 -5891,-5824 -10510,-12711 -13925,-20613 -3349,-7892 -5084,-16325 -5084,-25365 0,-9239 1670,-17805 4952,-25697 3282,-7968 7835,-14789 13650,-20679 5891,-5824 12721,-10444 20622,-13859 7959,-3415 16525,-5084 25764,-5084l332 0 29245 1072 0 -15661 35743 0 0 84994c0,6830 2277,12455 6763,16800 4544,4420 10036,6631 16591,6631l7371 0c5549,0 10036,1537 13451,4686 3415,3206 5151,7560 5151,13185 0,5815 -1670,10368 -4952,13650 -3282,3282 -7835,4952 -13650,4952zm-96045 -94566c-3880,0 -7627,797 -11108,2409 -3548,1537 -6631,3747 -9306,6555 -2675,2808 -4819,5957 -6422,9505 -1613,3481 -2343,7228 -2343,11108 0,3880 730,7693 2343,11307 1603,3690 3747,6830 6422,9505 2675,2685 5758,4819 9306,6365 3481,1603 7228,2409 11108,2409 8035,0 14855,-2884 20414,-8566 5625,-5758 8433,-12721 8433,-21021l730 -29577 -29577 0zm120140 94566l-24094 0c-5824,0 -10444,-1670 -13850,-5084 -3415,-3216 -5160,-7703 -5160,-13517 0,-5625 1745,-9979 5160,-13185 3405,-3149 8025,-4686 13850,-4686l24094 0c3149,0 6156,-674 8964,-2011 2751,-1338 5293,-3216 7437,-5483 2201,-2343 3946,-4961 5151,-7902 1205,-2874 1802,-5957 1802,-9107l0 -58026 36549 0 0 59098c0,8035 -1613,15661 -4752,22823 -3216,7228 -7503,13517 -12986,19010 -5492,5492 -11848,9837 -19143,13119 -7295,3282 -14988,4952 -23022,4952zm24834 -176695l33590 0 0 34339 -33590 0 0 -34339zm142024 176695l-17872 0c-8300,0 -16069,-1603 -23364,-4752 -7295,-3149 -13650,-7428 -19000,-12787 -5360,-5350 -9638,-11639 -12787,-18934 -3149,-7361 -4752,-15130 -4752,-23430l0 -155475 35810 0 0 155883c0,6289 2277,11706 6896,16259 4610,4487 10368,6763 17198,6763l17872 0c5616,0 10103,1537 13517,4686 3415,3206 5084,7560 5084,13185 0,5815 -1603,10368 -4885,13650 -3349,3282 -7902,4952 -13717,4952zm90155 0l-90155 0c-5625,0 -10169,-1670 -13717,-4952 -3481,-3282 -5293,-7693 -5293,-13318 0,-5360 1812,-9704 5293,-13119 3548,-3415 8092,-5084 13717,-5084l89813 0c6299,0 12322,-1613 18071,-4752 5692,-3216 10776,-7560 15130,-13185l23022 -29179 -43436 -20480c-4620,-2409 -9970,-3614 -16060,-3614 -14589,0 -27908,7760 -39822,23354l-3614 5084 -28847 -15320 4013 -6564c7494,-13119 16866,-23487 27908,-31057 11042,-7494 24436,-11307 39955,-11307 11715,0 22558,2343 32527,6963 5559,2675 11582,5549 18071,8566 6431,3073 12455,5891 18071,8566 6564,3216 13119,6356 19683,9505 4145,2210 9363,3282 15728,3282l25565 0 0 35070c-4155,465 -8566,930 -13185,1271 -4620,332 -8964,531 -13119,531 -3681,0 -6830,-332 -9505,-1072l-27708 39025c-14855,21211 -35534,31787 -62105,31787zm-18611 -196037l33599 0 0 34339 -33599 0 0 -34339zm207012 285129l-9173 -31389 6223 -2210c7560,-3149 14921,-6289 22083,-9505 7162,-3140 13461,-7029 18811,-11649 10710,-9031 16060,-21410 16060,-37270l0 -122616 36483 0 0 123014c-674,13850 -3216,25631 -7437,35202 -4278,9638 -9970,17872 -17198,24635 -7162,6820 -15728,12578 -25697,17198 -9970,4620 -21087,8765 -33267,12379l-6887 2210zm196369 -89083l-79578 0 0 -36474 79578 0c6356,0 11772,-2210 16392,-6631 4686,-4345 6963,-9571 6963,-15661 0,-4411 -939,-8367 -2741,-11848 -1812,-3538 -4288,-6289 -7503,-8224l-64979 -44916 19000 -29577c740,465 2817,1869 6232,4212 3405,2277 7361,4952 11838,8035 4487,3017 9439,6289 14798,9837 5350,3548 10368,6963 15121,10245 4752,3273 8907,6156 12446,8566 3548,2409 5891,4145 7096,5084 7835,5350 13859,12246 18071,20679 4288,8367 6431,17672 6431,27908 0,8035 -1613,15595 -4752,22624 -3216,7029 -7503,13252 -12986,18602 -5492,5360 -11715,9638 -18811,12787 -7020,3149 -14589,4752 -22615,4752zm241342 65728c-13385,0 -26039,-2552 -37811,-7703 -11782,-5084 -22159,-12114 -31057,-20945 -8831,-8907 -15861,-19275 -20954,-31057 -5151,-11782 -7693,-24426 -7693,-37811l0 -57618 36540 0 0 57618c0,8566 1546,16525 4752,23962 3149,7428 7503,13916 13119,19541 5625,5549 12114,10036 19541,13318 7437,3273 15263,4885 23563,4885 8234,0 16060,-1613 23354,-4885 7295,-3282 13660,-7835 19143,-13517 5492,-5758 9837,-12322 13119,-19750 3282,-7428 4952,-15253 4952,-23554l0 -81390 36881 0 0 51869c0,7029 2277,12920 6963,17672 4610,4752 10435,7162 17464,7162 7096,0 13053,-2476 17938,-7361 4819,-4819 7295,-10710 7295,-17473l0 -51869 36142 0 0 52201c465,7096 3073,12920 7826,17540 4752,4620 10510,6963 17340,6963l16458 0 0 -86540 37213 0 0 123014 -53672 0c-7769,0 -15529,-1603 -23155,-4752 -7703,-3149 -14058,-7560 -19209,-13119 -5824,5559 -12588,9970 -20215,13119 -7693,3149 -15661,4752 -23962,4752 -9970,0 -19209,-2343 -27708,-6963 -2675,10510 -7029,20148 -12986,29046 -5957,8907 -13119,16534 -21552,23022 -8367,6431 -17596,11450 -27708,15130 -10103,3681 -20746,5492 -31920,5492zm369042 -65728l-17872 0c-8300,0 -16069,-1603 -23364,-4752 -7295,-3149 -13650,-7428 -19000,-12787 -5360,-5350 -9638,-11639 -12787,-18934 -3149,-7361 -4752,-15130 -4752,-23430l0 -155475 35810 0 0 155883c0,6289 2277,11706 6896,16259 4610,4487 10368,6763 17198,6763l17872 0c5616,0 10103,1537 13517,4686 3415,3206 5084,7560 5084,13185 0,5815 -1603,10368 -4885,13650 -3349,3282 -7902,4952 -13717,4952zm279295 0l-9505 0c-8035,0 -15794,-1537 -23155,-4553 -7437,-3073 -13992,-7361 -19551,-12986 -5891,5625 -12512,9913 -19939,12986 -7361,3017 -15263,4553 -23497,4553 -7826,0 -15529,-1537 -23222,-4553 -7627,-3073 -14257,-7361 -19873,-12986 -12189,11715 -26779,17540 -43844,17540 -9439,0 -18469,-2210 -26969,-6555 -5625,-2476 -10842,-6090 -15728,-10985 -12180,11715 -26637,17540 -43436,17540l-10909 0c-5625,0 -10112,-1670 -13517,-5084 -3415,-3415 -5160,-7968 -5160,-13517 0,-5625 1745,-9979 5160,-13185 3405,-3149 7892,-4686 13517,-4686l10909 0c7096,0 12986,-2409 17729,-7162 4752,-4752 7096,-10643 7096,-17672l0 -51869 37213 0 0 51869c0,7029 2343,12920 6963,17672 4620,4752 10378,7162 17132,7162 7361,0 13385,-2409 18270,-7162 4885,-4752 7295,-10643 7295,-17672l0 -51869 36142 0 0 51869c0,6763 2476,12654 7295,17473 4885,4885 10842,7361 17938,7361 7029,0 12986,-2476 17872,-7361 4885,-4819 7295,-10710 7295,-17473l0 -59904 36474 0 0 60644c0,6555 2476,12180 7371,16932 4819,4752 10567,7162 17132,7162l9505 0c6090,0 10700,1537 13850,4686 3149,2941 4752,7361 4752,13185 0,5815 -1670,10368 -4952,13650 -3282,3282 -7835,4952 -13650,4952zm90155 0l-90155 0c-5625,0 -10169,-1670 -13717,-4952 -3481,-3282 -5293,-7693 -5293,-13318 0,-5360 1812,-9704 5293,-13119 3548,-3415 8092,-5084 13717,-5084l89813 0c6299,0 12322,-1613 18071,-4752 5692,-3216 10776,-7560 15130,-13185l23022 -29179 -43436 -20480c-4620,-2409 -9970,-3614 -16060,-3614 -14589,0 -27908,7760 -39822,23354l-3614 5084 -28847 -15320 4013 -6564c7494,-13119 16866,-23487 27908,-31057 11042,-7494 24436,-11307 39955,-11307 11715,0 22558,2343 32527,6963 5559,2675 11582,5549 18071,8566 6431,3073 12455,5891 18071,8566 6564,3216 13119,6356 19683,9505 4145,2210 9363,3282 15728,3282l25565 0 0 35070c-4155,465 -8566,930 -13185,1271 -4620,332 -8964,531 -13119,531 -3681,0 -6830,-332 -9505,-1072l-27708 39025c-14855,21211 -35534,31787 -62105,31787zm184056 0l-36540 0 0 -215379 36540 0 0 215379zm139415 -36142c3415,2210 6090,5018 8035,8566 1935,3548 2941,7361 2941,11516 0,7560 -2741,13783 -8234,18801 -5483,4952 -12114,7494 -19873,7494 -7835,0 -14523,-2542 -20082,-7494 -5625,-5018 -8433,-11241 -8433,-18801 0,-3889 939,-7902 2741,-12047 1812,-4155 4686,-9979 8575,-17540 1736,-3415 3880,-7760 6422,-13119 2542,-5350 5151,-10710 7826,-16060l35070 0 -14988 38674 0 9zm347158 36142l-7693 0c-8974,0 -17407,-2011 -25166,-6024 -7769,-4013 -14457,-9571 -20082,-16600 -7029,7295 -15187,12920 -24426,16800 -9306,3880 -19010,5824 -29245,5824l-113177 0c-10444,0 -20281,-1945 -29587,-5824 -9230,-3880 -17264,-9230 -24094,-16060 -6754,-6830 -12114,-14855 -16060,-24094 -3880,-9239 -5824,-19143 -5824,-29587l0 -44167 35810 0 0 43768c0,5350 1006,10510 3073,15396 2077,4819 4885,9031 8433,12578 3481,3481 7703,6289 12588,8367 4819,2077 10103,3149 15661,3149l113177 -408c5616,0 10842,-930 15728,-2941 4819,-1945 9031,-4686 12578,-8167 3548,-3548 6289,-7693 8367,-12446 2077,-4752 3149,-9771 3149,-15130l0 -44167 35734 0 0 61706c0,5549 2343,10577 6963,14921 4620,4420 10103,6631 16401,6631l7693 0c5824,0 10311,1537 13517,4686 3415,2941 5084,7361 5084,13185 0,5815 -1603,10368 -4952,13650 -3273,3282 -7826,4952 -13650,4952zm-113509 -119732l-33998 0 0 -34671 33998 0 0 34671zm-56622 0l-33931 0 0 -34671 33931 0 0 34671zm348628 119732l-178497 0c-5824,0 -10378,-1670 -13717,-4952 -3282,-3282 -4885,-7835 -4885,-13650 0,-5625 1670,-9979 5084,-13185 3415,-3149 7892,-4686 13517,-4686l32129 0c-5360,-9306 -8035,-20613 -8035,-33998 0,-9505 1802,-18412 5492,-26845 3614,-8367 8632,-15661 14921,-21884 6356,-6223 13717,-11042 22083,-14589 8433,-3548 17407,-5284 26836,-5284l65728 0 0 71543 -34671 0 -1470 -35810 -28448 0c-9970,0 -18270,3216 -24825,9505 -6564,6356 -9837,14125 -9837,23364 0,9771 3140,17862 9429,24294 6365,6422 14390,9704 24094,9704l85070 0c5350,0 9903,1537 13517,4686 3415,3405 5084,7826 5084,13185 0,5815 -1603,10368 -4885,13650 -3273,3282 -7826,4952 -13717,4952zm124162 0c-10036,0 -20082,-1072 -30317,-3282 -10245,-2210 -18611,-6555 -25233,-13119 -11649,10909 -25299,16401 -40828,16401l-28107 0c-5891,0 -10444,-1670 -13726,-4952 -3273,-3282 -4952,-7835 -4952,-13650 0,-5824 1613,-10245 4752,-13185 3216,-3149 7835,-4686 13925,-4686l28107 0c6289,0 11782,-2409 16401,-7162 4610,-4752 6953,-10510 6953,-17340l0 -57684 36483 0 0 58756c0,6365 2277,11848 6754,16468 4487,4620 10046,6963 16600,6963l17872 0c5891,0 10368,1537 13517,4686 3415,2941 5151,7361 5151,13185 0,7760 -2277,12844 -6754,15121 -4553,2343 -10046,3481 -16600,3481zm-107751 42364l33998 0 0 34671 -33998 0 0 -34671zm56622 0l33931 0 0 34671 -33931 0 0 -34671zm166782 -42364c-10235,0 -19275,-1006 -27177,-3083 -7892,-2068 -15253,-6555 -22083,-13318 -11715,10909 -25299,16401 -40894,16401l-20812 0c-5824,0 -10378,-1670 -13717,-4952 -3282,-3282 -4885,-7835 -4885,-13650 0,-5824 1537,-10245 4752,-13185 3140,-3149 7760,-4686 13850,-4686l20812 0c6289,0 11782,-2409 16401,-7162 4620,-4752 6963,-10510 6963,-17340l0 -57684 36474 0 0 58756c0,6365 2277,11848 6754,16468 4553,4620 10046,6963 16667,6963l6896 0c5824,0 10378,1537 13517,4686 3415,2941 5084,7361 5084,13185 0,5815 -1670,10368 -5084,13650 -3415,3282 -7892,4952 -13517,4952zm-69001 41975l33599 0 0 34330 -33599 0 0 -34330zm194225 -41975l-125224 0c-5824,0 -10378,-1670 -13717,-4952 -3282,-3282 -4885,-7835 -4885,-13650 0,-5625 1670,-9979 5084,-13185 3415,-3149 7892,-4686 13517,-4686l26305 0 -21552 -29255 26305 -20812c5350,-5549 8025,-11639 8025,-18204l0 -110635 35411 0 0 93105 730 -408c6564,-5549 13992,-9771 22226,-12578 8300,-2808 16800,-4221 25565,-4221 12446,0 23155,2077 32129,6223 9031,4155 16458,9505 22283,16069 5824,6555 10178,13982 12986,22283 2741,8234 4145,16667 4145,25166 0,9505 -1802,18469 -5483,26836 -3614,8433 -8632,15804 -14931,22093 -6356,6356 -13717,11374 -22083,15121 -8433,3813 -17331,5692 -26836,5692zm-98189 -36474l98189 0c4620,0 8964,-939 12986,-2751 4013,-1869 7494,-4345 10567,-7494 3017,-3140 5492,-6754 7295,-10776 1812,-4013 2751,-8367 2751,-12977 0,-9505 -3349,-17340 -10046,-23563 -6688,-6156 -15386,-9306 -26096,-9306 -9239,0 -17407,2817 -24502,8433l-71145 58434zm230310 125566l-9173 -31389 6223 -2210c7560,-3149 14921,-6289 22083,-9505 7162,-3140 13461,-7029 18811,-11649 10710,-9031 16060,-21410 16060,-37270l0 -122616 36483 0 0 123014c-674,13850 -3216,25631 -7437,35202 -4278,9638 -9970,17872 -17198,24635 -7162,6820 -15728,12578 -25697,17198 -9970,4620 -21087,8765 -33267,12379l-6887 2210zm196369 -89083l-79578 0 0 -36474 79578 0c6356,0 11772,-2210 16392,-6631 4686,-4345 6963,-9571 6963,-15661 0,-4411 -939,-8367 -2741,-11848 -1812,-3538 -4288,-6289 -7503,-8224l-64979 -44916 19000 -29577c740,465 2817,1869 6232,4212 3405,2277 7361,4952 11838,8035 4487,3017 9439,6289 14798,9837 5350,3548 10368,6963 15121,10245 4752,3273 8907,6156 12446,8566 3548,2409 5891,4145 7096,5084 7835,5350 13859,12246 18071,20679 4288,8367 6431,17672 6431,27908 0,8035 -1613,15595 -4752,22624 -3216,7029 -7503,13252 -12986,18602 -5492,5360 -11715,9638 -18811,12787 -7020,3149 -14589,4752 -22615,4752z"/>
  <polygon class="fil2 str0" points="2649041,700368 5222990,700368 4759620,1176506 2214100,1176506 "/>
  <path class="fil3" d="M2755435 1030650c-8699,0 -17065,-1670 -24958,-4952 -7902,-3282 -14865,-7826 -20822,-13650 -5957,-5891 -10710,-12721 -14257,-20480 -3548,-7769 -5284,-16069 -5284,-24834 -266,-8765 1338,-17264 4752,-25565 3415,-8234 8300,-15529 14589,-21884l20480 -20812 -10643 -10577 25565 -24834 56622 56622c6299,6289 11051,13385 14191,21353 3216,7892 4885,16126 5151,24626 0,8974 -1736,17473 -5151,25365 -3349,7902 -8025,14798 -14049,20613 -5957,5824 -12853,10444 -20755,13859 -7959,3415 -16392,5151 -25432,5151zm-21495 -85791c-5350,5824 -7959,12721 -7693,20613 266,7902 3149,14656 8765,20281 5824,5824 12920,8765 21154,8765 8025,0 14722,-2675 20072,-8025 2950,-2950 5094,-6166 6431,-9714 1338,-3538 2002,-7228 2002,-11108 0,-3880 -664,-7627 -2002,-11174 -1338,-3481 -3481,-6697 -6431,-9638l-20812 -20812 -6156 5824c-1205,1205 -2542,2542 -3880,3880 -1338,1338 -2675,2675 -4155,4145 -1205,1205 -2476,2476 -3681,3681 -1205,1205 -2409,2277 -3614,3282zm277085 79578l-7703 0c-10710,0 -19143,-2277 -25365,-6763 -6223,-4477 -11848,-10368 -16999,-17663l-2144 -2950c-5616,8974 -12844,15794 -21751,20414 -8898,4620 -18536,6963 -28980,6963l-69001 0 0 -36474 69001 0c6299,0 11782,-2277 16401,-6763 4620,-4553 6963,-9704 6963,-15529 0,-2210 -275,-4477 -740,-6754 -531,-2343 -1338,-4420 -2542,-6431l-42364 -62370 29179 -20822 74085 108026c2685,4420 4686,7295 6024,8632 1347,1338 3017,2011 4961,2011l10975 0c6090,0 10710,1537 13850,4686 3149,2941 4752,7361 4752,13185 0,5815 -1670,10368 -4952,13650 -3282,3282 -7826,4952 -13650,4952zm24104 0l-24094 0c-5824,0 -10444,-1670 -13850,-5084 -3415,-3216 -5160,-7703 -5160,-13517 0,-5625 1745,-9979 5160,-13185 3405,-3149 8025,-4686 13850,-4686l24094 0c3149,0 6156,-674 8964,-2011 2751,-1338 5293,-3216 7437,-5483 2201,-2343 3946,-4961 5151,-7902 1205,-2874 1802,-5957 1802,-9107l0 -58026 36549 0 0 59098c0,8035 -1613,15661 -4752,22823 -3216,7228 -7503,13517 -12986,19010 -5492,5492 -11848,9837 -19143,13119 -7295,3282 -14988,4952 -23022,4952zm-7684 41966l33590 0 0 34330 -33590 0 0 -34330zm251568 23762c-13385,0 -26039,-2552 -37811,-7703 -11782,-5084 -22159,-12114 -31057,-20945 -8831,-8907 -15861,-19275 -20954,-31057 -5151,-11782 -7693,-24426 -7693,-37811l0 -57627 36540 0 0 57627c0,8566 1546,16525 4752,23962 3149,7428 7503,13916 13119,19541 5625,5549 12114,10036 19541,13318 7437,3273 15263,4885 23563,4885 8234,0 16060,-1613 23354,-4885 7295,-3282 13660,-7835 19143,-13517 5492,-5758 9837,-12322 13119,-19750 3282,-7428 4952,-15253 4952,-23554l0 -81390 36881 0 0 51869c0,7029 2277,12920 6963,17672 4610,4752 10435,7162 17464,7162 7096,0 13053,-2476 17938,-7361 4819,-4819 7295,-10710 7295,-17473l0 -51869 36142 0 0 52201c465,7096 3073,12920 7826,17540 4752,4620 10510,6963 17340,6963l16458 0 0 -86540 37213 0 0 123014 -53672 0c-7769,0 -15529,-1603 -23155,-4752 -7703,-3149 -14058,-7560 -19209,-13119 -5824,5559 -12588,9970 -20215,13119 -7693,3149 -15661,4752 -23962,4752 -9970,0 -19209,-2343 -27708,-6963 -2675,10510 -7029,20148 -12986,29046 -5957,8907 -13119,16534 -21552,23022 -8367,6431 -17596,11450 -27708,15130 -10103,3681 -20746,5492 -31920,5492zm181789 -263966l-33599 0 0 -34339 33599 0 0 34339zm28439 56214l-33931 0 0 -34671 33931 0 0 34671zm-56546 0l-33931 0 0 -34671 33931 0 0 34671zm121212 231107l-9173 -31389 6223 -2210c7560,-3149 14921,-6289 22083,-9505 7162,-3140 13461,-7029 18811,-11649 10710,-9031 16060,-21410 16060,-37270l0 -122616 36483 0 0 123014c-674,13850 -3216,25631 -7437,35202 -4278,9638 -9970,17872 -17198,24635 -7162,6820 -15728,12578 -25697,17198 -9970,4620 -21087,8765 -33267,12379l-6887 2210zm206604 -89083l-17872 0c-8300,0 -16069,-1603 -23364,-4752 -7295,-3149 -13650,-7428 -19000,-12787 -5360,-5350 -9638,-11639 -12787,-18934 -3149,-7361 -4752,-15130 -4752,-23430l0 -155475 35810 0 0 155883c0,6289 2277,11706 6896,16259 4610,4487 10368,6763 17198,6763l17872 0c5616,0 10103,1537 13517,4686 3415,3206 5084,7560 5084,13185 0,5815 -1603,10368 -4885,13650 -3349,3282 -7902,4952 -13717,4952zm171601 0l-171601 0c-5625,0 -10036,-1736 -13318,-5284 -3282,-3548 -4952,-8101 -4952,-13726 0,-5549 1670,-9903 4952,-12910 3282,-3083 7693,-4553 13318,-4553l29587 0c-4620,-9040 -6963,-18744 -6963,-29255 0,-9230 1736,-17796 5151,-25697 3349,-7959 8035,-14855 14058,-20812 5957,-5957 12910,-10643 20945,-14058 8035,-3415 16534,-5151 25565,-5151 9239,0 17805,1736 25773,5151 7892,3415 14789,8101 20746,14058 6024,5957 10710,12853 14049,20812 3415,7902 5160,16468 5160,25697 0,10710 -2210,20480 -6564,29255l24094 0c5824,0 10378,1470 13660,4553 3273,3007 4952,7361 4952,12910 0,5625 -1745,10178 -5160,13726 -3339,3548 -7892,5284 -13451,5284zm-83268 -94907c-19209,0 -28847,9704 -28847,29179 0,19484 9638,29255 28847,29255 19209,0 28847,-9771 28847,-29255 0,-19475 -9638,-29179 -28847,-29179zm-17521 -101538l33599 0 0 34339 -33599 0 0 -34339zm348277 196445l-51803 0c-16325,0 -30184,-5692 -41624,-17132 -10975,11440 -24967,17132 -41966,17132 -7835,0 -15329,-1537 -22491,-4553 -7162,-3073 -13584,-7361 -19143,-12986 -11706,11715 -25830,17540 -42364,17540l-28107 0c-5625,0 -10103,-1670 -13517,-4952 -3415,-3282 -5084,-7835 -5084,-13650 0,-5824 1670,-10245 5084,-13185 3140,-3149 7693,-4686 13517,-4686l28107 0c7029,0 12853,-2277 17340,-6763 4477,-4553 6754,-10036 6754,-16667l0 -51063 36483 0 0 55483c0,4354 930,7760 2741,10235 1869,2409 4013,4288 6621,5625 2542,1338 5227,2210 8035,2542 2741,408 5018,607 6697,607 6621,0 12047,-2277 16458,-6763 4354,-4553 6830,-10169 7295,-16999l0 -50731 35411 0 398 53672c0,6299 1802,11383 5416,15130 3681,3747 8642,5692 14997,5692l18270 0 0 -83258 36474 0 0 119732zm181391 73023c-13119,0 -25498,-2485 -37014,-7503 -11573,-4952 -21619,-11772 -30118,-20414 -8566,-8632 -15263,-18735 -20281,-30317 -5018,-11573 -7494,-23819 -7494,-36673l0 -56622 36540 0 0 56622c0,8035 1546,15529 4752,22624 3149,7020 7361,13185 12588,18403 5217,5284 11374,9439 18403,12645 7096,3149 14589,4686 22624,4686 8300,0 15993,-1470 23222,-4553 7162,-3007 13451,-7152 18811,-12379 5350,-5217 9571,-11440 12778,-18602 3149,-7228 4686,-14789 4686,-22823l0 -79246 35478 0 0 79246c0,13119 -2485,25498 -7371,37014 -4819,11573 -11573,21685 -20205,30317 -8632,8632 -18744,15386 -30317,20281 -11582,4885 -23895,7295 -37081,7295zm-17132 -190545l33590 0 0 34263 -33590 0 0 -34263zm201520 117522l-52941 0 0 -36474 52941 0c5350,0 10444,-1072 15197,-3149 4686,-2077 8831,-4885 12379,-8367 3548,-3548 6356,-7693 8367,-12446 2077,-4752 3140,-9771 3140,-15130l0 -129967 36483 0 0 129967c0,10444 -1945,20347 -5824,29587 -3880,9239 -9239,17264 -16060,24094 -6830,6830 -14865,12180 -24094,16060 -9239,3880 -19076,5824 -29587,5824zm-30649 -48929l-37621 -151519 35411 -8367 37280 151519 -35070 8367zm171260 48929l-36540 0 0 -215379 36540 0 0 215379z"/>
 </g>
</svg>
