<?xml version="1.0" encoding="UTF-8"?>
<!DOCTYPE svg PUBLIC "-//W3C//DTD SVG 1.1//EN" "http://www.w3.org/Graphics/SVG/1.1/DTD/svg11.dtd">
<!-- Creator: CorelDRAW 2018 (64-Bit) -->
<svg xmlns="http://www.w3.org/2000/svg" xml:space="preserve" width="38.4618mm" height="6.146mm" version="1.1" style="shape-rendering:geometricPrecision; text-rendering:geometricPrecision; image-rendering:optimizeQuality; fill-rule:evenodd; clip-rule:evenodd"
viewBox="0 0 284214 45416"
 xmlns:xlink="http://www.w3.org/1999/xlink">
 <defs>
  <style type="text/css">
   <![CDATA[
    .fil0 {fill:#FEFEFE}
    .fil1 {fill:#E5097F;fill-rule:nonzero}
   ]]>
  </style>
 </defs>
 <g id="Слой_x0020_1">
  <metadata id="CorelCorpID_0Corel-Layer"/>
  <polygon class="fil0" points="0,0 284214,0 240015,45416 0,45416 "/>
  <path class="fil1" d="M50152 29267l-799 0c-932,0 -1807,-208 -2614,-626 -806,-417 -1502,-994 -2085,-1724 -730,758 -1578,1342 -2538,1745 -966,403 -1974,604 -3038,604l-11755 0c-1085,0 -2107,-202 -3073,-604 -960,-403 -1793,-960 -2503,-1669 -702,-709 -1258,-1544 -1669,-2503 -403,-959 -604,-1988 -604,-3073l0 -4588 3719 0 0 4547c0,556 104,1091 319,1598 216,501 508,938 876,1307 361,361 800,653 1306,869 501,215 1050,327 1627,327l11755 -41c585,0 1126,-98 1634,-306 501,-202 938,-487 1307,-848 368,-369 653,-800 869,-1293 215,-494 327,-1015 327,-1571l0 -4588 3712 0 0 6410c0,577 244,1098 723,1550 480,459 1049,688 1703,688l799 0c605,0 1071,160 1405,487 354,305 528,764 528,1369 0,604 -167,1077 -515,1418 -341,341 -813,514 -1418,514zm-11789 -12437l-3531 0 0 -3601 3531 0 0 3601zm-5881 0l-3525 0 0 -3601 3525 0 0 3601zm36210 12437l-18540 0c-604,0 -1077,-174 -1425,-514 -340,-341 -507,-814 -507,-1418 0,-584 174,-1036 528,-1369 354,-327 820,-487 1404,-487l3337 0c-556,-967 -834,-2141 -834,-3531 0,-987 188,-1912 570,-2787 375,-869 897,-1627 1550,-2273 661,-647 1425,-1148 2294,-1516 876,-369 1807,-549 2788,-549l6826 0 0 7431 -3601 0 -153 -3719 -2954 0c-1036,0 -1898,334 -2580,987 -681,661 -1021,1467 -1021,2426 0,1015 327,1856 980,2524 661,667 1495,1008 2503,1008l8835 0c556,0 1029,160 1405,487 354,354 528,813 528,1369 0,604 -167,1077 -508,1418 -341,341 -814,514 -1425,514zm12895 0c-1043,0 -2086,-112 -3149,-341 -1063,-229 -1932,-681 -2620,-1363 -1210,1134 -2628,1703 -4241,1703l-2920 0c-612,0 -1085,-174 -1425,-514 -340,-341 -514,-814 -514,-1418 0,-605 167,-1064 494,-1369 334,-327 814,-487 1446,-487l2920 0c653,0 1224,-251 1703,-744 480,-494 723,-1091 723,-1800l0 -5992 3789 0 0 6103c0,661 236,1231 702,1711 466,480 1043,723 1724,723l1856 0c612,0 1077,160 1404,487 355,305 536,764 536,1369 0,806 -236,1335 -702,1571 -473,243 -1043,361 -1724,361zm-11192 4400l3531 0 0 3601 -3531 0 0 -3601zm5881 0l3525 0 0 3601 -3525 0 0 -3601zm17323 -4400c-1063,0 -2002,-104 -2822,-320 -820,-215 -1585,-681 -2294,-1383 -1217,1134 -2628,1703 -4247,1703l-2162 0c-604,0 -1077,-174 -1425,-514 -340,-341 -507,-814 -507,-1418 0,-605 160,-1064 494,-1369 327,-327 806,-487 1439,-487l2162 0c653,0 1223,-251 1703,-744 480,-494 723,-1091 723,-1800l0 -5992 3789 0 0 6103c0,661 236,1231 702,1711 473,480 1043,723 1731,723l716 0c605,0 1077,160 1405,487 354,305 528,764 528,1369 0,604 -174,1077 -528,1418 -355,341 -820,514 -1405,514zm-7167 4358l3490 0 0 3566 -3490 0 0 -3566zm20173 -4358l-13006 0c-604,0 -1077,-174 -1425,-514 -340,-341 -507,-814 -507,-1418 0,-584 174,-1036 528,-1369 354,-327 820,-487 1404,-487l2732 0 -2238 -3038 2732 -2162c556,-576 834,-1210 834,-1890l0 -11491 3677 0 0 9670 77 -42c681,-576 1453,-1015 2308,-1306 862,-292 1745,-438 2656,-438 1292,0 2405,216 3336,647 938,431 1710,987 2315,1669 604,681 1057,1453 1349,2314 285,856 431,1731 431,2614 0,987 -188,1918 -570,2787 -375,876 -897,1640 -1550,2294 -661,661 -1425,1182 -2294,1571 -876,397 -1800,591 -2787,591zm-10198 -3789l10198 0c480,0 932,-98 1349,-285 418,-194 779,-451 1099,-778 313,-327 570,-702 757,-1120 188,-417 285,-869 285,-1349 0,-987 -348,-1800 -1043,-2447 -695,-640 -1599,-967 -2711,-967 -960,0 -1807,292 -2544,876l-7390 6069zm23921 13041l-953 -3260 647 -229c786,-327 1550,-654 2294,-987 744,-327 1397,-730 1954,-1210 1112,-938 1669,-2224 1669,-3872l0 -12735 3789 0 0 12777c-69,1439 -334,2662 -771,3656 -446,1001 -1036,1856 -1787,2558 -744,709 -1634,1306 -2670,1786 -1035,480 -2190,911 -3455,1287l-716 229zm20396 -9252l-8265 0 0 -3789 8265 0c661,0 1224,-229 1703,-688 486,-452 723,-995 723,-1627 0,-459 -97,-869 -284,-1230 -188,-368 -445,-653 -779,-855l-6750 -4664 1974 -3073c77,49 292,194 647,437 355,236 765,515 1230,834 466,313 981,654 1536,1022 556,369 1077,723 1571,1064 494,341 924,639 1293,890 369,250 612,431 737,528 814,556 1439,1272 1877,2148 445,868 667,1835 667,2898 0,834 -167,1620 -494,2350 -333,730 -778,1377 -1349,1932 -570,556 -1216,1001 -1953,1328 -730,327 -1516,494 -2350,494zm29503 10656l-8120 0c-1008,0 -1946,-194 -2822,-570 -869,-382 -1626,-897 -2273,-1557 -647,-653 -1161,-1418 -1536,-2294 -383,-869 -570,-1814 -570,-2822l0 -9405 3796 0 0 9405c0,1008 327,1849 980,2524 661,667 1467,1001 2426,1001l7925 0c459,-21 904,-112 1328,-265 431,-153 820,-375 1161,-661 341,-292 611,-647 813,-1063 202,-417 306,-890 306,-1425 0,-883 -278,-1655 -834,-2308 -556,-660 -1279,-1063 -2161,-1216l-6486 0 0 -3789 14369 0c584,0 1049,160 1404,487 355,333 528,786 528,1369 0,604 -167,1077 -508,1418 -341,341 -814,514 -1425,514l-2121 0c681,938 1022,2113 1022,3525 0,1494 -466,2920 -1404,4289l-35 35c-709,883 -1564,1571 -2558,2065 -1001,494 -2071,743 -3205,743zm22864 -10656c-535,0 -1147,-28 -1842,-76 -695,-49 -1397,-140 -2106,-265 -709,-125 -1369,-299 -1988,-514 -619,-216 -1105,-500 -1460,-848 -1216,1134 -2628,1703 -4247,1703l-2920 0c-604,0 -1077,-174 -1425,-514 -340,-341 -507,-814 -507,-1418 0,-605 160,-1064 494,-1369 327,-327 806,-487 1439,-487l2920 0c661,0 1224,-251 1703,-744 486,-494 723,-1091 723,-1800l0 -5992 3796 0 0 6103c0,661 229,1231 695,1711 473,480 1043,723 1731,723l2996 0c605,0 1071,160 1397,487 355,305 536,764 536,1369 0,604 -181,1077 -536,1418 -355,341 -820,514 -1397,514zm-2697 -14751l-3524 0 0 -3601 3524 0 0 3601zm-5874 0l-3524 0 0 -3601 3524 0 0 3601zm17935 14751l-9364 0c-584,0 -1057,-174 -1425,-514 -361,-341 -549,-800 -549,-1383 0,-556 188,-1008 549,-1363 369,-355 842,-528 1425,-528l9329 0c653,0 1279,-167 1877,-494 590,-333 1119,-786 1571,-1369l2391 -3031 -4512 -2127c-480,-251 -1035,-375 -1668,-375 -1516,0 -2899,806 -4137,2426l-375 528 -2996 -1592 417 -681c779,-1363 1752,-2440 2899,-3226 1147,-779 2538,-1175 4150,-1175 1217,0 2343,243 3378,723 577,278 1203,577 1877,890 667,320 1293,612 1877,890 681,334 1363,661 2044,987 431,230 973,341 1634,341l2655 0 0 3643c-431,48 -890,97 -1369,132 -480,35 -932,56 -1363,56 -382,0 -709,-35 -987,-112l-2877 4053c-1544,2204 -3692,3302 -6451,3302zm19117 0l-3795 0 0 -22370 3795 0 0 22370zm1328 9252l-953 -3260 647 -229c786,-327 1550,-654 2294,-987 744,-327 1397,-730 1954,-1210 1112,-938 1669,-2224 1669,-3872l0 -12735 3789 0 0 12777c-69,1439 -334,2662 -771,3656 -446,1001 -1036,1856 -1787,2558 -744,709 -1634,1306 -2670,1786 -1035,480 -2190,911 -3455,1287l-716 229z"/>
 </g>
</svg>
