<?xml version="1.0" encoding="UTF-8"?>
<!DOCTYPE svg PUBLIC "-//W3C//DTD SVG 1.1//EN" "http://www.w3.org/Graphics/SVG/1.1/DTD/svg11.dtd">
<!-- Creator: CorelDRAW 2018 (64-Bit) -->
<svg xmlns="http://www.w3.org/2000/svg" xml:space="preserve" width="52.3618mm" height="12.5296mm" version="1.1" style="shape-rendering:geometricPrecision; text-rendering:geometricPrecision; image-rendering:optimizeQuality; fill-rule:evenodd; clip-rule:evenodd"
viewBox="0 0 526763 126049"
 xmlns:xlink="http://www.w3.org/1999/xlink">
 <defs>
  <style type="text/css">
   <![CDATA[
    .str0 {stroke:#FEFEFE;stroke-width:2555;stroke-miterlimit:22.9256}
    .fil0 {fill:#FEFEFE}
    .fil2 {fill:#E5097F}
    .fil3 {fill:#FEFEFE;fill-rule:nonzero}
    .fil1 {fill:#E5097F;fill-rule:nonzero}
   ]]>
  </style>
 </defs>
 <g id="Слой_x0020_1">
  <metadata id="CorelCorpID_0Corel-Layer"/>
  <polygon class="fil0" points="0,0 526763,0 477621,50496 0,50496 "/>
  <path class="fil1" d="M36062 40031c-1391,0 -2704,-264 -3925,-796 -1227,-525 -2293,-1248 -3194,-2165 -908,-915 -1619,-1987 -2151,-3215 -532,-1227 -795,-2526 -795,-3889l0 -6005 3875 0 0 6005c0,852 164,1647 504,2399 334,744 781,1398 1335,1952 553,560 1206,1001 1952,1341 752,334 1547,497 2399,497 880,0 1696,-156 2463,-483 760,-319 1427,-759 1995,-1313 567,-553 1015,-1213 1355,-1973 334,-767 497,-1568 497,-2420l0 -8404 3762 0 0 8404c0,1391 -264,2704 -782,3925 -511,1227 -1227,2300 -2143,3215 -915,915 -1988,1632 -3215,2151 -1228,518 -2534,774 -3932,774zm-1817 -20208l3562 0 0 3634 -3562 0 0 -3634zm23232 12463l-8439 0 0 -3868 8439 0c674,0 1248,-234 1738,-703 497,-461 738,-1015 738,-1661 0,-468 -100,-887 -291,-1257 -192,-375 -455,-667 -796,-872l-6891 -4763 2015 -3137c78,49 299,198 661,447 361,241 781,525 1255,852 476,320 1001,667 1569,1043 567,376 1100,738 1604,1086 504,347 945,653 1320,908 376,256 625,440 752,539 831,567 1470,1299 1916,2193 455,887 682,1874 682,2960 0,852 -171,1654 -504,2399 -341,745 -796,1405 -1377,1973 -582,568 -1242,1022 -1995,1356 -744,334 -1547,504 -2398,504zm16069 -10065c-411,0 -809,86 -1178,248 -376,171 -703,397 -987,682 -284,284 -511,610 -681,986 -164,376 -248,781 -248,1221 0,851 298,1568 908,2165 604,596 1334,894 2186,894l3138 0 0 -3059c0,-852 -313,-1590 -931,-2207 -618,-625 -1355,-931 -2207,-931zm2981 10917c29,-128 50,-248 78,-348 0,-78 7,-170 21,-270 14,-107 14,-185 14,-234l-3094 0c-951,0 -1852,-177 -2690,-539 -838,-362 -1568,-859 -2186,-1491 -618,-632 -1115,-1370 -1470,-2207 -361,-838 -546,-1739 -546,-2690 0,-930 185,-1824 546,-2676 355,-852 852,-1598 1470,-2243 618,-646 1348,-1157 2186,-1533 838,-369 1739,-560 2690,-560 980,0 1888,184 2732,546 838,362 1569,866 2186,1505 618,646 1108,1391 1470,2228 362,838 539,1746 539,2733l0 3059 1860 0c625,0 1100,163 1434,497 362,340 539,802 539,1398 0,617 -170,1100 -518,1448 -348,348 -830,525 -1455,525l-1860 0c-149,2683 -1171,4841 -3052,6467 -390,333 -823,632 -1299,886 -476,264 -972,490 -1469,703 -504,206 -1015,383 -1533,539 -518,156 -994,299 -1435,427 -128,49 -263,92 -404,113 -142,29 -277,64 -404,121l-738 227 -1043 -3329 731 -270c135,-49 277,-100 426,-156 156,-50 313,-100 469,-156 724,-256 1462,-526 2228,-810 760,-284 1398,-646 1916,-1085 590,-462 994,-966 1214,-1512 220,-539 369,-980 447,-1313zm8326 -852l-2555 0c-618,0 -1108,-177 -1469,-539 -362,-341 -547,-817 -547,-1434 0,-597 185,-1058 547,-1398 361,-334 851,-497 1469,-497l2555 0c334,0 653,-71 951,-213 292,-142 561,-341 789,-581 233,-248 418,-526 546,-838 128,-305 191,-632 191,-966l0 -6154 3876 0 0 6267c0,852 -171,1661 -504,2420 -341,767 -796,1434 -1377,2016 -582,582 -1257,1043 -2030,1391 -774,348 -1589,525 -2442,525zm-816 4451l3562 0 0 3641 -3562 0 0 -3641zm32644 -4451l-782 0c-851,0 -1675,-163 -2477,-483 -795,-326 -1498,-809 -2086,-1455 -646,646 -1391,1129 -2229,1455 -837,320 -1710,483 -2612,483 -959,0 -1853,-177 -2690,-539 -838,-362 -1568,-852 -2186,-1477 -625,-618 -1115,-1348 -1477,-2186 -355,-837 -539,-1731 -539,-2690 0,-980 177,-1888 525,-2725 348,-845 831,-1568 1448,-2193 625,-618 1349,-1108 2187,-1470 844,-362 1752,-539 2732,-539l35 0 3102 114 0 -1661 3791 0 0 9014c0,724 241,1321 717,1782 482,469 1064,703 1760,703l782 0c589,0 1064,163 1427,497 362,340 546,802 546,1398 0,617 -177,1100 -525,1448 -348,348 -831,525 -1448,525zm-10186 -10029c-411,0 -809,85 -1178,256 -376,163 -703,397 -987,695 -284,298 -511,632 -681,1008 -171,369 -248,767 -248,1178 0,411 77,816 248,1199 170,391 397,724 681,1008 284,285 611,511 987,675 369,170 767,256 1178,256 852,0 1575,-306 2165,-908 597,-611 894,-1349 894,-2229l77 -3137 -3137 0zm12741 10029l-2555 0c-618,0 -1108,-177 -1469,-539 -362,-341 -547,-817 -547,-1434 0,-597 185,-1058 547,-1398 361,-334 851,-497 1469,-497l2555 0c334,0 653,-71 951,-213 292,-142 561,-341 789,-581 233,-248 418,-526 546,-838 128,-305 191,-632 191,-966l0 -6154 3876 0 0 6267c0,852 -171,1661 -504,2420 -341,767 -796,1434 -1377,2016 -582,582 -1257,1043 -2030,1391 -774,348 -1589,525 -2442,525zm2634 -18739l3562 0 0 3642 -3562 0 0 -3642zm15062 18739l-1895 0c-880,0 -1704,-170 -2478,-504 -774,-334 -1448,-788 -2015,-1356 -568,-567 -1022,-1234 -1356,-2008 -334,-781 -504,-1605 -504,-2485l0 -16488 3798 0 0 16532c0,667 241,1241 731,1724 489,476 1100,717 1824,717l1895 0c596,0 1071,163 1434,497 362,340 539,802 539,1398 0,617 -170,1100 -518,1448 -355,348 -838,525 -1455,525zm9561 0l-9561 0c-597,0 -1078,-177 -1455,-525 -369,-348 -561,-816 -561,-1412 0,-568 192,-1029 561,-1391 376,-362 858,-539 1455,-539l9525 0c668,0 1307,-171 1916,-504 604,-341 1143,-802 1605,-1398l2442 -3094 -4607 -2172c-490,-256 -1057,-383 -1703,-383 -1547,0 -2960,823 -4223,2477l-383 539 -3059 -1625 426 -696c795,-1391 1789,-2491 2960,-3294 1171,-795 2591,-1199 4237,-1199 1242,0 2392,248 3450,738 590,284 1228,589 1916,908 682,326 1321,625 1916,908 696,341 1391,674 2087,1008 440,234 993,348 1668,348l2711 0 0 3719c-441,49 -908,99 -1398,135 -490,35 -951,56 -1391,56 -390,0 -724,-35 -1008,-114l-2939 4139c-1575,2249 -3769,3371 -6586,3371zm-1974 -20790l3563 0 0 3642 -3563 0 0 -3642zm21955 30238l-973 -3329 660 -234c802,-334 1582,-667 2342,-1008 760,-333 1428,-745 1995,-1235 1136,-958 1703,-2271 1703,-3953l0 -13004 3869 0 0 13046c-71,1469 -341,2718 -789,3733 -454,1022 -1057,1895 -1824,2613 -760,723 -1668,1334 -2725,1824 -1057,490 -2236,930 -3528,1313l-730 234zm20825 -9447l-8439 0 0 -3868 8439 0c674,0 1248,-234 1738,-703 497,-461 738,-1015 738,-1661 0,-468 -100,-887 -291,-1257 -192,-375 -455,-667 -796,-872l-6891 -4763 2015 -3137c78,49 299,198 661,447 361,241 781,525 1255,852 476,320 1001,667 1569,1043 567,376 1100,738 1604,1086 504,347 945,653 1320,908 376,256 625,440 752,539 831,567 1470,1299 1916,2193 455,887 682,1874 682,2960 0,852 -171,1654 -504,2399 -341,745 -796,1405 -1377,1973 -582,568 -1242,1022 -1995,1356 -744,334 -1547,504 -2398,504zm25595 6971c-1419,0 -2761,-271 -4010,-817 -1249,-539 -2350,-1285 -3294,-2221 -937,-945 -1682,-2044 -2222,-3294 -546,-1249 -816,-2590 -816,-4010l0 -6111 3875 0 0 6111c0,908 164,1752 504,2541 334,788 796,1476 1391,2072 597,589 1285,1064 2072,1412 789,347 1619,518 2499,518 873,0 1703,-171 2477,-518 774,-348 1449,-831 2030,-1434 582,-611 1043,-1307 1391,-2095 348,-788 525,-1618 525,-2498l0 -8632 3911 0 0 5501c0,745 241,1370 738,1874 489,504 1107,760 1852,760 752,0 1384,-263 1902,-781 511,-511 774,-1136 774,-1853l0 -5501 3833 0 0 5536c49,752 326,1370 830,1860 504,490 1115,738 1839,738l1745 0 0 -9178 3947 0 0 13046 -5692 0c-824,0 -1647,-170 -2456,-504 -817,-334 -1491,-802 -2037,-1391 -618,590 -1335,1057 -2144,1391 -816,334 -1661,504 -2541,504 -1057,0 -2037,-248 -2939,-738 -284,1115 -745,2137 -1377,3080 -632,945 -1391,1753 -2286,2442 -887,682 -1866,1214 -2939,1605 -1071,390 -2200,582 -3385,582zm39138 -6971l-1895 0c-880,0 -1704,-170 -2478,-504 -774,-334 -1448,-788 -2015,-1356 -568,-567 -1022,-1234 -1356,-2008 -334,-781 -504,-1605 -504,-2485l0 -16488 3798 0 0 16532c0,667 241,1241 731,1724 489,476 1100,717 1824,717l1895 0c596,0 1071,163 1434,497 362,340 539,802 539,1398 0,617 -170,1100 -518,1448 -355,348 -838,525 -1455,525zm29620 0l-1008 0c-852,0 -1675,-163 -2456,-483 -789,-326 -1484,-781 -2073,-1377 -625,597 -1327,1051 -2115,1377 -781,320 -1619,483 -2492,483 -830,0 -1647,-163 -2463,-483 -809,-326 -1512,-781 -2108,-1377 -1293,1242 -2840,1860 -4650,1860 -1001,0 -1959,-234 -2860,-695 -597,-263 -1150,-646 -1668,-1165 -1292,1242 -2825,1860 -4607,1860l-1157 0c-597,0 -1072,-177 -1434,-539 -362,-362 -547,-845 -547,-1434 0,-597 185,-1058 547,-1398 361,-334 837,-497 1434,-497l1157 0c752,0 1377,-256 1880,-760 504,-504 752,-1129 752,-1874l0 -5501 3947 0 0 5501c0,745 248,1370 738,1874 490,504 1101,760 1817,760 781,0 1419,-256 1938,-760 518,-504 774,-1129 774,-1874l0 -5501 3833 0 0 5501c0,717 263,1342 774,1853 518,518 1150,781 1902,781 745,0 1377,-263 1895,-781 518,-511 774,-1136 774,-1853l0 -6353 3868 0 0 6431c0,695 263,1292 782,1796 511,504 1121,760 1817,760l1008 0c646,0 1135,163 1469,497 334,312 504,781 504,1398 0,617 -177,1100 -525,1448 -348,348 -831,525 -1448,525zm9561 0l-9561 0c-597,0 -1078,-177 -1455,-525 -369,-348 -561,-816 -561,-1412 0,-568 192,-1029 561,-1391 376,-362 858,-539 1455,-539l9525 0c668,0 1307,-171 1916,-504 604,-341 1143,-802 1605,-1398l2442 -3094 -4607 -2172c-490,-256 -1057,-383 -1703,-383 -1547,0 -2960,823 -4223,2477l-383 539 -3059 -1625 426 -696c795,-1391 1789,-2491 2960,-3294 1171,-795 2591,-1199 4237,-1199 1242,0 2392,248 3450,738 590,284 1228,589 1916,908 682,326 1321,625 1916,908 696,341 1391,674 2087,1008 440,234 993,348 1668,348l2711 0 0 3719c-441,49 -908,99 -1398,135 -490,35 -951,56 -1391,56 -390,0 -724,-35 -1008,-114l-2939 4139c-1575,2249 -3769,3371 -6586,3371zm19519 0l-3875 0 0 -22841 3875 0 0 22841zm14786 -3833c362,234 646,532 852,908 205,376 312,781 312,1221 0,802 -291,1462 -873,1994 -581,525 -1285,795 -2108,795 -831,0 -1540,-270 -2130,-795 -597,-532 -894,-1192 -894,-1994 0,-412 100,-838 291,-1278 192,-441 497,-1058 909,-1860 184,-362 411,-823 681,-1391 270,-567 546,-1136 830,-1703l3719 0 -1589 4102zm36817 3833l-816 0c-952,0 -1846,-213 -2669,-639 -824,-426 -1533,-1015 -2130,-1761 -745,774 -1611,1370 -2590,1782 -987,411 -2016,618 -3102,618l-12003 0c-1108,0 -2151,-206 -3138,-618 -979,-411 -1831,-979 -2555,-1703 -716,-724 -1285,-1575 -1703,-2555 -411,-980 -618,-2030 -618,-3138l0 -4684 3798 0 0 4642c0,567 107,1115 326,1633 220,511 518,958 894,1334 369,369 817,667 1335,887 511,220 1071,334 1661,334l12003 -43c596,0 1150,-99 1668,-312 511,-206 958,-497 1334,-866 376,-376 667,-816 887,-1320 220,-504 334,-1036 334,-1605l0 -4684 3790 0 0 6544c0,589 248,1122 738,1582 490,469 1071,703 1739,703l816 0c618,0 1094,163 1434,497 362,312 539,781 539,1398 0,617 -170,1100 -525,1448 -347,348 -830,525 -1448,525zm-12038 -12698l-3606 0 0 -3677 3606 0 0 3677zm-6005 0l-3598 0 0 -3677 3598 0 0 3677zm36973 12698l-18930 0c-618,0 -1101,-177 -1455,-525 -348,-348 -518,-831 -518,-1448 0,-597 177,-1058 539,-1398 362,-334 837,-497 1434,-497l3407 0c-568,-987 -852,-2186 -852,-3606 0,-1008 191,-1953 582,-2847 383,-887 915,-1661 1582,-2321 674,-660 1455,-1171 2342,-1547 894,-376 1846,-560 2846,-560l6971 0 0 7587 -3677 0 -156 -3798 -3017 0c-1057,0 -1938,341 -2633,1008 -696,674 -1043,1498 -1043,2478 0,1036 333,1894 1000,2576 675,681 1526,1029 2555,1029l9022 0c567,0 1050,163 1434,497 362,361 539,830 539,1398 0,617 -170,1100 -518,1448 -347,348 -830,525 -1455,525zm13167 0c-1064,0 -2130,-114 -3215,-348 -1086,-234 -1974,-695 -2676,-1391 -1235,1157 -2683,1739 -4330,1739l-2981 0c-625,0 -1108,-177 -1456,-525 -347,-348 -525,-831 -525,-1448 0,-618 171,-1086 504,-1398 341,-334 831,-497 1477,-497l2981 0c667,0 1249,-256 1739,-760 489,-504 737,-1115 737,-1839l0 -6118 3869 0 0 6231c0,675 241,1257 716,1746 476,490 1065,738 1761,738l1895 0c625,0 1100,163 1434,497 362,312 546,781 546,1398 0,823 -241,1362 -716,1604 -483,248 -1065,369 -1761,369zm-11427 4493l3606 0 0 3677 -3606 0 0 -3677zm6005 0l3598 0 0 3677 -3598 0 0 -3677zm17688 -4493c-1085,0 -2044,-107 -2882,-327 -837,-219 -1618,-695 -2342,-1412 -1242,1157 -2683,1739 -4337,1739l-2207 0c-618,0 -1101,-177 -1455,-525 -348,-348 -518,-831 -518,-1448 0,-618 163,-1086 504,-1398 333,-334 823,-497 1469,-497l2207 0c667,0 1249,-256 1739,-760 490,-504 738,-1115 738,-1839l0 -6118 3868 0 0 6231c0,675 241,1257 716,1746 483,490 1065,738 1768,738l731 0c618,0 1101,163 1434,497 362,312 539,781 539,1398 0,617 -177,1100 -539,1448 -362,348 -837,525 -1434,525zm-7318 4451l3563 0 0 3641 -3563 0 0 -3641zm20598 -4451l-13280 0c-618,0 -1101,-177 -1455,-525 -348,-348 -518,-831 -518,-1448 0,-597 177,-1058 539,-1398 362,-334 837,-497 1434,-497l2790 0 -2286 -3103 2790 -2207c567,-589 851,-1234 851,-1931l0 -11733 3755 0 0 9874 77 -43c696,-589 1484,-1036 2357,-1334 880,-298 1782,-448 2711,-448 1320,0 2456,220 3407,660 958,441 1745,1008 2363,1704 618,695 1079,1483 1377,2363 291,873 440,1768 440,2669 0,1008 -191,1959 -581,2846 -383,894 -915,1676 -1583,2343 -674,674 -1455,1206 -2342,1604 -894,404 -1838,604 -2846,604zm-10413 -3868l10413 0c490,0 951,-100 1377,-292 426,-198 795,-461 1121,-795 320,-333 582,-716 774,-1143 192,-426 292,-887 292,-1376 0,-1008 -355,-1839 -1065,-2499 -709,-653 -1632,-987 -2768,-987 -980,0 -1846,299 -2599,894l-7545 6197zm24425 13316l-973 -3329 660 -234c802,-334 1582,-667 2342,-1008 760,-333 1428,-745 1995,-1235 1136,-958 1703,-2271 1703,-3953l0 -13004 3869 0 0 13046c-71,1469 -341,2718 -789,3733 -454,1022 -1057,1895 -1824,2613 -760,723 -1668,1334 -2725,1824 -1057,490 -2236,930 -3528,1313l-730 234zm20825 -9447l-8439 0 0 -3868 8439 0c674,0 1248,-234 1738,-703 497,-461 738,-1015 738,-1661 0,-468 -100,-887 -291,-1257 -192,-375 -455,-667 -796,-872l-6891 -4763 2015 -3137c78,49 299,198 661,447 361,241 781,525 1255,852 476,320 1001,667 1569,1043 567,376 1100,738 1604,1086 504,347 945,653 1320,908 376,256 625,440 752,539 831,567 1470,1299 1916,2193 455,887 682,1874 682,2960 0,852 -171,1654 -504,2399 -341,745 -796,1405 -1377,1973 -582,568 -1242,1022 -1995,1356 -744,334 -1547,504 -2398,504z"/>
  <polygon class="fil2 str0" points="250757,74276 523731,74276 474589,124771 204631,124771 "/>
  <path class="fil3" d="M262579 107257c-923,0 -1810,-177 -2647,-525 -838,-348 -1576,-830 -2208,-1448 -632,-625 -1136,-1349 -1512,-2172 -376,-824 -560,-1704 -560,-2634 -28,-930 142,-1831 504,-2711 362,-873 880,-1647 1547,-2321l2172 -2207 -1129 -1122 2711 -2634 6005 6005c668,667 1172,1419 1505,2265 341,837 518,1710 546,2612 0,952 -184,1853 -546,2690 -355,838 -851,1569 -1490,2186 -632,618 -1363,1108 -2201,1470 -844,362 -1738,546 -2697,546zm-2279 -9099c-567,618 -844,1349 -816,2186 28,838 334,1554 930,2151 618,618 1370,930 2243,930 851,0 1561,-284 2129,-851 313,-313 540,-654 682,-1030 142,-375 212,-767 212,-1178 0,-411 -70,-809 -212,-1185 -142,-369 -369,-710 -682,-1022l-2207 -2207 -653 618c-128,128 -270,270 -411,411 -142,142 -284,284 -441,440 -128,128 -263,263 -390,390 -128,128 -256,241 -383,348zm29385 8439l-817 0c-1136,0 -2030,-241 -2690,-717 -660,-475 -1257,-1100 -1803,-1873l-227 -313c-596,952 -1362,1675 -2307,2165 -944,490 -1966,738 -3073,738l-7318 0 0 -3868 7318 0c668,0 1249,-241 1739,-717 490,-483 738,-1029 738,-1647 0,-234 -29,-475 -78,-716 -56,-248 -142,-469 -270,-682l-4493 -6614 3094 -2208 7857 11456c285,469 497,774 639,915 143,142 320,213 526,213l1164 0c646,0 1136,163 1469,497 334,312 504,781 504,1398 0,617 -177,1100 -525,1448 -348,348 -830,525 -1448,525zm2555 0l-2555 0c-618,0 -1108,-177 -1469,-539 -362,-341 -547,-817 -547,-1434 0,-597 185,-1058 547,-1398 361,-334 851,-497 1469,-497l2555 0c334,0 653,-71 951,-213 292,-142 561,-341 789,-581 233,-248 418,-526 546,-838 128,-305 191,-632 191,-966l0 -6154 3876 0 0 6267c0,852 -171,1661 -504,2420 -341,767 -796,1434 -1377,2016 -582,582 -1257,1043 -2030,1391 -774,348 -1589,525 -2442,525zm-816 4451l3562 0 0 3641 -3562 0 0 -3641zm26681 2520c-1419,0 -2761,-271 -4010,-817 -1249,-539 -2350,-1285 -3294,-2221 -937,-945 -1682,-2044 -2222,-3294 -546,-1249 -816,-2590 -816,-4010l0 -6111 3875 0 0 6111c0,908 164,1752 504,2541 334,788 796,1476 1391,2072 597,589 1285,1064 2072,1412 789,347 1619,518 2499,518 873,0 1703,-171 2477,-518 774,-348 1449,-831 2030,-1434 582,-611 1043,-1307 1391,-2095 348,-788 525,-1618 525,-2498l0 -8632 3911 0 0 5501c0,745 241,1370 738,1874 489,504 1107,760 1852,760 752,0 1384,-263 1902,-781 511,-511 774,-1136 774,-1853l0 -5501 3833 0 0 5536c49,752 326,1370 830,1860 504,490 1115,738 1839,738l1745 0 0 -9178 3947 0 0 13046 -5692 0c-824,0 -1647,-170 -2456,-504 -817,-334 -1491,-802 -2037,-1391 -618,590 -1335,1057 -2144,1391 -816,334 -1661,504 -2541,504 -1057,0 -2037,-248 -2939,-738 -284,1115 -745,2137 -1377,3080 -632,945 -1391,1753 -2286,2442 -887,682 -1866,1214 -2939,1605 -1071,390 -2200,582 -3385,582zm19278 -27994l-3563 0 0 -3642 3563 0 0 3642zm3016 5962l-3598 0 0 -3677 3598 0 0 3677zm-5998 0l-3598 0 0 -3677 3598 0 0 3677zm12855 24509l-973 -3329 660 -234c802,-334 1582,-667 2342,-1008 760,-333 1428,-745 1995,-1235 1136,-958 1703,-2271 1703,-3953l0 -13004 3869 0 0 13046c-71,1469 -341,2718 -789,3733 -454,1022 -1057,1895 -1824,2613 -760,723 -1668,1334 -2725,1824 -1057,490 -2236,930 -3528,1313l-730 234zm21912 -9447l-1895 0c-880,0 -1704,-170 -2478,-504 -774,-334 -1448,-788 -2015,-1356 -568,-567 -1022,-1234 -1356,-2008 -334,-781 -504,-1605 -504,-2485l0 -16488 3798 0 0 16532c0,667 241,1241 731,1724 489,476 1100,717 1824,717l1895 0c596,0 1071,163 1434,497 362,340 539,802 539,1398 0,617 -170,1100 -518,1448 -355,348 -838,525 -1455,525zm18199 0l-18199 0c-597,0 -1064,-184 -1412,-560 -348,-376 -525,-859 -525,-1456 0,-589 177,-1050 525,-1369 348,-327 816,-483 1412,-483l3138 0c-490,-959 -738,-1988 -738,-3103 0,-979 184,-1887 546,-2725 355,-844 852,-1575 1491,-2207 632,-632 1369,-1129 2221,-1491 852,-362 1753,-546 2711,-546 980,0 1888,184 2733,546 837,362 1568,859 2200,1491 639,632 1136,1363 1490,2207 362,838 547,1746 547,2725 0,1136 -234,2172 -696,3103l2555 0c618,0 1101,156 1449,483 347,319 525,781 525,1369 0,597 -185,1079 -547,1456 -354,376 -837,560 -1427,560zm-8830 -10065c-2037,0 -3059,1029 -3059,3094 0,2066 1022,3103 3059,3103 2037,0 3059,-1036 3059,-3103 0,-2065 -1022,-3094 -3059,-3094zm-1859 -10767l3563 0 0 3642 -3563 0 0 -3642zm36937 20832l-5494 0c-1731,0 -3201,-604 -4414,-1817 -1164,1213 -2648,1817 -4451,1817 -831,0 -1626,-163 -2385,-483 -760,-326 -1441,-781 -2030,-1377 -1241,1242 -2739,1860 -4493,1860l-2981 0c-597,0 -1071,-177 -1434,-525 -362,-348 -539,-831 -539,-1448 0,-618 177,-1086 539,-1398 333,-334 816,-497 1434,-497l2981 0c745,0 1363,-241 1839,-717 475,-483 716,-1064 716,-1768l0 -5415 3869 0 0 5884c0,462 99,823 291,1085 198,256 426,455 702,597 270,142 554,234 852,270 291,43 532,64 710,64 702,0 1278,-241 1745,-717 462,-483 724,-1078 774,-1803l0 -5380 3755 0 42 5692c0,668 191,1207 574,1605 390,397 916,604 1590,604l1938 0 0 -8830 3868 0 0 12698zm19236 7744c-1391,0 -2704,-264 -3925,-796 -1227,-525 -2293,-1248 -3194,-2165 -908,-915 -1619,-1987 -2151,-3215 -532,-1227 -795,-2526 -795,-3889l0 -6005 3875 0 0 6005c0,852 164,1647 504,2399 334,744 781,1398 1335,1952 553,560 1206,1001 1952,1341 752,334 1547,497 2399,497 880,0 1696,-156 2463,-483 760,-319 1427,-759 1995,-1313 567,-553 1015,-1213 1355,-1973 334,-767 497,-1568 497,-2420l0 -8404 3762 0 0 8404c0,1391 -264,2704 -782,3925 -511,1227 -1227,2300 -2143,3215 -915,915 -1988,1632 -3215,2151 -1228,518 -2534,774 -3932,774zm-1817 -20208l3562 0 0 3634 -3562 0 0 -3634zm21372 12463l-5615 0 0 -3868 5615 0c567,0 1108,-114 1612,-334 497,-220 937,-518 1313,-887 376,-376 674,-816 887,-1320 220,-504 333,-1036 333,-1605l0 -13783 3869 0 0 13783c0,1108 -206,2158 -618,3138 -411,980 -980,1831 -1703,2555 -724,724 -1576,1292 -2555,1703 -980,411 -2023,618 -3138,618zm-3250 -5189l-3990 -16069 3755 -887 3954 16069 -3719 887zm18162 5189l-3875 0 0 -22841 3875 0 0 22841z"/>
 </g>
</svg>
