<?xml version="1.0" encoding="UTF-8"?>
<!DOCTYPE svg PUBLIC "-//W3C//DTD SVG 1.1//EN" "http://www.w3.org/Graphics/SVG/1.1/DTD/svg11.dtd">
<!-- Creator: CorelDRAW 2018 (64-Bit) -->
<svg xmlns="http://www.w3.org/2000/svg" xml:space="preserve" width="41.4618mm" height="6.146mm" version="1.1" style="shape-rendering:geometricPrecision; text-rendering:geometricPrecision; image-rendering:optimizeQuality; fill-rule:evenodd; clip-rule:evenodd"
viewBox="0 0 3866422 573131"
 xmlns:xlink="http://www.w3.org/1999/xlink">
 <defs>
  <style type="text/css">
   <![CDATA[
    .fil0 {fill:#FEFEFE}
    .fil1 {fill:#E5097F;fill-rule:nonzero}
   ]]>
  </style>
 </defs>
 <g id="Слой_x0020_1">
  <metadata id="CorelCorpID_0Corel-Layer"/>
  <polygon class="fil0" points="0,0 3866422,0 3308650,573131 0,573131 "/>
  <path class="fil1" d="M912654 369336l-10081 0c-11759,0 -22800,-2620 -32983,-7898 -10174,-5259 -18958,-12542 -26316,-21756 -9213,9568 -19909,16935 -32032,22017 -12188,5082 -24908,7619 -38336,7619l-148346 0c-13689,0 -26586,-2546 -38784,-7619 -12114,-5082 -22623,-12114 -31585,-21066 -8859,-8943 -15872,-19480 -21066,-31585 -5082,-12104 -7619,-25085 -7619,-38784l0 -57901 46934 0 0 57378c0,7013 1315,13764 4029,20171 2723,6323 6406,11834 11050,16496 4560,4560 10099,8244 16478,10967 6323,2714 13251,4131 20534,4131l148346 -513c7386,0 14212,-1240 20618,-3861 6323,-2546 11834,-6145 16496,-10705 4644,-4653 8244,-10099 10967,-16319 2714,-6239 4131,-12813 4131,-19826l0 -57901 46841 0 0 80887c0,7283 3077,13857 9120,19564 6061,5791 13242,8682 21495,8682l10081 0c7637,0 13512,2024 17727,6145 4467,3851 6668,9642 6668,17280 0,7619 -2108,13587 -6500,17895 -4299,4299 -10258,6490 -17895,6490l28 9zm-148766 -156954l-44556 0 0 -45442 44556 0 0 45442zm-74220 0l-44482 0 0 -45442 44482 0 0 45442zm456957 156954l-233971 0c-7619,0 -13587,-2191 -17979,-6490 -4290,-4299 -6397,-10276 -6397,-17895 0,-7367 2191,-13074 6668,-17280 4467,-4131 10351,-6145 17718,-6145l42113 0c-7013,-12207 -10528,-27015 -10528,-44556 0,-12459 2369,-24124 7190,-35175 4728,-10967 11321,-20534 19564,-28685 8346,-8169 17979,-14491 28946,-19135 11050,-4653 22800,-6929 35184,-6929l86137 0 0 93775 -45442 0 -1930 -46934 -37282 0c-13074,0 -23957,4215 -32554,12459 -8598,8346 -12888,18511 -12888,30615 0,12813 4131,23425 12365,31855 8346,8421 18865,12720 31585,12720l111493 0c7013,0 12990,2024 17727,6145 4467,4467 6668,10258 6668,17280 0,7619 -2108,13587 -6406,17895 -4299,4299 -10276,6490 -17979,6490l0 -9zm162726 0c-13158,0 -26325,-1417 -39735,-4299 -13419,-2891 -24386,-8598 -33067,-17205 -15265,14314 -33161,21495 -53518,21495l-36853 0c-7721,0 -13689,-2191 -17979,-6490 -4290,-4299 -6490,-10276 -6490,-17895 0,-7637 2108,-13428 6239,-17280 4215,-4131 10276,-6145 18250,-6145l36853 0c8244,0 15443,-3171 21495,-9391 6061,-6239 9120,-13764 9120,-22716l0 -75619 47820 0 0 77017c0,8346 2975,15536 8859,21588 5884,6061 13158,9120 21756,9120l23425 0c7721,0 13587,2024 17718,6145 4476,3851 6761,9642 6761,17280 0,10174 -2975,16851 -8859,19826 -5968,3068 -13158,4560 -21756,4560l-37 9zm-141240 55523l44556 0 0 45442 -44556 0 0 -45442zm74220 0l44482 0 0 45442 -44482 0 0 -45442zm218612 -55523c-13419,0 -25262,-1315 -35613,-4038 -10351,-2714 -20003,-8598 -28946,-17457 -15359,14314 -33161,21495 -53592,21495l-27286 0c-7619,0 -13587,-2191 -17979,-6490 -4290,-4299 -6397,-10276 -6397,-17895 0,-7637 2024,-13428 6239,-17280 4131,-4131 10174,-6145 18156,-6145l27286 0c8244,0 15433,-3171 21495,-9391 6061,-6239 9120,-13764 9120,-22716l0 -75619 47820 0 0 77017c0,8346 2975,15536 8859,21588 5968,6061 13158,9120 21849,9120l9036 0c7637,0 13587,2024 17727,6145 4467,3851 6668,9642 6668,17280 0,7619 -2191,13587 -6668,17895 -4476,4299 -10351,6490 -17727,6490l-47 0zm-90446 55000l44043 0 0 45004 -44043 0 0 -45004zm254570 -55000l-164134 0c-7619,0 -13587,-2191 -17979,-6490 -4290,-4299 -6397,-10276 -6397,-17895 0,-7367 2191,-13074 6668,-17280 4467,-4131 10351,-6145 17718,-6145l34475 0 -28246 -38336 34475 -27286c7013,-7264 10528,-15265 10528,-23854l0 -145008 46403 0 0 122030 970 -532c8598,-7264 18333,-12813 29123,-16478 10883,-3683 22017,-5530 33515,-5530 16301,0 30354,2723 42104,8169 11834,5437 21579,12459 29216,21066 7619,8598 13335,18333 17028,29197 3600,10799 5437,21849 5437,32983 0,12459 -2369,24208 -7190,35175 -4728,11050 -11321,20693 -19564,28946 -8346,8346 -17979,14920 -28946,19826 -11050,5008 -22716,7460 -35175,7460l-28 -19zm-128689 -47811l128698 0c6061,0 11759,-1240 17028,-3600 5278,-2453 9829,-5688 13867,-9820 3954,-4131 7190,-8859 9549,-14137 2369,-5259 3600,-10967 3600,-17028 0,-12459 -4392,-22716 -13158,-30876 -8775,-8076 -20180,-12207 -34214,-12207 -12114,0 -22800,3683 -32107,11050l-93262 76588 0 28zm301868 164572l-12030 -41143 8169 -2891c9922,-4131 19564,-8253 28946,-12459 9391,-4131 17634,-9213 24656,-15265 14035,-11834 21066,-28069 21066,-48864l0 -160712 47820 0 0 161243c-867,18156 -4215,33590 -9726,46141 -5632,12636 -13074,23425 -22548,32284 -9391,8943 -20618,16478 -33692,22539 -13065,6061 -27640,11498 -43605,16245l-9036 2891 -19 -9zm257387 -116762l-104303 0 0 -47820 104303 0c8346,0 15443,-2891 21495,-8682 6136,-5707 9120,-12561 9120,-20534 0,-5791 -1222,-10967 -3581,-15527 -2369,-4644 -5614,-8244 -9829,-10789l-85186 -58861 24908 -38784c970,615 3683,2453 8169,5511 4476,2975 9652,6500 15527,10528 5884,3954 12384,8253 19387,12897 7013,4653 13587,9120 19826,13428 6239,4299 11657,8066 16319,11228 4653,3152 7721,5437 9297,6668 10276,7013 18156,16049 23686,27109 5614,10957 8421,23155 8421,36574 0,10528 -2108,20441 -6239,29654 -4206,9213 -9820,17373 -17028,24386 -7190,7013 -15349,12636 -24647,16757 -9213,4131 -19135,6239 -29654,6239l9 19zm372320 134480l-102475 0c-12720,0 -24553,-2453 -35613,-7190 -10967,-4821 -20516,-11321 -28685,-19648 -8169,-8244 -14650,-17895 -19387,-28946 -4830,-10967 -7190,-22894 -7190,-35613l0 -118683 47904 0 0 118683c0,12720 4131,23332 12365,31855 8346,8421 18511,12636 30615,12636l100013 0c5791,-261 11405,-1417 16757,-3348 5437,-1930 10351,-4728 14650,-8346 4299,-3683 7712,-8169 10258,-13419 2546,-5259 3861,-11228 3861,-17979 0,-11144 -3506,-20889 -10528,-29123 -7013,-8327 -16142,-13419 -27267,-15349l-81848 0 0 -47820 181330 0c7367,0 13242,2024 17718,6145 4476,4206 6668,9922 6668,17280 0,7619 -2108,13587 -6406,17895 -4299,4299 -10276,6490 -17979,6490l-26764 0c8598,11834 12897,26661 12897,44482 0,18856 -5884,36853 -17718,54124l-438 438c-8943,11144 -19742,19826 -32284,26055 -12636,6239 -26139,9372 -40444,9372l-9 9zm288533 -134480c-6751,0 -14473,-354 -23248,-961 -8775,-615 -17634,-1762 -26577,-3348 -8943,-1576 -17280,-3777 -25085,-6490 -7815,-2723 -13941,-6313 -18427,-10705 -15349,14314 -33161,21495 -53592,21495l-36853 0c-7619,0 -13587,-2191 -17979,-6490 -4290,-4299 -6397,-10276 -6397,-17895 0,-7637 2024,-13428 6239,-17280 4131,-4131 10174,-6145 18156,-6145l36853 0c8346,0 15443,-3171 21495,-9391 6136,-6239 9120,-13764 9120,-22716l0 -75619 47904 0 0 77017c0,8346 2891,15536 8775,21588 5968,6061 13158,9120 21849,9120l37805 0c7637,0 13512,2024 17634,6145 4476,3851 6761,9642 6761,17280 0,7619 -2285,13587 -6761,17895 -4476,4299 -10351,6490 -17634,6490l-37 9zm-34037 -186151l-44472 0 0 -45442 44472 0 0 45442zm-74127 0l-44472 0 0 -45442 44472 0 0 45442zm226333 186151l-118170 0c-7367,0 -13335,-2191 -17979,-6490 -4560,-4299 -6929,-10099 -6929,-17457 0,-7013 2369,-12720 6929,-17205 4653,-4476 10621,-6668 17979,-6668l117731 0c8244,0 16142,-2108 23686,-6239 7442,-4206 14118,-9922 19826,-17280l30177 -38252 -56940 -26838c-6061,-3171 -13065,-4728 -21047,-4728 -19135,0 -36583,10174 -52203,30615l-4728 6668 -37805 -20087 5259 -8598c9829,-17205 22110,-30792 36583,-40714 14473,-9829 32032,-14827 52371,-14827 15359,0 29570,3068 42626,9120 7283,3506 15182,7283 23686,11228 8421,4038 16319,7721 23686,11228 8598,4215 17205,8346 25794,12459 5437,2900 12281,4299 20618,4299l33506 0 0 45974c-5437,606 -11228,1222 -17280,1669 -6061,438 -11759,709 -17205,709 -4821,0 -8943,-438 -12459,-1417l-36303 51149c-19480,27817 -46589,41665 -81410,41665l0 19zm241245 0l-47895 0 0 -282304 47895 0 0 282304zm16767 116762l-12030 -41143 8169 -2891c9922,-4131 19564,-8253 28946,-12459 9391,-4131 17634,-9213 24656,-15265 14035,-11834 21066,-28069 21066,-48864l0 -160712 47820 0 0 161243c-867,18156 -4215,33590 -9726,46141 -5632,12636 -13074,23425 -22548,32284 -9391,8943 -20618,16478 -33692,22539 -13065,6061 -27640,11498 -43605,16245l-9036 2891 -19 -9z"/>
 </g>
</svg>
